<?xml version="1.0" encoding="utf-8"?>
<!-- Generator: Adobe Illustrator 16.0.0, SVG Export Plug-In . SVG Version: 6.00 Build 0)  -->
<!DOCTYPE svg PUBLIC "-//W3C//DTD SVG 1.1//EN" "http://www.w3.org/Graphics/SVG/1.1/DTD/svg11.dtd">
<svg version="1.1" id="图层_1" xmlns="http://www.w3.org/2000/svg" xmlns:xlink="http://www.w3.org/1999/xlink" x="0px" y="0px"
	 width="200px" height="200px" viewBox="0 0 200 200" enable-background="new 0 0 200 200" xml:space="preserve">
<path fill="#FFFFFF" d="M145,180H45c-2.76,0-5-2.24-5-5s2.24-5,5-5h100c2.76,0,5,2.24,5,5S147.76,180,145,180z"/>
<path fill="#FFFFFF" d="M165,30c-2.76,0-5,2.24-5,5v150c0,2.76-2.24,5-5,5H45c-8.27,0-15-6.73-15-15s6.73-15,15-15h90
	c8.27,0,15-6.73,15-15V25c0-8.27-6.73-15-15-15H35c-8.27,0-15,6.73-15,15v150c0,13.78,11.22,25,25,25h110c8.27,0,15-6.73,15-15V35
	C170,32.24,167.76,30,165,30L165,30z M35,20h100c2.76,0,5,2.24,5,5v120c0,2.76-2.24,5-5,5H45c-5.62,0-10.82,1.87-15,5.01V25
	C30,22.24,32.24,20,35,20z"/>
</svg>
