<?xml version="1.0" encoding="utf-8"?>
<!-- Generator: Adobe Illustrator 16.0.0, SVG Export Plug-In . SVG Version: 6.00 Build 0)  -->
<!DOCTYPE svg PUBLIC "-//W3C//DTD SVG 1.1//EN" "http://www.w3.org/Graphics/SVG/1.1/DTD/svg11.dtd">
<svg version="1.1" id="图层_1" xmlns="http://www.w3.org/2000/svg" xmlns:xlink="http://www.w3.org/1999/xlink" x="0px" y="0px"
	 width="16px" height="16px" viewBox="0 0 16 16" enable-background="new 0 0 16 16" xml:space="preserve">
<path fill="none" stroke="#333333" stroke-linecap="round" stroke-miterlimit="10" d="M14.5,8v6.5H2c-0.829,0-1.5-0.671-1.5-1.5V4.5
	H1"/>
<g>
	<polygon fill="none" stroke="#333333" stroke-miterlimit="10" points="5.318,8.561 12.535,1.343 14.656,3.464 7.426,10.695 
		4.415,11.607 	"/>
	<path fill="none" stroke="#333333" stroke-miterlimit="10" d="M13.242,4.879l-2.121-2.122L13.242,4.879z"/>
</g>
<path fill="#333333" d="M6.306,2.21L5.194,4.037h0.513c0.185,0,0.328,0.142,0.328,0.329c0,0.186-0.144,0.327-0.328,0.327h-0.9
	L4.664,4.938v0.244h1.043c0.186,0,0.328,0.143,0.328,0.329S5.893,5.839,5.708,5.839H4.664V6.67C4.664,7.076,4.42,7.345,4,7.345
	c-0.421,0-0.665-0.269-0.665-0.674V5.839H2.291c-0.185,0-0.327-0.143-0.327-0.329s0.142-0.329,0.328-0.329h1.044V4.938L3.193,4.693
	H2.291c-0.185,0-0.328-0.142-0.328-0.327c0-0.187,0.143-0.329,0.328-0.329h0.514L1.694,2.21C1.635,2.11,1.576,1.983,1.576,1.865
	c0-0.462,0.429-0.614,0.723-0.614c0.354,0,0.513,0.278,0.573,0.396L4,3.793l1.127-2.146c0.06-0.118,0.218-0.396,0.571-0.396
	c0.295,0,0.724,0.152,0.724,0.614C6.422,1.983,6.364,2.11,6.306,2.21z"/>
</svg>
