<?xml version="1.0" encoding="utf-8"?>
<!-- Generator: Adobe Illustrator 16.0.0, SVG Export Plug-In . SVG Version: 6.00 Build 0)  -->
<!DOCTYPE svg PUBLIC "-//W3C//DTD SVG 1.1//EN" "http://www.w3.org/Graphics/SVG/1.1/DTD/svg11.dtd">
<svg version="1.1" id="Capa_1" xmlns="http://www.w3.org/2000/svg" xmlns:xlink="http://www.w3.org/1999/xlink" x="0px" y="0px"
	 width="16px" height="16px" viewBox="0 0 16 16" enable-background="new 0 0 16 16" xml:space="preserve">
<polygon fill="#007F78" points="10.346,0.552 9.241,0.552 9.241,1.379 6.759,1.379 6.759,0.552 5.654,0.552 1.518,0.552 1.518,16 
	14.482,16 14.482,0.552 "/>
<rect x="6.759" fill="#003F45" width="2.482" height="1.379"/>
<polygon fill="#EDEADA" points="10.891,1.379 5.047,1.379 2.125,1.379 2.125,15.375 13.813,15.375 13.813,1.379 "/>
<rect x="2.125" y="4.414" fill="#CEC9AE" width="11.688" height="0.552"/>
<rect x="2.125" y="7.172" fill="#CEC9AE" width="11.672" height="0.552"/>
<rect x="2.125" y="9.932" fill="#CEC9AE" width="11.672" height="0.551"/>
<rect x="7.094" y="12.689" fill="#CEC9AE" width="6.703" height="0.552"/>
<rect x="3.759" y="1.379" fill="#E54C4C" width="0.552" height="13.996"/>
<path fill="#007F78" d="M6.536,12.203L6.13,12.87h0.188c0.068,0,0.12,0.052,0.12,0.12s-0.053,0.119-0.12,0.119H5.99l-0.053,0.089
	v0.089h0.381c0.068,0,0.12,0.052,0.12,0.12c0,0.067-0.052,0.118-0.12,0.118H5.937v0.305c0,0.148-0.088,0.247-0.242,0.247
	c-0.154,0-0.243-0.099-0.243-0.247v-0.305H5.071c-0.067,0-0.12-0.051-0.12-0.118c0-0.068,0.052-0.12,0.12-0.12h0.381v-0.089
	L5.4,13.109H5.071c-0.067,0-0.12-0.053-0.12-0.119c0-0.068,0.053-0.12,0.12-0.12h0.188l-0.405-0.667
	C4.831,12.166,4.81,12.12,4.81,12.078c0-0.17,0.156-0.225,0.264-0.225c0.129,0,0.187,0.102,0.209,0.145l0.412,0.783l0.412-0.783
	c0.022-0.043,0.08-0.145,0.208-0.145c0.108,0,0.265,0.055,0.265,0.225C6.579,12.12,6.558,12.166,6.536,12.203z"/>
</svg>
