<?xml version="1.0" encoding="utf-8"?>
<!-- Generator: Adobe Illustrator 16.0.0, SVG Export Plug-In . SVG Version: 6.00 Build 0)  -->
<!DOCTYPE svg PUBLIC "-//W3C//DTD SVG 1.1//EN" "http://www.w3.org/Graphics/SVG/1.1/DTD/svg11.dtd">
<svg version="1.1" id="Capa_1" xmlns="http://www.w3.org/2000/svg" xmlns:xlink="http://www.w3.org/1999/xlink" x="0px" y="0px"
	 width="100px" height="100px" viewBox="0 0 100 100" enable-background="new 0 0 100 100" xml:space="preserve">
<rect x="0.848" y="13.204" fill="#E7ECED" width="98.305" height="86.796"/>
<circle fill="#424A60" cx="38.136" cy="47.458" r="1.695"/>
<circle fill="#424A60" cx="50" cy="47.458" r="1.695"/>
<circle fill="#424A60" cx="61.864" cy="47.458" r="1.695"/>
<circle fill="#424A60" cx="73.729" cy="47.458" r="1.695"/>
<circle fill="#424A60" cx="85.594" cy="47.458" r="1.695"/>
<circle fill="#EFCE4A" cx="14.407" cy="61.017" r="1.695"/>
<circle fill="#ED7161" cx="26.271" cy="61.017" r="1.695"/>
<circle fill="#949493" cx="14.407" cy="47.458" r="1.695"/>
<circle fill="#949493" cx="26.271" cy="47.458" r="1.695"/>
<circle fill="#424A60" cx="38.136" cy="61.017" r="1.695"/>
<circle fill="#424A60" cx="50" cy="61.017" r="1.695"/>
<circle fill="#424A60" cx="61.864" cy="61.017" r="1.695"/>
<circle fill="#424A60" cx="73.729" cy="61.017" r="1.695"/>
<circle fill="#424A60" cx="85.594" cy="61.017" r="1.695"/>
<circle fill="#EFCE4A" cx="14.407" cy="72.881" r="1.695"/>
<circle fill="#ED7161" cx="26.271" cy="72.881" r="1.695"/>
<circle fill="#424A60" cx="38.136" cy="72.881" r="1.695"/>
<circle fill="#424A60" cx="50" cy="72.881" r="1.695"/>
<circle fill="#424A60" cx="61.864" cy="72.881" r="1.695"/>
<circle fill="#424A60" cx="73.729" cy="72.881" r="1.695"/>
<circle fill="#424A60" cx="85.594" cy="72.881" r="1.695"/>
<circle fill="#949493" cx="73.729" cy="86.441" r="1.695"/>
<circle fill="#949493" cx="85.594" cy="86.441" r="1.695"/>
<circle fill="#EFCE4A" cx="14.407" cy="86.441" r="1.695"/>
<circle fill="#ED7161" cx="26.271" cy="86.441" r="1.695"/>
<circle fill="#424A60" cx="38.136" cy="86.441" r="1.695"/>
<circle fill="#424A60" cx="50" cy="86.441" r="1.695"/>
<circle fill="#424A60" cx="61.864" cy="86.441" r="1.695"/>
<rect x="0.848" y="1.339" fill="#424A60" width="98.305" height="11.865"/>
<rect x="12.712" y="18.333" fill="#EFCE4A" width="27.119" height="5.072"/>
<rect x="40.5" y="26.631" fill="#ED7161" width="46.789" height="5.071"/>
<rect x="54" y="34.928" fill="#949493" width="33.289" height="5.072"/>
</svg>
