<?xml version="1.0" encoding="utf-8"?>
<!-- Generator: Adobe Illustrator 16.0.0, SVG Export Plug-In . SVG Version: 6.00 Build 0)  -->
<!DOCTYPE svg PUBLIC "-//W3C//DTD SVG 1.1//EN" "http://www.w3.org/Graphics/SVG/1.1/DTD/svg11.dtd">
<svg version="1.1" id="图层_1" xmlns="http://www.w3.org/2000/svg" xmlns:xlink="http://www.w3.org/1999/xlink" x="0px" y="0px"
	 width="200px" height="200px" viewBox="0 0 200 200" enable-background="new 0 0 200 200" xml:space="preserve">
<path fill="#FFFFFF" d="M185.3,119.086c-0.696,0.709-1.315,1.357-1.865,1.981c-0.554,0.622-1.042,1.144-1.455,1.562
	c-0.556,0.564-1.038,0.974-1.448,1.247l-17.633-17.474c0.828-0.701,1.758-1.529,2.796-2.494c1.037-0.982,1.899-1.742,2.597-2.297
	c1.656-1.528,3.453-2.177,5.393-1.981c1.931,0.213,3.521,0.666,4.77,1.358c1.383,0.7,2.869,1.912,4.461,3.639
	c1.588,1.742,2.802,3.57,3.626,5.526c0.417,1.102,0.695,2.494,0.837,4.159C187.512,115.969,186.816,117.574,185.3,119.086
	L185.3,119.086L185.3,119.086L185.3,119.086z M153.35,150.928l-14.311,14.354c-1.939,1.938-3.562,3.612-4.877,4.995
	c-1.314,1.375-2.04,2.143-2.182,2.28c-0.688,0.555-1.446,1.144-2.279,1.775c-0.824,0.613-1.661,1.145-2.49,1.555
	c-0.828,0.418-2.104,0.93-3.832,1.57c-1.73,0.623-3.494,1.204-5.291,1.76c-1.797,0.555-3.527,1.042-5.188,1.451
	c-1.656,0.428-2.905,0.7-3.731,0.836c-1.666,0.283-2.772,0.07-3.322-0.621c-0.555-0.693-0.692-1.872-0.414-3.536
	c0.141-0.837,0.414-2.084,0.829-3.741c0.418-1.672,0.9-3.373,1.455-5.097c0.551-1.742,1.067-3.373,1.559-4.901
	c0.479-1.52,0.861-2.562,1.131-3.108c0.838-1.81,1.943-3.397,3.322-4.79l2.703-2.707l5.183-5.2c2.075-2.084,4.355-4.405,6.845-6.968
	c2.488-2.562,4.977-5.098,7.463-7.591c5.951-5.968,12.66-12.629,20.128-19.973l17.419,17.472L153.35,150.928L153.35,150.928
	L153.35,150.928z M136.037,42.812c0-2.844-2.305-5.149-5.145-5.149H120.6v-10.29h20.587c2.84,0,5.146,2.297,5.146,5.148v69.994
	l-10.295,11.327V42.812L136.037,42.812L136.037,42.812L136.037,42.812z M110.304,47.96h-5.149c-2.839,0-5.144-2.305-5.144-5.148
	V22.224c0-2.843,2.305-5.148,5.144-5.148h5.149c2.839,0,5.146,2.305,5.146,5.148v20.588C115.449,45.655,113.143,47.96,110.304,47.96
	L110.304,47.96L110.304,47.96z M63.98,27.374h30.881v10.29H63.98V27.374L63.98,27.374z M53.686,47.96h-5.145
	c-2.843,0-5.15-2.305-5.15-5.148V22.224c0-2.843,2.307-5.148,5.15-5.148h5.145c2.84,0,5.15,2.305,5.15,5.148v20.588
	C58.835,45.655,56.525,47.96,53.686,47.96L53.686,47.96L53.686,47.96z M22.803,42.812v113.239c0,2.844,2.307,5.149,5.15,5.149
	h65.035l-9.36,10.289H17.654c-2.839,0-5.145-2.296-5.145-5.14V32.522c0-2.852,2.306-5.148,5.145-5.148h20.592v10.29H27.953
	C25.109,37.663,22.803,39.968,22.803,42.812L22.803,42.812L22.803,42.812L22.803,42.812z M120.599,127.744
	c0,1.418-1.153,2.57-2.575,2.57H40.817c-1.422,0-2.571-1.152-2.571-2.57v-5.148c0-1.427,1.148-2.57,2.571-2.57h77.206
	c1.422,0,2.575,1.145,2.575,2.57V127.744L120.599,127.744z M118.023,89.136H40.817c-1.422,0-2.571-1.153-2.571-2.571v-5.148
	c0-1.426,1.148-2.57,2.571-2.57h77.206c1.422,0,2.575,1.145,2.575,2.57v5.148C120.599,87.982,119.445,89.136,118.023,89.136
	L118.023,89.136L118.023,89.136L118.023,89.136z"/>
</svg>
