<?xml version="1.0" encoding="utf-8"?>
<!-- Generator: Adobe Illustrator 16.0.0, SVG Export Plug-In . SVG Version: 6.00 Build 0)  -->
<!DOCTYPE svg PUBLIC "-//W3C//DTD SVG 1.1//EN" "http://www.w3.org/Graphics/SVG/1.1/DTD/svg11.dtd">
<svg version="1.1" id="Capa_1" xmlns="http://www.w3.org/2000/svg" xmlns:xlink="http://www.w3.org/1999/xlink" x="0px" y="0px"
	 width="16px" height="16px" viewBox="0 0 16 16" enable-background="new 0 0 16 16" xml:space="preserve">
<polygon fill="#EDEADA" points="6.671,10.891 4.526,11.477 5.112,9.331 13.337,1.105 0,1.105 0,15.998 14.893,15.998 14.893,2.671 
	"/>
<path fill="#F7E6A1" d="M5.162,10.841c0.107,0.108,0.107,0.282,0,0.39l-0.099,0.1l1.598-0.436L5.108,9.342l-0.436,1.598l0.099-0.099
	C4.879,10.733,5.054,10.733,5.162,10.841z"/>
<path fill="#424A60" d="M5.063,11.33l0.099-0.1c0.107-0.107,0.107-0.281,0-0.39c-0.108-0.107-0.282-0.107-0.39,0l-0.099,0.099
	l-0.146,0.537L5.063,11.33z"/>
<polygon fill="#EBBA16" points="14.082,3.481 12.521,1.921 5.112,9.331 5.108,9.342 6.66,10.895 6.671,10.891 "/>
<path fill="#ED7161" d="M15.84,0.949l-0.786-0.786c-0.214-0.213-0.56-0.213-0.774,0l-0.978,0.978l1.56,1.56l0.979-0.978
	C16.054,1.509,16.054,1.163,15.84,0.949z"/>
<polygon fill="#F7E6A1" points="12.521,1.921 13.302,1.141 13.302,1.141 "/>
<rect x="12.589" y="1.759" transform="matrix(-0.707 -0.7072 0.7072 -0.707 21.7379 13.6272)" fill="#F7E6A1" width="2.206" height="1.102"/>
</svg>
