<?xml version="1.0" encoding="utf-8"?>
<!-- Generator: Adobe Illustrator 16.0.0, SVG Export Plug-In . SVG Version: 6.00 Build 0)  -->
<!DOCTYPE svg PUBLIC "-//W3C//DTD SVG 1.1//EN" "http://www.w3.org/Graphics/SVG/1.1/DTD/svg11.dtd">
<svg version="1.1" id="Capa_1" xmlns="http://www.w3.org/2000/svg" xmlns:xlink="http://www.w3.org/1999/xlink" x="0px" y="0px"
	 width="16px" height="16px" viewBox="0 0 16 16" enable-background="new 0 0 16 16" xml:space="preserve">
<rect x="0.014" y="10.684" fill="#4D4D4D" width="16" height="5.363"/>
<g>
	<polygon fill="#FF9800" points="10.734,10.684 8.491,16 5.165,16 7.409,10.684 	"/>
	<polygon fill="#FF9800" points="15.9,10.684 13.66,16 10.331,16 12.574,10.684 	"/>
	<polygon fill="#FF9800" points="5.568,10.684 3.326,16 -0.001,16 2.243,10.684 	"/>
</g>
<path fill="#AAAAAA" d="M12.055,5.341c0-0.25-0.025-0.494-0.069-0.731l1.368-0.783l-1.346-2.313l-1.369,0.784
	c-0.373-0.316-0.807-0.564-1.277-0.73V0H6.666v1.568C6.194,1.734,5.762,1.982,5.39,2.298L4.02,1.514L2.672,3.827l1.37,0.784
	c-0.044,0.237-0.071,0.48-0.071,0.73s0.026,0.493,0.071,0.73l-1.37,0.784L4.02,9.168l1.37-0.784C5.762,8.7,6.194,8.948,6.666,9.115
	v1.566h2.695V9.115c0.471-0.167,0.904-0.415,1.275-0.73l1.371,0.784l1.349-2.313l-1.37-0.784
	C12.029,5.835,12.055,5.591,12.055,5.341z M8.014,7.344c-1.118,0-2.021-0.897-2.021-2.003s0.904-2.003,2.021-2.003
	s2.02,0.896,2.02,2.003C10.034,6.447,9.131,7.344,8.014,7.344z"/>
</svg>
