<?xml version="1.0" encoding="utf-8"?>
<!-- Generator: Adobe Illustrator 16.0.0, SVG Export Plug-In . SVG Version: 6.00 Build 0)  -->
<!DOCTYPE svg PUBLIC "-//W3C//DTD SVG 1.1//EN" "http://www.w3.org/Graphics/SVG/1.1/DTD/svg11.dtd">
<svg version="1.1" id="图层_1" xmlns="http://www.w3.org/2000/svg" xmlns:xlink="http://www.w3.org/1999/xlink" x="0px" y="0px"
	 width="200px" height="200px" viewBox="0 0 200 200" enable-background="new 0 0 200 200" xml:space="preserve">
<path fill="#FFFFFF" d="M49.641,77.279c13.912,0,25.189-11.529,25.189-25.751c0-14.222-11.277-25.751-25.189-25.751
	c-13.912,0-25.189,11.529-25.189,25.751C24.451,65.75,35.729,77.279,49.641,77.279z M49.641,32.76
	c10.039,0,18.207,8.419,18.207,18.768c0,10.348-8.167,18.768-18.207,18.768s-18.206-8.419-18.206-18.768
	C31.435,41.18,39.602,32.76,49.641,32.76z"/>
<path fill="#FFFFFF" d="M121.125,147.912c0,14.222,11.529,25.751,25.751,25.751s25.751-11.529,25.751-25.751
	c0-14.223-11.529-25.752-25.751-25.752S121.125,133.689,121.125,147.912z"/>
<path fill="#FFFFFF" d="M24.47,122.111h51.502v51.602H24.47V122.111z"/>
<path fill="#FFFFFF" d="M146.85,24.967l26.586,26.585L146.9,78.087l-26.585-26.585L146.85,24.967z"/>
<path fill="#FFFFFF" d="M54.76,120.301V97.155h12.485L50.222,79.005L33.198,97.155h12.485v23.146H54.76z"/>
<path fill="#FFFFFF" d="M101.828,46.99H78.682v9.077h23.146v12.485l18.149-17.023l-18.149-17.023V46.99z"/>
<path fill="#FFFFFF" d="M142.338,78.219v23.146h-12.485l17.023,18.149l17.023-18.149h-12.485V78.219H142.338z"/>
</svg>
