<?xml version="1.0" encoding="utf-8"?>
<!-- Generator: Adobe Illustrator 16.0.0, SVG Export Plug-In . SVG Version: 6.00 Build 0)  -->
<!DOCTYPE svg PUBLIC "-//W3C//DTD SVG 1.1//EN" "http://www.w3.org/Graphics/SVG/1.1/DTD/svg11.dtd">
<svg version="1.1" id="图层_1" xmlns="http://www.w3.org/2000/svg" xmlns:xlink="http://www.w3.org/1999/xlink" x="0px" y="0px"
	 width="200px" height="199.8px" viewBox="0 0 200 199.8" enable-background="new 0 0 200 199.8" xml:space="preserve">
<path fill="#FFFFFF" d="M100.006,199.503c-13.396,0-26.419-2.647-38.706-7.867c-11.854-5.035-22.511-12.236-31.676-21.401
	s-16.366-19.823-21.402-31.677c-5.219-12.287-7.866-25.309-7.866-38.705s2.647-26.419,7.866-38.706
	c5.036-11.854,12.237-22.511,21.402-31.676S49.447,13.105,61.301,8.069C73.587,2.85,86.61,0.203,100.006,0.203
	c13.396,0,26.418,2.647,38.705,7.866c11.854,5.036,22.512,12.237,31.678,21.402c9.164,9.165,16.365,19.823,21.4,31.676
	c5.221,12.287,7.867,25.309,7.867,38.706s-2.646,26.418-7.867,38.705c-5.035,11.854-12.236,22.512-21.4,31.677
	c-9.166,9.165-19.823,16.366-31.678,21.401C126.426,196.856,113.402,199.503,100.006,199.503z M100.006,9.793
	c-12.101,0-23.862,2.39-34.956,7.103c-10.717,4.553-20.354,11.065-28.646,19.356c-8.291,8.292-14.804,17.929-19.356,28.646
	c-4.713,11.094-7.103,22.854-7.103,34.956c0,12.101,2.39,23.861,7.103,34.955c4.553,10.717,11.065,20.355,19.356,28.646
	c8.291,8.291,17.929,14.803,28.646,19.355c11.094,4.714,22.854,7.104,34.956,7.104s23.862-2.39,34.957-7.104
	c10.716-4.553,20.354-11.064,28.645-19.355s14.805-17.93,19.357-28.646c4.713-11.094,7.102-22.854,7.102-34.955
	c0-12.101-2.389-23.862-7.103-34.956c-4.553-10.717-11.065-20.354-19.356-28.646s-17.929-14.804-28.646-19.356
	C123.867,12.183,112.107,9.793,100.006,9.793z M99.989,149.693c-2.758,0-4.995-2.235-4.995-4.994V79.896
	c0-2.759,2.236-4.995,4.995-4.995s4.995,2.236,4.995,4.995v64.803C104.983,147.458,102.747,149.693,99.989,149.693z M99.782,62.423
	c-3.419,0-6.201-2.782-6.201-6.201s2.782-6.2,6.201-6.2c3.419,0,6.201,2.781,6.201,6.2S103.201,62.423,99.782,62.423z"/>
</svg>
