<?xml version="1.0" encoding="utf-8"?>
<!-- Generator: Adobe Illustrator 16.0.0, SVG Export Plug-In . SVG Version: 6.00 Build 0)  -->
<!DOCTYPE svg PUBLIC "-//W3C//DTD SVG 1.1//EN" "http://www.w3.org/Graphics/SVG/1.1/DTD/svg11.dtd">
<svg version="1.1" id="图层_1" xmlns="http://www.w3.org/2000/svg" xmlns:xlink="http://www.w3.org/1999/xlink" x="0px" y="0px"
	 width="16px" height="16px" viewBox="0 0 16 16" enable-background="new 0 0 16 16" xml:space="preserve">
<path fill="#FFFFFF" stroke="#FFFFFF" stroke-miterlimit="10" d="M3.5,8.5c0,0.553-0.448,1-1,1h-1c-0.552,0-1-0.447-1-1v-1
	c0-0.552,0.448-1,1-1h1c0.552,0,1,0.448,1,1V8.5z"/>
<path fill="#FFFFFF" stroke="#FFFFFF" stroke-miterlimit="10" d="M3.5,14.5c0,0.553-0.448,1-1,1h-1c-0.552,0-1-0.447-1-1v-1
	c0-0.553,0.448-1,1-1h1c0.552,0,1,0.447,1,1V14.5z"/>
<path fill="#FFFFFF" stroke="#FFFFFF" stroke-miterlimit="10" d="M3.5,2.389C3.5,3.002,3.002,3.5,2.389,3.5H1.611
	C0.998,3.5,0.5,3.002,0.5,2.389V1.611C0.5,0.998,0.998,0.5,1.611,0.5h0.778C3.002,0.5,3.5,0.998,3.5,1.611V2.389z"/>
<line fill="none" stroke="#FFFFFF" stroke-miterlimit="10" x1="5" y1="2.5" x2="16" y2="2.5"/>
<line fill="none" stroke="#FFFFFF" stroke-miterlimit="10" x1="5" y1="14.5" x2="16" y2="14.5"/>
<line fill="none" stroke="#FFFFFF" stroke-miterlimit="10" x1="5" y1="8.5" x2="16" y2="8.5"/>
</svg>
