<?xml version="1.0" encoding="utf-8"?>
<!-- Generator: Adobe Illustrator 16.0.0, SVG Export Plug-In . SVG Version: 6.00 Build 0)  -->
<!DOCTYPE svg PUBLIC "-//W3C//DTD SVG 1.1//EN" "http://www.w3.org/Graphics/SVG/1.1/DTD/svg11.dtd">
<svg version="1.1" id="Capa_1" xmlns="http://www.w3.org/2000/svg" xmlns:xlink="http://www.w3.org/1999/xlink" x="0px" y="0px"
	 width="16px" height="16px" viewBox="0 0 16 16" enable-background="new 0 0 16 16" xml:space="preserve">
<path fill="#CEC9AE" d="M15.326,3.302H6.467c-0.306,0-0.555-0.248-0.555-0.554c0-0.305,0.249-0.554,0.555-0.554h8.861
	c0.306,0,0.553,0.25,0.553,0.554C15.881,3.055,15.634,3.302,15.326,3.302z"/>
<path fill="#14A085" d="M2.037,3.857c-0.143,0-0.285-0.055-0.392-0.163L0.538,2.586c-0.217-0.217-0.217-0.566,0-0.783
	c0.217-0.217,0.566-0.217,0.783,0l0.756,0.758l2.381-1.906c0.238-0.191,0.588-0.153,0.778,0.086C5.427,0.98,5.389,1.329,5.15,1.521
	L2.382,3.734C2.28,3.816,2.157,3.857,2.037,3.857z"/>
<path fill="#CEC9AE" d="M15.326,9.394H6.467c-0.306,0-0.555-0.247-0.555-0.551c0-0.308,0.249-0.555,0.555-0.555h8.861
	c0.306,0,0.553,0.247,0.553,0.555C15.881,9.146,15.634,9.394,15.326,9.394z"/>
<path fill="#14A085" d="M2.037,9.946c-0.143,0-0.285-0.055-0.392-0.161L0.538,8.676c-0.217-0.215-0.217-0.566,0-0.783
	c0.217-0.215,0.566-0.215,0.783,0l0.756,0.759L4.46,6.745c0.238-0.191,0.588-0.153,0.779,0.087C5.427,7.071,5.389,7.419,5.15,7.61
	L2.382,9.825C2.28,9.907,2.157,9.946,2.037,9.946z"/>
<path fill="#CEC9AE" d="M15.326,15.486H6.467c-0.306,0-0.555-0.248-0.555-0.553c0-0.308,0.249-0.556,0.555-0.556h8.861
	c0.306,0,0.553,0.248,0.553,0.556C15.881,15.238,15.634,15.486,15.326,15.486z"/>
<path fill="#14A085" d="M2.037,16.039c-0.143,0-0.285-0.055-0.392-0.163l-1.107-1.107c-0.217-0.216-0.217-0.566,0-0.784
	c0.217-0.215,0.566-0.215,0.783,0l0.756,0.757l2.383-1.905c0.238-0.192,0.588-0.151,0.779,0.086c0.19,0.239,0.153,0.589-0.087,0.781
	l-2.77,2.215C2.28,16,2.157,16.039,2.037,16.039z"/>
</svg>
