<?xml version="1.0" encoding="utf-8"?>
<!-- Generator: Adobe Illustrator 16.0.0, SVG Export Plug-In . SVG Version: 6.00 Build 0)  -->
<!DOCTYPE svg PUBLIC "-//W3C//DTD SVG 1.1//EN" "http://www.w3.org/Graphics/SVG/1.1/DTD/svg11.dtd">
<svg version="1.1" id="Layer_1" xmlns="http://www.w3.org/2000/svg" xmlns:xlink="http://www.w3.org/1999/xlink" x="0px" y="0px"
	 width="16px" height="16px" viewBox="0 0 16 16" enable-background="new 0 0 16 16" xml:space="preserve">
<path fill="#C5CAE9" d="M7.986,3.073c-1.695,0-3.069,1.373-3.069,3.067h6.138C11.055,4.446,9.681,3.073,7.986,3.073z"/>
<path fill="#4C5870" d="M7.579,2.005V5.26c0,0.224,0.183,0.406,0.407,0.406c0.225,0,0.407-0.182,0.407-0.406V2.005H7.579z"/>
<circle fill="#CCCCCC" cx="7.984" cy="1.732" r="1.729"/>
<path fill="#C5CAE9" d="M3.646,12.854c-1.695,0-3.069,1.371-3.069,3.066h6.138C6.714,14.225,5.34,12.854,3.646,12.854z"/>
<path fill="#4C5870" d="M3.238,11.784v3.255c0,0.225,0.183,0.407,0.407,0.407c0.225,0,0.407-0.183,0.407-0.407v-3.255H3.238z"/>
<circle fill="#CCCCCC" cx="3.644" cy="11.511" r="1.729"/>
<path fill="#C5CAE9" d="M12.354,12.851c-1.695,0-3.069,1.372-3.069,3.066h6.138C15.423,14.223,14.049,12.851,12.354,12.851z"/>
<path fill="#4C5870" d="M11.947,11.781v3.255c0,0.225,0.183,0.407,0.407,0.407c0.224,0,0.406-0.183,0.406-0.407v-3.255H11.947z"/>
<circle fill="#CCCCCC" cx="12.352" cy="11.508" r="1.729"/>
<polygon fill="#4C5870" points="11.934,7.758 8.189,7.758 8.189,6.695 7.783,6.695 7.783,7.758 4.039,7.758 3.632,7.758 
	3.632,8.242 3.632,9.305 4.039,9.305 4.039,8.242 7.783,8.242 8.189,8.242 11.934,8.242 11.934,9.305 12.34,9.305 12.34,8.242 
	12.34,7.758 "/>
</svg>
