<?xml version="1.0" encoding="utf-8"?>
<!-- Generator: Adobe Illustrator 16.0.0, SVG Export Plug-In . SVG Version: 6.00 Build 0)  -->
<!DOCTYPE svg PUBLIC "-//W3C//DTD SVG 1.1//EN" "http://www.w3.org/Graphics/SVG/1.1/DTD/svg11.dtd">
<svg version="1.1" id="图层_1" xmlns="http://www.w3.org/2000/svg" xmlns:xlink="http://www.w3.org/1999/xlink" x="0px" y="0px"
	 width="200px" height="200px" viewBox="0 0 200 200" enable-background="new 0 0 200 200" xml:space="preserve">
<path fill="#FFFFFF" d="M158.334,68.75c0-30.833-25-56.25-56.25-56.25c-31.25,0-56.25,25.417-56.25,56.25
	c0,22.917,13.75,42.5,33.333,51.25c-25.833,7.916-47.083,30-53.75,58.334c-0.417,2.082,0.833,4.582,2.917,5h0.833
	c2.083,0,3.75-1.25,4.167-3.334c7.917-31.666,35.833-55,67.083-55h1.667C133.334,125,158.334,100,158.334,68.75z M54.167,68.75
	c0-26.25,21.667-47.917,47.917-47.917C128.334,20.833,150,42.5,150,68.75s-21.25,47.916-47.916,47.916
	C75.417,116.666,54.167,95.417,54.167,68.75z M137.084,129.166c0,2.5,1.666,4.168,4.166,4.168h29.584c2.5,0,4.166-1.668,4.166-4.168
	S173.334,125,170.834,125H141.25C139.166,125,137.084,127.084,137.084,129.166L137.084,129.166z M137.5,158.334h33.334
	c2.5,0,4.166-1.668,4.166-4.168S173.334,150,170.834,150H137.5c-2.5,0-4.166,1.666-4.166,4.166S135.416,158.334,137.5,158.334z
	 M121.25,175.416h-4.166c-2.5,0-4.168,1.668-4.168,4.168s1.668,4.166,4.168,4.166h4.166c2.5,0,4.166-1.666,4.166-4.166
	S123.334,175.416,121.25,175.416z M116.666,158.334h4.168c2.5,0,4.166-1.668,4.166-4.168S123.334,150,120.834,150h-4.168
	c-2.5,0-4.166,1.666-4.166,4.166S114.166,158.334,116.666,158.334z M170.834,175H137.5c-2.5,0-4.166,1.666-4.166,4.166
	s1.666,4.168,4.166,4.168h33.334c2.5,0,4.166-1.668,4.166-4.168S173.334,175,170.834,175z"/>
</svg>
