<?xml version="1.0" encoding="utf-8"?>
<!-- Generator: Adobe Illustrator 16.0.0, SVG Export Plug-In . SVG Version: 6.00 Build 0)  -->
<!DOCTYPE svg PUBLIC "-//W3C//DTD SVG 1.1//EN" "http://www.w3.org/Graphics/SVG/1.1/DTD/svg11.dtd">
<svg version="1.1" id="图层_1" xmlns="http://www.w3.org/2000/svg" xmlns:xlink="http://www.w3.org/1999/xlink" x="0px" y="0px"
	 width="200px" height="200px" viewBox="0 0 200 200" enable-background="new 0 0 200 200" xml:space="preserve">
<path fill="#FFFFFF" d="M161.816,75H37.793c-13.77,0-24.961,11.172-24.961,24.961v0.078c0,13.73,11.133,24.863,24.863,24.863
	h124.102c13.789,0,24.961-11.172,24.961-24.961C186.777,86.172,175.586,75,161.816,75z M175.02,99.98
	c0,6.875-5.625,12.52-12.52,12.52h-41.016c2.129-3.652,3.34-7.91,3.34-12.441c0-4.59-1.25-8.906-3.418-12.598H162.5
	C169.395,87.461,175.02,93.105,175.02,99.98z"/>
</svg>
