<?xml version="1.0" encoding="utf-8"?>
<!-- Generator: Adobe Illustrator 16.0.0, SVG Export Plug-In . SVG Version: 6.00 Build 0)  -->
<!DOCTYPE svg PUBLIC "-//W3C//DTD SVG 1.1//EN" "http://www.w3.org/Graphics/SVG/1.1/DTD/svg11.dtd">
<svg version="1.1" id="图层_1" xmlns="http://www.w3.org/2000/svg" xmlns:xlink="http://www.w3.org/1999/xlink" x="0px" y="0px"
	 width="16px" height="16px" viewBox="92 92 16 16" enable-background="new 92 92 16 16" xml:space="preserve">
<rect x="94.342" y="94.569" fill="#333333" width="8.286" height="1.113"/>
<path fill="#333333" d="M105.06,95.764c0.329-0.041,0.577-0.288,0.577-0.618v-0.041c-0.041-0.33-0.288-0.577-0.617-0.577
	c-0.331,0.041-0.578,0.288-0.578,0.618v0.042C104.482,95.517,104.73,95.764,105.06,95.764z"/>
<path fill="#333333" d="M106.388,92H93.632C92.732,92,92,92.733,92,93.633v12.754c0,0.901,0.732,1.633,1.632,1.633h12.755
	c0.9,0,1.632-0.731,1.632-1.633V93.633C108.02,92.733,107.288,92,106.388,92z M93.632,92.891h12.755
	c0.409,0,0.741,0.333,0.741,0.742v3.039H92.89v-3.039C92.89,93.224,93.224,92.891,93.632,92.891z M106.388,107.13H93.632
	c-0.409,0-0.742-0.332-0.742-0.743v-8.603h14.239v8.603C107.129,106.796,106.797,107.13,106.388,107.13z"/>
</svg>
