<?xml version="1.0" encoding="utf-8"?>
<!-- Generator: Adobe Illustrator 16.0.0, SVG Export Plug-In . SVG Version: 6.00 Build 0)  -->
<!DOCTYPE svg PUBLIC "-//W3C//DTD SVG 1.1//EN" "http://www.w3.org/Graphics/SVG/1.1/DTD/svg11.dtd">
<svg version="1.1" id="图层_1" xmlns="http://www.w3.org/2000/svg" xmlns:xlink="http://www.w3.org/1999/xlink" x="0px" y="0px"
	 width="200px" height="200px" viewBox="0 0 200 200" enable-background="new 0 0 200 200" xml:space="preserve">
<g>
	<rect x="30.617" y="33.049" fill="#FFFFFF" width="101.854" height="13.682"/>
	<path fill="#FFFFFF" d="M162.367,47.744c4.055-0.507,7.095-3.547,7.095-7.601v-0.507c-0.508-4.054-3.548-7.094-7.601-7.094
		c-4.055,0.507-7.095,3.548-7.095,7.601v0.507C155.272,44.704,158.313,47.744,162.367,47.744z"/>
	<path fill="#FFFFFF" d="M178.684,1.479H21.901c-11.065,0-20.067,9.002-20.067,20.067v156.782c0,11.065,9.002,20.066,20.067,20.066
		h156.783c11.064,0,20.066-9.001,20.066-20.066V21.546C198.75,10.481,189.748,1.479,178.684,1.479z M21.901,12.424h156.783
		c5.029,0,9.121,4.092,9.121,9.122v37.346H12.779V21.546C12.779,16.517,16.872,12.424,21.901,12.424z M178.684,187.451H21.901
		c-5.029,0-9.122-4.091-9.122-9.121V72.575h175.025V178.33C187.805,183.358,183.713,187.451,178.684,187.451z"/>
</g>
</svg>
