<?xml version="1.0" encoding="utf-8"?>
<!-- Generator: Adobe Illustrator 16.0.0, SVG Export Plug-In . SVG Version: 6.00 Build 0)  -->
<!DOCTYPE svg PUBLIC "-//W3C//DTD SVG 1.1//EN" "http://www.w3.org/Graphics/SVG/1.1/DTD/svg11.dtd">
<svg version="1.1" id="图层_1" xmlns="http://www.w3.org/2000/svg" xmlns:xlink="http://www.w3.org/1999/xlink" x="0px" y="0px"
	 width="200px" height="200px" viewBox="0 0 200 200" enable-background="new 0 0 200 200" xml:space="preserve">
<g>
	<rect x="29.905" y="33.35" fill="#FFFFFF" width="102.285" height="13.739"/>
	<path fill="#FFFFFF" d="M161.704,32.84c-4.071,0.51-7.125,3.563-7.125,7.633v0.509c0.509,4.071,3.562,7.124,7.634,7.124
		c4.071-0.509,7.125-3.563,7.125-7.633v-0.509C168.827,35.894,165.773,32.84,161.704,32.84z"/>
	<path fill="#FFFFFF" d="M178.598,1.646H21.151C10.04,1.646,1,10.686,1,21.797v157.445c0,11.113,9.04,20.151,20.151,20.151h157.446
		c11.111,0,20.151-9.038,20.151-20.151V21.797C198.749,10.686,189.709,1.646,178.598,1.646z M187.758,179.244
		c0,5.053-4.109,9.16-9.16,9.16H21.151c-5.05,0-9.16-4.107-9.16-9.16V73.042h175.766V179.244z M187.758,59.302H11.992V21.797
		c0-5.05,4.11-9.16,9.16-9.16h157.446c5.051,0,9.16,4.109,9.16,9.16V59.302z"/>
	<path fill="#FFFFFF" d="M100.842,137.644h25.063v24.224c0,3.034,2.46,5.495,5.495,5.495c3.034,0,5.496-2.461,5.496-5.495v-24.224
		h25.062c3.036,0,5.496-2.462,5.496-5.496c0-3.036-2.46-5.496-5.496-5.496h-25.062v-23.408c0-3.035-2.462-5.496-5.496-5.496
		c-3.035,0-5.495,2.46-5.495,5.496v23.408h-25.063c-3.035,0-5.496,2.46-5.496,5.496C95.346,135.182,97.807,137.644,100.842,137.644z
		"/>
</g>
</svg>
