<?xml version="1.0" encoding="utf-8"?>
<!-- Generator: Adobe Illustrator 16.0.0, SVG Export Plug-In . SVG Version: 6.00 Build 0)  -->
<!DOCTYPE svg PUBLIC "-//W3C//DTD SVG 1.1//EN" "http://www.w3.org/Graphics/SVG/1.1/DTD/svg11.dtd">
<svg version="1.1" id="图层_1" xmlns="http://www.w3.org/2000/svg" xmlns:xlink="http://www.w3.org/1999/xlink" x="0px" y="0px"
	 width="200px" height="200px" viewBox="0 0 200 200" enable-background="new 0 0 200 200" xml:space="preserve">
<g>
	<rect x="30.679" y="33.889" width="101.336" height="13.612"/>
	<path d="M161.257,33.385c-4.034,0.504-7.06,3.529-7.06,7.562v0.505c0.503,4.033,3.528,7.058,7.563,7.058
		c4.034-0.505,7.06-3.529,7.06-7.563v-0.504C168.313,36.409,165.289,33.385,161.257,33.385z"/>
	<path d="M177.993,2.479H22.007c-11.009,0-19.965,8.956-19.965,19.964V178.43c0,11.01,8.956,19.965,19.965,19.965h155.986
		c11.009,0,19.965-8.955,19.965-19.965V22.443C197.958,11.435,189.002,2.479,177.993,2.479z M187.068,178.432
		c0,5.005-4.07,9.075-9.075,9.075H22.007c-5.003,0-9.075-4.07-9.075-9.075V73.214h174.137V178.432z M187.068,59.602H12.932V22.443
		c0-5.003,4.072-9.075,9.075-9.075h155.986c5.005,0,9.075,4.072,9.075,9.075V59.602z"/>
	<path d="M100.958,137.216h24.831v23.999c0,3.007,2.438,5.444,5.445,5.444c3.006,0,5.444-2.438,5.444-5.444v-23.999h24.83
		c3.007,0,5.444-2.438,5.444-5.445c0-3.007-2.438-5.444-5.444-5.444h-24.83v-23.19c0-3.007-2.438-5.445-5.444-5.445
		c-3.008,0-5.445,2.438-5.445,5.445v23.19h-24.831c-3.006,0-5.445,2.438-5.445,5.444C95.513,134.778,97.952,137.216,100.958,137.216
		z"/>
</g>
</svg>
