<?xml version="1.0" encoding="utf-8"?>
<!-- Generator: Adobe Illustrator 16.0.0, SVG Export Plug-In . SVG Version: 6.00 Build 0)  -->
<!DOCTYPE svg PUBLIC "-//W3C//DTD SVG 1.1//EN" "http://www.w3.org/Graphics/SVG/1.1/DTD/svg11.dtd">
<svg version="1.1" id="图层_1" xmlns="http://www.w3.org/2000/svg" xmlns:xlink="http://www.w3.org/1999/xlink" x="0px" y="0px"
	 width="16px" height="16px" viewBox="0 0 16 16" enable-background="new 0 0 16 16" xml:space="preserve">
<path fill="#FFFFFF" d="M16,15H4v-4H0V1h12v4h4V15z M5,14h10V6H5V14z M1,10h3V5h7V2H1V10z"/>
<path fill="#FFFFFF" d="M13,11H8c-0.276,0-0.5-0.224-0.5-0.5S7.724,10,8,10h5c0.276,0,0.5,0.224,0.5,0.5S13.276,11,13,11z"/>
<path fill="#FFFFFF" d="M10.5,13.5c-0.276,0-0.5-0.224-0.5-0.5V8c0-0.276,0.224-0.5,0.5-0.5S11,7.724,11,8v5
	C11,13.276,10.776,13.5,10.5,13.5z"/>
</svg>
