<?xml version="1.0" standalone="no"?><!DOCTYPE svg PUBLIC "-//W3C//DTD SVG 1.1//EN" "http://www.w3.org/Graphics/SVG/1.1/DTD/svg11.dtd"><svg t="1522207814774" class="icon" style="" viewBox="0 0 1024 1024" version="1.1" xmlns="http://www.w3.org/2000/svg" p-id="7292" xmlns:xlink="http://www.w3.org/1999/xlink" width="200" height="200"><defs><style type="text/css"></style></defs><path d="M510.543324 62.365396l378.168945 162.348552 0 245.952668c0 56.386218-9.56996 111.159706-28.680203 164.296927-19.120476 53.148477-45.204551 101.101629-78.256318 143.874805-34.361599 44.719504-74.53967 82.632999-120.54547 113.743554-46.025243 31.109532-96.246041 53.135174-150.686954 66.103534-54.437843-12.968359-104.672968-34.992979-150.682861-66.103534-46.025243-31.110555-86.201268-69.02405-120.54547-113.743554-33.051767-42.773176-59.150168-90.725304-78.255295-143.874805-19.125593-53.137221-28.680203-107.910709-28.680203-164.296927L132.379495 224.713948 510.543324 62.365396 510.543324 62.365396zM510.543324 509.552252 510.543324 150.83124l-294.558689 127.35148 0 231.370555L510.543324 509.553275l0 363.581716c39.526225-11.012821 75.830059-28.343535 108.881826-52.012607 33.051767-23.647583 62.215994-51.671846 87.49268-84.08814 25.913183-31.746028 47.302329-66.911946 64.162322-105.480356 16.84669-38.546921 28.192086-79.227436 34.024931-122.000612L510.543324 509.553275 510.543324 509.552252zM510.543324 509.552252" p-id="7293"></path></svg>