<?xml version="1.0" encoding="utf-8"?>
<!-- Generator: Adobe Illustrator 16.0.0, SVG Export Plug-In . SVG Version: 6.00 Build 0)  -->
<!DOCTYPE svg PUBLIC "-//W3C//DTD SVG 1.1//EN" "http://www.w3.org/Graphics/SVG/1.1/DTD/svg11.dtd">
<svg version="1.1" id="图层_1" xmlns="http://www.w3.org/2000/svg" xmlns:xlink="http://www.w3.org/1999/xlink" x="0px" y="0px"
	 width="200px" height="200px" viewBox="0 0 200 200" enable-background="new 0 0 200 200" xml:space="preserve">
<path fill="#FFFFFF" d="M99.715,12.181l73.861,31.709v48.038c0,11.012-1.869,21.71-5.602,32.088
	c-3.734,10.381-8.828,19.747-15.284,28.102c-6.711,8.734-14.559,16.139-23.544,22.215c-8.989,6.076-18.798,10.379-29.431,12.911
	c-10.632-2.532-20.444-6.835-29.43-12.911c-8.989-6.076-16.836-13.48-23.544-22.215c-6.456-8.354-11.553-17.721-15.284-28.102
	c-3.735-10.378-5.602-21.076-5.602-32.088V43.89L99.715,12.181L99.715,12.181z M99.715,99.522V29.459L42.185,54.333v45.189H99.715
	v71.012c7.72-2.151,14.81-5.536,21.266-10.159c6.456-4.618,12.151-10.092,17.089-16.423c5.061-6.2,9.238-13.069,12.531-20.602
	c3.291-7.528,5.506-15.474,6.646-23.829H99.715L99.715,99.522z"/>
</svg>
