<?xml version="1.0" encoding="utf-8"?>
<!-- Generator: Adobe Illustrator 16.0.0, SVG Export Plug-In . SVG Version: 6.00 Build 0)  -->
<!DOCTYPE svg PUBLIC "-//W3C//DTD SVG 1.1//EN" "http://www.w3.org/Graphics/SVG/1.1/DTD/svg11.dtd">
<svg version="1.1" id="图层_1" xmlns="http://www.w3.org/2000/svg" xmlns:xlink="http://www.w3.org/1999/xlink" x="0px" y="0px"
	 width="16px" height="16px" viewBox="0 0 16 16" enable-background="new 0 0 16 16" xml:space="preserve">
<path fill="#FFFFFF" d="M13.467,0.375H3.006c-1.433,0-2.599,1.166-2.599,2.6v10.3c0,1.435,1.166,2.599,2.599,2.599h10.461
	c1.435,0,2.599-1.164,2.599-2.599v-10.3C16.065,1.54,14.9,0.375,13.467,0.375z M4.237,1.389h7.999v5.745H4.237V1.389z
	 M15.052,13.274c0,0.875-0.71,1.586-1.585,1.586H3.006c-0.875,0-1.586-0.711-1.586-1.586v-10.3c0-0.875,0.711-1.585,1.586-1.585v0
	h0.217v6.759H13.25l0,0V1.389h0.218c0.874,0,1.584,0.71,1.584,1.585V13.274L15.052,13.274z M9.729,2.881h1.015v3.38H9.729V2.881z"/>
</svg>
