<?xml version="1.0" encoding="utf-8"?>
<!-- Generator: Adobe Illustrator 16.0.0, SVG Export Plug-In . SVG Version: 6.00 Build 0)  -->
<!DOCTYPE svg PUBLIC "-//W3C//DTD SVG 1.1//EN" "http://www.w3.org/Graphics/SVG/1.1/DTD/svg11.dtd">
<svg version="1.1" id="图层_1" xmlns="http://www.w3.org/2000/svg" xmlns:xlink="http://www.w3.org/1999/xlink" x="0px" y="0px"
	 width="200px" height="200px" viewBox="0 0 200 200" enable-background="new 0 0 200 200" xml:space="preserve">
<path fill="#FFFFFF" d="M150.898,23.56H48.009c-9.433,0-16.826,7.533-16.826,17.148l0.35,118.129
	c0,9.616,7.393,17.148,16.826,17.148h30.372V70.152h89.639v-0.487V40.708C168.37,31.252,160.533,23.56,150.898,23.56z
	 M159.017,60.799h-11.692V45.209h-6.236v15.589h-12.471v-9.354h-6.236v9.354H109.91v-9.354h-6.236v9.354H91.202V45.209h-6.235
	v15.589h-6.236h-7.015h-2.339v12.472h-9.354v6.235h9.354v12.472H53.788v6.236h15.589v12.472h-9.354v6.235h9.354v12.472h-9.354v6.235
	h9.354V148.1H53.788v6.236h15.589v12.296H48.359c-4.19,0-7.472-3.424-7.472-7.795l-0.35-118.129c0-4.371,3.282-7.794,7.472-7.794
	h102.89c4.403,0,8.118,3.57,8.118,7.794V60.799z"/>
</svg>
