<?xml version="1.0" encoding="utf-8"?>
<!-- Generator: Adobe Illustrator 16.0.0, SVG Export Plug-In . SVG Version: 6.00 Build 0)  -->
<!DOCTYPE svg PUBLIC "-//W3C//DTD SVG 1.1//EN" "http://www.w3.org/Graphics/SVG/1.1/DTD/svg11.dtd">
<svg version="1.1" id="图层_1" xmlns="http://www.w3.org/2000/svg" xmlns:xlink="http://www.w3.org/1999/xlink" x="0px" y="0px"
	 width="16px" height="16px" viewBox="0 0 16 16" enable-background="new 0 0 16 16" xml:space="preserve">
<path d="M7.989,7.536V4.284H7.094v4.147h3.289V7.536H7.989L7.989,7.536z"/>
<path d="M6.753,10.078v0.895H0.817v-0.895H6.753L6.753,10.078z"/>
<path d="M6.753,12.09v0.896H0.817V12.09H6.753L6.753,12.09z"/>
<path d="M6.753,14.103v0.896H0.817v-0.896H6.753L6.753,14.103z"/>
<path d="M14.178,5.973c0.109-0.065,0.188-0.174,0.212-0.299L14.953,2.8c0.049-0.243-0.109-0.478-0.353-0.526
	c-0.243-0.047-0.478,0.111-0.525,0.354l-0.324,1.651c-0.278-0.443-0.605-0.854-0.979-1.229c-0.643-0.643-1.391-1.147-2.225-1.5
	C9.684,1.186,8.768,1,7.823,1C6.879,1,5.962,1.186,5.099,1.55c-0.833,0.353-1.581,0.857-2.224,1.5s-1.147,1.391-1.5,2.224
	c-0.365,0.863-0.55,1.78-0.55,2.724c0,0.411,0.035,0.816,0.104,1.215h0.911c-0.079-0.395-0.12-0.802-0.12-1.215
	c0-1.63,0.635-3.163,1.787-4.315C4.66,2.53,6.193,1.896,7.823,1.896c1.63,0,3.163,0.635,4.315,1.788
	c0.347,0.347,0.647,0.729,0.896,1.137l-1.927-0.625c-0.235-0.077-0.488,0.052-0.564,0.288s0.053,0.488,0.288,0.564l2.981,0.967
	c0.045,0.015,0.092,0.022,0.138,0.022C14.029,6.035,14.107,6.014,14.178,5.973L14.178,5.973z"/>
<path d="M13.811,9.187c-0.231,1.177-0.805,2.259-1.673,3.127c-1.139,1.139-2.649,1.771-4.258,1.786v0.896
	c0.925-0.008,1.821-0.192,2.667-0.551c0.834-0.352,1.582-0.856,2.225-1.499s1.146-1.391,1.499-2.224
	c0.21-0.496,0.36-1.01,0.45-1.536H13.811L13.811,9.187z"/>
</svg>
