<?xml version="1.0" encoding="utf-8"?>
<!-- Generator: Adobe Illustrator 16.0.0, SVG Export Plug-In . SVG Version: 6.00 Build 0)  -->
<!DOCTYPE svg PUBLIC "-//W3C//DTD SVG 1.1//EN" "http://www.w3.org/Graphics/SVG/1.1/DTD/svg11.dtd">
<svg version="1.1" id="图层_1" xmlns="http://www.w3.org/2000/svg" xmlns:xlink="http://www.w3.org/1999/xlink" x="0px" y="0px"
	 width="769px" height="769px" viewBox="-381.5 -381.5 769 769" enable-background="new -381.5 -381.5 769 769"
	 xml:space="preserve">
<path fill="#FFFFFF" d="M12.877-184.648h-45.844v212.32h168.383v-45.844H12.877V-184.648z"/>
<rect x="-354.298" y="111.98" fill="#FFFFFF" width="303.901" height="45.845"/>
<rect x="-354.298" y="215.008" fill="#FFFFFF" width="303.901" height="45.844"/>
<rect x="-354.298" y="318.035" fill="#FFFFFF" width="303.901" height="45.844"/>
<path fill="#FFFFFF" d="M329.736-98.172c5.647-3.328,9.604-8.91,10.871-15.343l28.879-147.145
	c2.438-12.426-5.656-24.473-18.078-26.91c-12.422-2.434-24.474,5.656-26.906,18.078l-16.59,84.523
	c-14.234-22.656-31-43.695-50.184-62.878c-32.896-32.899-71.211-58.727-113.879-76.774C99.666-343.312,52.74-352.789,4.381-352.789
	c-48.355,0-95.281,9.477-139.469,28.164c-42.664,18.051-80.98,43.879-113.879,76.778c-32.895,32.898-58.727,71.211-76.773,113.878
	c-18.688,44.188-28.164,91.11-28.164,139.469c0,21.047,1.797,41.824,5.367,62.223h46.641c-4.074-20.262-6.164-41.082-6.164-62.223
	c0-83.457,32.5-161.922,91.512-220.933c59.016-59.012,137.473-91.512,220.93-91.512s161.923,32.496,220.935,91.512
	c17.762,17.765,33.102,37.3,45.897,58.195l-98.676-32c-12.043-3.906-24.97,2.691-28.875,14.73
	c-3.906,12.039,2.688,24.969,14.729,28.872l152.648,49.511c2.309,0.746,4.695,1.114,7.07,1.114
	C322.158-95.011,326.174-96.082,329.736-98.172L329.736-98.172z"/>
<rect x="-355" y="-353" fill="none" width="724.8" height="717.84"/>
<path fill="#FFFFFF" d="M310.936,66.348c-11.832,60.268-41.219,115.682-85.621,160.082c-58.323,58.324-135.641,90.728-218,91.48
	v45.859c47.32-0.375,93.246-9.836,136.535-28.146c42.668-18.051,80.98-43.879,113.879-76.776
	c32.899-32.898,58.73-71.211,76.777-113.88c10.738-25.387,18.426-51.68,23.031-78.62H310.936L310.936,66.348z"/>
</svg>
