<?xml version="1.0" encoding="utf-8"?>
<!-- Generator: Adobe Illustrator 16.0.0, SVG Export Plug-In . SVG Version: 6.00 Build 0)  -->
<!DOCTYPE svg PUBLIC "-//W3C//DTD SVG 1.1//EN" "http://www.w3.org/Graphics/SVG/1.1/DTD/svg11.dtd">
<svg version="1.1" id="Capa_1" xmlns="http://www.w3.org/2000/svg" xmlns:xlink="http://www.w3.org/1999/xlink" x="0px" y="0px"
	 width="16px" height="16px" viewBox="0 0 16 16" enable-background="new 0 0 16 16" xml:space="preserve">
<path fill="#E7ECED" d="M10.291,15.163c0,0.463-0.374,0.837-0.837,0.837H0.837C0.375,16,0,15.626,0,15.163V6.546
	c0-0.462,0.375-0.837,0.837-0.837h8.617c0.463,0,0.837,0.375,0.837,0.837V15.163z"/>
<path fill="#88C057" d="M12.363,2.106V0l3.491,3.51l-3.491,3.51V4.914c0,0-3.1-0.75-5.217,2.808c0,0-0.528-2.716,1.837-4.684
	C8.983,3.038,10.055,2.036,12.363,2.106z"/>
<path fill="#333333" d="M6.83,8.112l-1.259,2.07h0.582c0.21,0,0.372,0.161,0.372,0.372c0,0.21-0.162,0.371-0.372,0.371H5.13
	l-0.162,0.277v0.275h1.184c0.21,0,0.372,0.163,0.372,0.373s-0.162,0.372-0.372,0.372H4.968v0.943c0,0.457-0.275,0.764-0.75,0.764
	c-0.479,0-0.754-0.307-0.754-0.764v-0.943H2.28c-0.21,0-0.372-0.162-0.372-0.372s0.162-0.373,0.372-0.373h1.184v-0.275l-0.162-0.277
	H2.28c-0.21,0-0.372-0.161-0.372-0.371c0-0.211,0.162-0.372,0.372-0.372h0.582l-1.259-2.07C1.537,7.999,1.472,7.856,1.472,7.722
	c0-0.523,0.485-0.695,0.819-0.695c0.399,0,0.582,0.315,0.647,0.447l1.281,2.432l1.277-2.432C5.56,7.342,5.743,7.027,6.142,7.027
	c0.333,0,0.819,0.172,0.819,0.695C6.961,7.856,6.896,7.999,6.83,8.112z"/>
</svg>
