<?xml version="1.0" encoding="utf-8"?>
<!-- Generator: Adobe Illustrator 16.0.0, SVG Export Plug-In . SVG Version: 6.00 Build 0)  -->
<!DOCTYPE svg PUBLIC "-//W3C//DTD SVG 1.1//EN" "http://www.w3.org/Graphics/SVG/1.1/DTD/svg11.dtd">
<svg version="1.1" id="Capa_1" xmlns="http://www.w3.org/2000/svg" xmlns:xlink="http://www.w3.org/1999/xlink" x="0px" y="0px"
	 width="16px" height="16px" viewBox="0 0 16 16" enable-background="new 0 0 16 16" xml:space="preserve">
<path fill="#333333" d="M13.404,4.55V3.072l2.449,2.462l-2.449,2.462V6.518c0,0-2.174-0.526-3.659,1.97c0,0-0.369-1.905,1.289-3.286
	C11.034,5.203,11.786,4.5,13.404,4.55z"/>
<path fill="#333333" d="M10.396,4.769L8.053,8.623h1.082c0.393,0,0.693,0.297,0.693,0.691c0,0.391-0.301,0.693-0.693,0.693H7.231
	L6.929,10.52v0.514h2.204c0.393,0,0.693,0.303,0.693,0.691c0,0.393-0.301,0.695-0.693,0.695H6.929v1.752
	c0,0.852-0.511,1.426-1.395,1.426c-0.89,0-1.403-0.574-1.403-1.426V12.42H1.927c-0.39,0-0.691-0.303-0.691-0.695
	c0-0.389,0.301-0.691,0.691-0.691h2.204V10.52l-0.299-0.512H1.927c-0.39,0-0.691-0.303-0.691-0.693c0-0.395,0.301-0.691,0.691-0.691
	h1.084L0.669,4.769c-0.123-0.21-0.245-0.476-0.245-0.727c0-0.973,0.903-1.293,1.525-1.293c0.742,0,1.082,0.586,1.203,0.831
	l2.384,4.527L7.912,3.58c0.121-0.245,0.461-0.831,1.205-0.831c0.621,0,1.524,0.32,1.524,1.293
	C10.641,4.293,10.518,4.557,10.396,4.769z"/>
</svg>
