<?xml version="1.0" encoding="utf-8"?>
<!-- Generator: Adobe Illustrator 16.0.0, SVG Export Plug-In . SVG Version: 6.00 Build 0)  -->
<!DOCTYPE svg PUBLIC "-//W3C//DTD SVG 1.1//EN" "http://www.w3.org/Graphics/SVG/1.1/DTD/svg11.dtd">
<svg version="1.1" id="图层_1" xmlns="http://www.w3.org/2000/svg" xmlns:xlink="http://www.w3.org/1999/xlink" x="0px" y="0px"
	 width="200px" height="200px" viewBox="0 0 200 200" enable-background="new 0 0 200 200" xml:space="preserve">
<path fill="#333333" d="M161.251,126.473l-1.239,2.484l1.553,2.302l15.258,22.636l0.623-6.07l-27.145,26.468l5.762-0.682
	l-24.914-14.845l-2.063-1.229l-2.215,0.928c-1.573,0.658-3.176,1.261-4.793,1.801l-2.584,0.863l-0.565,2.665l-5.452,25.694
	l4.658-3.773H79.741l4.622,3.617l-6.659-26.896l-0.594-2.398l-2.303-0.895c-1.437-0.559-2.861-1.168-4.261-1.824l-2.377-1.112
	l-2.21,1.417l-23.402,14.994l5.893,0.6l-27.145-26.466l0.71,5.938L37.236,128.4l1.347-2.148l-1.032-2.317
	c-0.716-1.609-1.369-3.252-1.953-4.915l-0.897-2.556l-2.655-0.536l-26.344-5.313l3.82,4.668V77.851l-3.671,4.635l27.588-6.493
	l2.389-0.562l0.929-2.271c0.67-1.639,1.409-3.256,2.212-4.839l1.256-2.475l-1.535-2.313L24.353,41.93l-0.617,6.017L50.72,21.23
	l-5.815,0.69l23.98,14.51l2.069,1.252l2.231-0.933c1.292-0.54,2.605-1.042,3.93-1.502l2.438-0.848l0.62-2.505l6.435-25.988
	l-4.623,3.618h38.391l-4.658-3.773l5.634,26.549l0.543,2.558l2.45,0.915c1.99,0.743,3.948,1.578,5.855,2.498l2.376,1.147
	l2.232-1.407l22.158-13.969l-5.837-0.592l27.416,26.308l-0.719-5.994l-14.896,23.389l-1.365,2.144l1.021,2.328
	c0.703,1.601,1.343,3.236,1.914,4.891l0.857,2.479l2.553,0.601l26.235,6.173l-3.671-4.635v37.432l3.82-4.668l-27.699,5.587
	l-2.486,0.501l-0.971,2.344C162.563,123.725,161.932,125.109,161.251,126.473z M167.54,124.151l0.941,4.668l27.698-5.587l3.82-0.771
	v-3.896V81.132v-3.771l-3.671-0.864l-26.235-6.173l-1.09,4.635l4.5-1.556c-0.655-1.897-1.389-3.771-2.195-5.608l-4.36,1.914
	l4.017,2.559l14.896-23.389l2.096-3.292l-2.815-2.703l-27.417-26.308l-2.686-2.578l-3.15,1.985L129.73,29.953l2.539,4.028
	l2.07-4.289c-2.172-1.048-4.399-1.999-6.664-2.844l-1.665,4.461l4.658-0.988l-5.634-26.549L124.234,0h-3.857H81.986H78.26
	l-0.896,3.617l-6.435,25.988l4.623,1.145l-1.565-4.498c-1.507,0.524-3,1.095-4.472,1.71l1.835,4.394l2.465-4.074l-23.98-14.51
	l-3.177-1.922l-2.639,2.612L17.035,41.179l-2.783,2.755l2.166,3.262L30.757,68.8l3.967-2.633l-4.247-2.154
	c-0.919,1.813-1.767,3.666-2.535,5.544l4.408,1.802l-1.091-4.635L3.671,73.216L0,74.08v3.771v37.432v3.896l3.82,0.771l26.344,5.313
	l0.942-4.668l-4.493,1.577c0.669,1.907,1.417,3.79,2.239,5.636l4.35-1.938l-4.035-2.528l-15.223,24.288l-2.041,3.256l2.751,2.684
	L41.8,180.036l2.708,2.641l3.185-2.04l23.402-14.995l-2.569-4.01l-2.019,4.313c1.593,0.745,3.212,1.438,4.848,2.074l1.725-4.439
	l-4.622,1.145l6.659,26.896l0.896,3.617h3.727h38.394h3.856l0.801-3.773l5.453-25.693l-4.658-0.989l1.509,4.517
	c1.84-0.614,3.662-1.299,5.453-2.049l-1.838-4.393l-2.438,4.091l24.914,14.844l3.143,1.872l2.619-2.553l27.146-26.469l2.847-2.775
	l-2.223-3.295l-15.258-22.637l-3.948,2.662l4.262,2.125c0.778-1.563,1.501-3.148,2.165-4.749L167.54,124.151z M142.857,97.619
	c0-22.354-18.122-40.476-40.477-40.476S61.905,75.265,61.905,97.619s18.122,40.477,40.476,40.477c5.726,0,11.292-1.193,16.418-3.471
	c2.404-1.067,3.486-3.881,2.419-6.285c-1.067-2.402-3.882-3.486-6.285-2.418c-3.915,1.739-8.165,2.649-12.552,2.649
	c-17.094,0-30.952-13.858-30.952-30.952c0-17.095,13.858-30.953,30.952-30.953c17.095,0,30.953,13.858,30.953,30.953
	c0,2.259-0.242,4.482-0.715,6.648c-0.563,2.568,1.064,5.107,3.635,5.669c2.568,0.562,5.107-1.065,5.669-3.635
	C142.542,103.47,142.857,100.563,142.857,97.619z"/>
</svg>
