<?xml version="1.0" encoding="utf-8"?>
<!-- Generator: Adobe Illustrator 16.0.0, SVG Export Plug-In . SVG Version: 6.00 Build 0)  -->
<!DOCTYPE svg PUBLIC "-//W3C//DTD SVG 1.1//EN" "http://www.w3.org/Graphics/SVG/1.1/DTD/svg11.dtd">
<svg version="1.1" id="图层_1" xmlns="http://www.w3.org/2000/svg" xmlns:xlink="http://www.w3.org/1999/xlink" x="0px" y="0px"
	 width="200px" height="200px" viewBox="0 0 200 200" enable-background="new 0 0 200 200" xml:space="preserve">
<path fill="#FFFFFF" d="M136.164,82.609h29.408c7.256,0,13.156,5.86,13.156,13.056v82.583v17.404l4.386-4.348h-17.501H42.72
	c-7.23,0-13.115-5.857-13.115-13.057V95.665c0-3.324,0-3.324,0-7.749c0-1.408,0-1.408,0-2.78c0-5.309,0-5.309,0-6.875l-4.386,4.348
	c1.596,0,1.596,0,6.981,0c1.319,0,1.319,0,2.669,0c4.537,0,4.537,0,7.885,0h26.471c2.422,0,4.386-1.947,4.386-4.348
	s-1.964-4.348-4.386-4.348H42.755c-3.348,0-3.348,0-7.885,0c-1.351,0-1.351,0-2.669,0c-5.385,0-5.385,0-6.981,0
	c-2.422,0-4.386,1.946-4.386,4.348c0,1.566,0,1.566,0,6.875c0,1.372,0,1.372,0,2.78c0,4.425,0,4.425,0,7.749v82.583
	c0,11.993,9.804,21.752,21.887,21.752h122.893h17.501c2.422,0,4.386-1.947,4.386-4.348v-17.404V95.665
	c0-11.995-9.824-21.751-21.928-21.751h-29.408c-2.423,0-4.387,1.946-4.387,4.348S133.741,82.609,136.164,82.609L136.164,82.609z"/>
<path fill="#FFFFFF" d="M67.968,55.228l39.211-43.64l-6.527,0.025l39.16,42.919c1.625,1.781,4.398,1.918,6.195,0.308
	c1.796-1.611,1.936-4.36,0.311-6.141L107.157,5.779l-3.278-3.593l-3.25,3.617l-39.211,43.64c-1.611,1.793-1.451,4.542,0.358,6.139
	C63.584,57.18,66.357,57.021,67.968,55.228L67.968,55.228z"/>
<path fill="#FFFFFF" d="M99.822,15.316L99.74,152.781c-0.001,2.402,1.961,4.35,4.383,4.352c2.422,0.001,4.387-1.944,4.389-4.346
	l0.082-137.466c0.002-2.401-1.961-4.349-4.383-4.35C101.788,10.969,99.823,12.915,99.822,15.316L99.822,15.316z"/>
</svg>
