<?xml version="1.0" encoding="utf-8"?>
<!-- Generator: Adobe Illustrator 16.0.0, SVG Export Plug-In . SVG Version: 6.00 Build 0)  -->
<!DOCTYPE svg PUBLIC "-//W3C//DTD SVG 1.1//EN" "http://www.w3.org/Graphics/SVG/1.1/DTD/svg11.dtd">
<svg version="1.1" id="Capa_1" xmlns="http://www.w3.org/2000/svg" xmlns:xlink="http://www.w3.org/1999/xlink" x="0px" y="0px"
	 width="16px" height="16px" viewBox="0 0 16 16" enable-background="new 0 0 16 16" xml:space="preserve">
<polygon fill="#424A60" points="10.345,0.552 9.241,0.552 9.241,1.379 6.759,1.379 6.759,0.552 5.655,0.552 1.517,0.552 1.517,16 
	14.482,16 14.482,0.552 "/>
<rect x="6.759" fill="#303644" width="2.482" height="1.379"/>
<polygon fill="#EDEADA" points="11.172,1.379 11.172,2.207 4.828,2.207 4.828,1.379 2.345,1.379 2.345,15.172 13.655,15.172 
	13.655,1.379 "/>
<polygon fill="#7383BF" points="9.241,0.552 9.241,1.379 6.759,1.379 6.759,0.552 4.828,0.552 4.828,2.207 11.172,2.207 
	11.172,0.552 "/>
<path fill="#CEC9AE" d="M7.586,4.414H4c-0.152,0-0.276-0.123-0.276-0.276c0-0.152,0.124-0.275,0.276-0.275h3.586
	c0.152,0,0.276,0.123,0.276,0.275C7.862,4.291,7.739,4.414,7.586,4.414z"/>
<path fill="#CEC9AE" d="M7.586,12.965H4c-0.152,0-0.276-0.123-0.276-0.275S3.848,12.414,4,12.414h3.586
	c0.152,0,0.276,0.123,0.276,0.275S7.739,12.965,7.586,12.965z"/>
<path fill="#CEC9AE" d="M12,6.069H4c-0.152,0-0.276-0.123-0.276-0.276c0-0.152,0.124-0.276,0.276-0.276h8
	c0.152,0,0.275,0.124,0.275,0.276C12.275,5.946,12.152,6.069,12,6.069z"/>
<path fill="#CEC9AE" d="M12,9.379H4c-0.152,0-0.276-0.123-0.276-0.275S3.848,8.828,4,8.828h8c0.152,0,0.275,0.123,0.275,0.275
	S12.152,9.379,12,9.379z"/>
<path fill="#CEC9AE" d="M12,11.311H4c-0.152,0-0.276-0.123-0.276-0.275c0-0.153,0.124-0.276,0.276-0.276h8
	c0.152,0,0.275,0.123,0.275,0.276C12.275,11.188,12.152,11.311,12,11.311z"/>
<path fill="#CEC9AE" d="M7.862,7.724H4c-0.152,0-0.276-0.124-0.276-0.276S3.848,7.172,4,7.172h3.862
	c0.152,0,0.275,0.124,0.275,0.276S8.015,7.724,7.862,7.724z"/>
<path fill="#CEC9AE" d="M12,7.724h-1.932c-0.152,0-0.275-0.124-0.275-0.276s0.123-0.276,0.275-0.276H12
	c0.152,0,0.275,0.124,0.275,0.276S12.152,7.724,12,7.724z"/>
<path fill="#CEC9AE" d="M8.965,7.724c-0.074,0-0.143-0.028-0.195-0.08c-0.05-0.052-0.08-0.124-0.08-0.196
	c0-0.075,0.027-0.144,0.08-0.196c0.105-0.105,0.287-0.102,0.392,0c0.052,0.052,0.08,0.121,0.08,0.196s-0.03,0.144-0.08,0.196
	C9.109,7.694,9.04,7.724,8.965,7.724z"/>
</svg>
