<?xml version="1.0" encoding="utf-8"?>
<!-- Generator: Adobe Illustrator 16.0.0, SVG Export Plug-In . SVG Version: 6.00 Build 0)  -->
<!DOCTYPE svg PUBLIC "-//W3C//DTD SVG 1.1//EN" "http://www.w3.org/Graphics/SVG/1.1/DTD/svg11.dtd">
<svg version="1.1" id="Layer_1" xmlns="http://www.w3.org/2000/svg" xmlns:xlink="http://www.w3.org/1999/xlink" x="0px" y="0px"
	 width="16px" height="16px" viewBox="0 0 16 16" enable-background="new 0 0 16 16" xml:space="preserve">
<g>
	<g>
		<path fill="none" stroke="#FFFFFF" stroke-miterlimit="10" d="M12.236,12.915h2.035c0.258,0,0.504-0.104,0.686-0.288
			c0.181-0.183,0.281-0.432,0.277-0.69c-0.003-0.246-0.061-1.515-0.816-2.271c-0.341-0.341-0.912-0.638-1.811-1.088
			c-0.454-0.228-1.208-0.604-1.392-0.777c0.767-0.941,1.211-2.005,1.211-2.936c0-0.632,0-1.418-0.353-2.119
			c-0.319-0.631-1.031-1.384-2.615-1.384c-1.583,0-2.295,0.752-2.614,1.384C6.787,2.858,6.739,2.972,6.699,3.088 M6.699,3.088"/>
	</g>
</g>
<g>
	<g>
		<path fill="none" stroke="#FFFFFF" stroke-miterlimit="10" d="M11.502,11.389c-0.341-0.34-0.912-0.638-1.811-1.088
			c-0.454-0.227-1.208-0.604-1.392-0.777c0.767-0.942,1.211-2.005,1.211-2.936c0-0.632,0-1.418-0.354-2.119
			C8.839,3.837,8.126,3.085,6.542,3.085c-1.584,0-2.295,0.752-2.614,1.384C3.574,5.17,3.574,5.956,3.574,6.588
			c0,0.931,0.445,1.994,1.211,2.936c-0.184,0.173-0.938,0.55-1.391,0.777c-0.898,0.45-1.47,0.748-1.811,1.088
			c-0.756,0.756-0.813,2.024-0.816,2.271c-0.004,0.258,0.096,0.506,0.276,0.69c0.181,0.184,0.428,0.288,0.686,0.288h9.627
			c0.258,0,0.504-0.104,0.686-0.288c0.181-0.184,0.281-0.432,0.276-0.69C12.315,13.414,12.258,12.146,11.502,11.389z"/>
	</g>
</g>
</svg>
