<?xml version="1.0" encoding="utf-8"?>
<!-- Generator: Adobe Illustrator 16.0.0, SVG Export Plug-In . SVG Version: 6.00 Build 0)  -->
<!DOCTYPE svg PUBLIC "-//W3C//DTD SVG 1.1//EN" "http://www.w3.org/Graphics/SVG/1.1/DTD/svg11.dtd">
<svg version="1.1" id="图层_1" xmlns="http://www.w3.org/2000/svg" xmlns:xlink="http://www.w3.org/1999/xlink" x="0px" y="0px"
	 width="200px" height="200px" viewBox="0 0 200 200" enable-background="new 0 0 200 200" xml:space="preserve">
<path fill="#FFFFFF" d="M63.759,113.852c11.967-0.512,21.239-10.732,20.75-22.77c-0.576-11.837-10.773-21.148-22.836-20.594
	C49.792,70.975,40.477,81.15,41.014,93.12C41.59,105.117,51.788,114.448,63.759,113.852z M63.98,153.178
	c1.463-0.199,2.974-0.245,4.451-0.11l-2.207-37.646c-1.468,0.223-2.955,0.314-4.46,0.244L63.98,153.178z M157.004,20.717
	c5.54-2.039,8.375-8.178,6.336-13.723c-1.904-5.542-8.115-8.334-13.612-6.363c-5.386,2.084-8.294,8.205-6.403,13.682
	C145.295,19.786,151.459,22.758,157.004,20.717z M20.615,61.264c-1.928-5.564-8.111-8.358-13.612-6.384
	c-5.406,2.106-8.313,8.226-6.428,13.68c1.972,5.497,8.159,8.444,13.704,6.43C19.795,72.951,22.653,66.785,20.615,61.264z
	 M151.992,22.556c-1.506-0.132-2.969-0.597-4.256-1.329l-6.216,20.284c1.468,0.266,2.888,0.71,4.265,1.286L151.992,22.556z
	 M43.36,78.932L22.529,68.159c-0.341,1.463-0.983,2.861-1.89,4.058l20.553,10.617C41.768,81.46,42.497,80.153,43.36,78.932z
	 M189.549,98.353c-2.043-5.542-8.184-8.377-13.709-6.362c-5.535,2.038-8.418,8.094-6.379,13.61
	c1.928,5.566,8.158,8.471,13.655,6.499C188.66,109.992,191.52,103.85,189.549,98.353z M172.962,92.08l-17.646-14.721
	c-0.883,1.197-1.885,2.307-2.993,3.305l17.363,14.457C170.521,93.919,171.633,92.856,172.962,92.08z M83.157,80.995
	c0.729,1.286,1.329,2.66,1.794,4.08l31.749-11.327c-0.643-1.329-1.152-2.727-1.507-4.189L83.157,80.995z M52.938,160.584
	c-8.197,7.514-8.777,20.327-1.329,28.508c7.473,8.156,20.352,8.777,28.487,1.219c8.269-7.49,8.778-20.328,1.285-28.619
	C73.823,153.555,61.141,153.046,52.938,160.584z M157.133,56.7c-4.076-11.063-16.36-16.783-27.402-12.771
	c-10.883,4.055-16.691,16.406-12.787,27.29c3.99,11.018,16.337,16.826,27.35,12.838C155.363,79.976,161.081,67.782,157.133,56.7z"/>
</svg>
