<?xml version="1.0" standalone="no"?><!DOCTYPE svg PUBLIC "-//W3C//DTD SVG 1.1//EN" "http://www.w3.org/Graphics/SVG/1.1/DTD/svg11.dtd"><svg t="1522207606708" class="icon" style="" viewBox="0 0 1024 1024" version="1.1" xmlns="http://www.w3.org/2000/svg" p-id="4838" xmlns:xlink="http://www.w3.org/1999/xlink" width="200" height="200"><defs><style type="text/css"></style></defs><path d="M326.44832 582.91687C387.721223 580.301473 435.192158 527.968494 432.687159 466.338221 429.740569 405.728842 377.530507 358.061011 315.765936 360.897203 254.934624 363.389684 207.242893 415.490487 209.993725 476.774771 212.940315 538.196767 265.151517 585.973857 326.44832 582.91687ZM327.578472 784.270575C335.068432 783.250821 342.804225 783.016366 350.368162 783.704931L339.071196 590.959956C331.556197 592.102627 323.94332 592.569256 316.231427 592.213025L327.578472 784.270575ZM803.860712 106.068984C832.224911 95.632435 846.7382 64.196455 836.301653 35.808357 826.552525 7.430502 794.747795-6.861994 766.60553 3.230844 739.026637 13.900708 724.143459 45.237671 733.81974 73.283196 743.913718 101.304819 775.470339 116.519192 803.860712 106.068984ZM105.548562 313.672101C95.675382 285.184987 64.019744 270.879971 35.852442 280.985329 8.175669 291.766729-6.707511 323.102553 2.943736 351.02516 13.037712 379.169701 44.717249 394.260019 73.106485 383.945247 101.348904 373.508698 115.985112 341.93842 105.548562 313.672101ZM778.198412 115.486918C770.487658 114.812013 762.996559 112.428792 756.413679 108.684382L724.586182 212.541139C732.101181 213.903468 739.370346 216.175153 746.418715 219.122881L778.198412 115.486918ZM222.003156 404.133199 115.346627 348.975408C113.603029 356.466506 110.311589 363.625273 105.670341 369.751767L210.901945 424.111737C213.849673 417.074748 217.582702 410.382609 222.003156 404.133199ZM970.488136 503.568364C960.027689 475.191648 928.591708 460.677218 900.301489 470.991989 871.96119 481.428539 857.202067 512.43431 867.638613 540.675591 877.511796 569.175225 909.412127 584.045885 937.555531 573.951909 965.943631 563.160266 980.580973 531.712905 970.488136 503.568364ZM885.565126 471.447237 795.215565 396.077594C790.696093 402.205226 785.564317 407.89013 779.89079 412.998006L868.790388 487.016702C873.066305 480.864032 878.762585 475.424961 885.565126 471.447237ZM425.762845 414.692665C429.495874 421.274407 432.565381 428.310258 434.947464 435.579421L597.497008 377.585439C594.206706 370.781765 591.60269 363.624135 589.786253 356.134175L425.762845 414.692665ZM271.045834 822.187001C229.076565 860.657698 226.104936 926.264559 264.243298 968.149606 302.505714 1009.90946 368.443767 1013.090502 410.094363 974.386497 452.433522 936.038721 455.0364 870.308946 416.676105 827.860528 377.972097 786.197408 313.040142 783.59453 271.045834 822.187001ZM804.523097 290.305383C783.648857 233.66121 720.754135 204.376274 664.222638 224.919319 608.499203 245.683159 578.75902 308.920456 598.750076 364.643891 619.182724 421.053611 682.396119 450.793795 738.780802 430.373667 795.462533 409.474391 824.734952 347.046296 804.523097 290.305383Z" p-id="4839"></path></svg>