<?xml version="1.0" encoding="utf-8"?>
<!-- Generator: Adobe Illustrator 16.0.0, SVG Export Plug-In . SVG Version: 6.00 Build 0)  -->
<!DOCTYPE svg PUBLIC "-//W3C//DTD SVG 1.1//EN" "http://www.w3.org/Graphics/SVG/1.1/DTD/svg11.dtd">
<svg version="1.1" id="图层_1" xmlns="http://www.w3.org/2000/svg" xmlns:xlink="http://www.w3.org/1999/xlink" x="0px" y="0px"
	 width="16px" height="16px" viewBox="16 16 16 16" enable-background="new 16 16 16 16" xml:space="preserve">
<path fill="#03A9F4" d="M32,29c0,1.656-1.344,3-3,3H19c-1.657,0-3-1.344-3-3V19c0-1.657,1.343-3,3-3h10c1.656,0,3,1.343,3,3V29z"/>
<rect x="19.878" y="20.533" fill="#E1F5FE" width="1.981" height="1.981"/>
<rect x="19.878" y="25.485" fill="#E1F5FE" width="1.981" height="1.982"/>
<rect x="24.088" y="23.01" fill="#E1F5FE" width="3.962" height="1.981"/>
<rect x="19.63" y="23.01" fill="#B3E5FC" width="3.962" height="1.981"/>
<rect x="23.592" y="18.057" fill="#E1F5FE" width="3.467" height="1.981"/>
<rect x="24.902" y="20.533" fill="#B3E5FC" width="3.963" height="1.981"/>
<rect x="19.135" y="18.057" fill="#B3E5FC" width="3.962" height="1.981"/>
<rect x="19.135" y="27.962" fill="#B3E5FC" width="3.962" height="1.981"/>
</svg>
