<?xml version="1.0" encoding="utf-8"?>
<!-- Generator: Adobe Illustrator 16.0.0, SVG Export Plug-In . SVG Version: 6.00 Build 0)  -->
<!DOCTYPE svg PUBLIC "-//W3C//DTD SVG 1.1//EN" "http://www.w3.org/Graphics/SVG/1.1/DTD/svg11.dtd">
<svg version="1.1" id="图层_1" xmlns="http://www.w3.org/2000/svg" xmlns:xlink="http://www.w3.org/1999/xlink" x="0px" y="0px"
	 width="124.667px" height="32px" viewBox="0 0 124.667 32" enable-background="new 0 0 124.667 32" xml:space="preserve">
<path fill="#FFFFFF" d="M26.173,4.528c0-1.158,0.827-1.852,1.952-1.852c1.059,0,1.953,0.694,1.953,1.852
	c0,1.059-0.895,1.82-1.953,1.82C27,6.348,26.173,5.587,26.173,4.528z M26.769,10.186h2.681v17.866h-2.681V10.186z"/>
<path fill="#FFFFFF" d="M30.896,26.596l9.66-14.193h-8.602v-2.217h12.043v1.422l-9.694,14.226h9.992v2.218H30.896V26.596z"/>
<path fill="#FFFFFF" d="M45.561,10.186h2.813l3.54,10.389c0.53,1.754,1.125,3.573,1.688,5.26h0.133
	c0.529-1.687,1.158-3.506,1.688-5.26l3.54-10.389h2.646l-6.385,17.866h-3.144L45.561,10.186z"/>
<path fill="#FFFFFF" d="M61.835,4.528c0-1.158,0.827-1.852,1.952-1.852c1.059,0,1.952,0.694,1.952,1.852
	c0,1.059-0.894,1.82-1.952,1.82C62.662,6.348,61.835,5.587,61.835,4.528z"/>
<path fill="#F7931E" d="M95.541,21.338c0-1.158,0.827-1.852,1.951-1.852c1.059,0,1.953,0.693,1.953,1.852
	c0,1.059-0.895,1.82-1.953,1.82C96.368,23.158,95.541,22.396,95.541,21.338z"/>
<rect x="62.431" y="10.186" fill="#FFFFFF" width="2.68" height="17.866"/>
<path fill="#FFFFFF" d="M66.491,26.033l1.356-1.819c1.556,1.29,3.143,2.149,5.394,2.149c2.48,0,3.705-1.322,3.705-2.977
	c0-1.919-2.151-2.78-4.169-3.507c-2.547-0.927-5.393-2.118-5.393-5.162c0-2.779,2.217-4.996,6.054-4.996
	c2.118,0,4.069,0.895,5.426,1.985l-1.29,1.754c-1.224-0.893-2.514-1.588-4.136-1.588c-2.381,0-3.474,1.257-3.474,2.713
	c0,1.786,1.985,2.481,4.037,3.21c2.613,1.024,5.525,2.05,5.525,5.458c0,2.846-2.251,5.228-6.386,5.228
	C70.594,28.481,68.179,27.422,66.491,26.033z"/>
<path fill="none" stroke="#000000" stroke-linejoin="round" stroke-miterlimit="10" d="M96.057,27.017"/>
<path fill="#FFFFFF" d="M91,28.396c-5,0-9-3.713-9-8.276V9h3v11.12c0,3.043,2,5.518,6,5.518V28.396z"/>
<path fill="#FFFFFF" d="M118,28h-3V15.983c0-3.316-2-4.828-5-4.828V8.397c5,0,8,3.191,8,7.586V28z"/>
<path fill="#FFFFFF" d="M100.222,28.542c-5.323,0-9.655-4.332-9.655-9.655s4.332-9.655,9.655-9.655s9.654,4.332,9.654,9.655
	S105.545,28.542,100.222,28.542z M100.222,11.99c-3.803,0-6.896,3.094-6.896,6.896c0,3.803,3.094,6.896,6.896,6.896
	c3.802,0,6.896-3.094,6.896-6.896C107.118,15.084,104.023,11.99,100.222,11.99z"/>
<path fill="#FFFFFF" d="M14.82,9.232c-2.723,0-3.82,1.145-6.82,2.966V4H5v14.5c0,0.131-0.039,0.255-0.039,0.387S5,19.143,5,19.273
	V20h0.11c0.302,6,4.469,8.813,9.597,8.813c5.323,0,9.712-4.467,9.712-9.79S20.144,9.232,14.82,9.232z M14.707,25.783
	c-3.802,0-6.896-3.094-6.896-6.896c0-3.802,3.094-6.896,6.896-6.896c3.803,0,6.896,3.094,6.896,6.896
	C21.603,22.689,18.509,25.783,14.707,25.783z"/>
</svg>
