<?xml version="1.0" encoding="utf-8"?>
<!-- Generator: Adobe Illustrator 16.0.0, SVG Export Plug-In . SVG Version: 6.00 Build 0)  -->
<!DOCTYPE svg PUBLIC "-//W3C//DTD SVG 1.1//EN" "http://www.w3.org/Graphics/SVG/1.1/DTD/svg11.dtd">
<svg version="1.1" id="图层_1" xmlns="http://www.w3.org/2000/svg" xmlns:xlink="http://www.w3.org/1999/xlink" x="0px" y="0px"
	 width="124.667px" height="32px" viewBox="0 0 124.667 32" enable-background="new 0 0 124.667 32" xml:space="preserve">
<path fill="#FFFFFF" d="M7.265,22.783L3.743,10.551h-1.66v-1.73H7.37v1.73H5.713l2.616,9.042l2.515-9.042H9.198v-1.73h6.35v1.73
	h-1.625l2.524,9.042l2.566-9.042h-1.647v-1.73h5.087v1.73h-1.629l-3.452,12.232h-1.978l-3.111-10.931l-3.09,10.931H7.265z"/>
<path fill="#FFFFFF" d="M24.591,20.965v-6.261H23.1v-1.679h3.379v7.94h1.49v1.679H23.1v-1.679H24.591z M24.322,9.756
	c0-0.305,0.107-0.57,0.323-0.795s0.489-0.339,0.82-0.339c0.311,0,0.58,0.11,0.805,0.329c0.226,0.218,0.338,0.487,0.338,0.805
	s-0.112,0.588-0.338,0.809c-0.225,0.223-0.494,0.333-0.805,0.333c-0.318,0-0.588-0.112-0.81-0.338
	C24.433,10.335,24.322,10.067,24.322,9.756z"/>
<path fill="#FFFFFF" d="M29.211,22.644v-3.299h1.689v0.317c0.06,0.451,0.303,0.822,0.73,1.113c0.427,0.292,0.932,0.438,1.515,0.438
	c0.609,0,1.096-0.106,1.461-0.318c0.364-0.212,0.546-0.507,0.546-0.884c0-0.364-0.151-0.633-0.452-0.806
	c-0.302-0.172-0.899-0.33-1.794-0.476c-1.325-0.224-2.271-0.586-2.837-1.086c-0.566-0.5-0.85-1.148-0.85-1.944
	c0-0.802,0.308-1.473,0.924-2.013c0.616-0.54,1.428-0.811,2.435-0.811c0.908,0,1.689,0.188,2.345,0.562v-0.412h1.679v3.189h-1.679
	v-0.586c-0.51-0.788-1.252-1.182-2.226-1.182c-0.497,0-0.906,0.107-1.227,0.322c-0.322,0.215-0.482,0.502-0.482,0.859
	c0,0.365,0.147,0.614,0.442,0.75c0.294,0.135,0.929,0.28,1.903,0.431c0.934,0.146,1.64,0.315,2.117,0.511
	c0.477,0.196,0.873,0.521,1.188,0.975c0.314,0.453,0.472,0.982,0.472,1.585c0,0.895-0.343,1.605-1.028,2.133
	c-0.686,0.526-1.575,0.79-2.668,0.79c-1.027,0-1.865-0.233-2.514-0.699v0.54H29.211z"/>
<path fill="#FFFFFF" d="M39.844,20.915V10.551h-1.739v-1.73h4.939c1.451,0,2.537,0.103,3.259,0.309
	c0.722,0.205,1.327,0.671,1.813,1.396c0.488,0.726,0.731,1.582,0.731,2.569c0,0.788-0.161,1.495-0.482,2.121
	c-0.322,0.626-0.719,1.088-1.192,1.386c-0.474,0.299-1.007,0.499-1.6,0.602c-0.593,0.103-1.489,0.154-2.688,0.154h-0.954v3.558
	h1.789v1.729h-5.615v-1.729H39.844z M41.931,15.688h1.192c1.358,0,2.299-0.194,2.822-0.581c0.523-0.388,0.785-1.071,0.785-2.052
	c0-0.623-0.139-1.139-0.417-1.55s-0.623-0.673-1.033-0.786c-0.411-0.113-1.097-0.168-2.057-0.168h-1.292V15.688z"/>
<path fill="#FFFFFF" d="M51.48,20.965V10.5h-1.709v-1.68h3.597v12.144h1.471v1.679h-5.068v-1.679H51.48z"/>
<path fill="#FFFFFF" d="M65.849,20.965v1.679h-3.3v-1.173c-0.914,0.888-1.934,1.332-3.06,1.332c-0.874,0-1.635-0.285-2.28-0.854
	c-0.646-0.57-0.969-1.299-0.969-2.187c0-0.895,0.342-1.636,1.029-2.226c0.685-0.59,1.512-0.885,2.479-0.885
	c0.901,0,1.771,0.272,2.612,0.815v-0.954c0-0.49-0.046-0.868-0.139-1.133c-0.093-0.264-0.31-0.503-0.651-0.716
	c-0.341-0.211-0.786-0.318-1.336-0.318c-0.947,0-1.633,0.378-2.057,1.134l-1.809-0.477c0.802-1.497,2.187-2.247,4.153-2.247
	c0.722,0,1.347,0.099,1.874,0.293c0.526,0.196,0.919,0.448,1.178,0.755c0.258,0.308,0.433,0.642,0.521,0.999
	c0.09,0.358,0.134,0.928,0.134,1.709v4.452H65.849z M62.361,19.066c-0.814-0.636-1.64-0.954-2.474-0.954
	c-0.522,0-0.96,0.152-1.312,0.457s-0.526,0.699-0.526,1.183c0,0.451,0.154,0.828,0.461,1.134c0.309,0.305,0.727,0.456,1.257,0.456
	c0.915,0,1.779-0.384,2.594-1.153V19.066z"/>
<path fill="#FFFFFF" d="M70.232,13.024v1.163c1.212-0.875,2.318-1.312,3.318-1.312c0.623,0,1.139,0.148,1.546,0.443
	c0.407,0.294,0.674,0.656,0.799,1.083c0.126,0.428,0.189,1.052,0.189,1.874v4.69h1.62v1.679h-3.508v-6.29
	c0-0.729-0.109-1.205-0.328-1.426c-0.218-0.222-0.486-0.333-0.805-0.333c-0.835,0-1.779,0.408-2.832,1.222v5.148h1.659v1.679h-5.236
	v-1.679h1.688v-6.261h-1.688v-1.679H70.232z"/>
<path fill="#FFFFFF" d="M81.897,13.024v1.163c1.212-0.875,2.318-1.312,3.318-1.312c0.623,0,1.139,0.148,1.546,0.443
	c0.407,0.294,0.674,0.656,0.8,1.083c0.125,0.428,0.188,1.052,0.188,1.874v4.69h1.62v1.679h-3.508v-6.29
	c0-0.729-0.108-1.205-0.328-1.426c-0.218-0.222-0.486-0.333-0.805-0.333c-0.835,0-1.779,0.408-2.832,1.222v5.148h1.659v1.679H78.32
	v-1.679h1.688v-6.261H78.32v-1.679H81.897z"/>
<path fill="#FFFFFF" d="M100.351,18.312h-8.089c0.119,0.888,0.471,1.606,1.054,2.155c0.583,0.551,1.327,0.825,2.236,0.825
	c1.317,0,2.36-0.529,3.129-1.59l1.67,0.735c-0.543,0.842-1.249,1.466-2.117,1.873c-0.868,0.408-1.775,0.611-2.722,0.611
	c-1.471,0-2.729-0.459-3.771-1.376c-1.044-0.918-1.565-2.155-1.565-3.712c0-1.477,0.509-2.693,1.525-3.647
	c1.017-0.954,2.185-1.431,3.503-1.431c1.292,0,2.462,0.466,3.513,1.397C99.766,15.083,100.311,16.469,100.351,18.312z
	 M98.403,16.939c-0.132-0.675-0.483-1.287-1.053-1.833c-0.57-0.547-1.27-0.819-2.098-0.819c-0.755,0-1.4,0.246-1.937,0.74
	c-0.537,0.493-0.864,1.131-0.983,1.912H98.403z"/>
<path fill="#FFFFFF" d="M103.49,20.965v-6.261h-1.938v-1.679H105v2.167c0.212-0.563,0.507-1.03,0.884-1.402
	c0.379-0.37,0.777-0.615,1.198-0.734c0.42-0.119,0.994-0.18,1.725-0.18h0.495v1.908h-0.376c-0.962,0-1.678,0.096-2.152,0.289
	c-0.474,0.192-0.824,0.541-1.054,1.048c-0.228,0.507-0.342,1.416-0.342,2.728v2.117h2.096v1.679h-5.922v-1.679H103.49z"/>
<path fill="#FFFFFF" d="M112.336,18.013h1.789c0.105,0.928,0.409,1.667,0.909,2.217c0.501,0.55,1.161,0.824,1.982,0.824
	c0.828,0,1.494-0.285,1.997-0.854c0.504-0.57,0.756-1.303,0.756-2.196c0-0.947-0.245-1.671-0.734-2.171
	c-0.491-0.5-1.102-0.751-1.829-0.751c-1.094,0-2.018,0.554-2.772,1.66c-0.424-0.418-0.905-0.752-1.44-1.003l0.565-7.115h7.374v3.666
	h-1.71v-1.888h-4.232l-0.309,4.043c0.841-0.681,1.779-1.023,2.813-1.023c1.312,0,2.347,0.438,3.104,1.312
	c0.76,0.874,1.139,1.958,1.139,3.249c0,1.366-0.416,2.483-1.247,3.354c-0.832,0.871-1.996,1.307-3.493,1.307
	c-1.391,0-2.491-0.394-3.299-1.182C112.89,20.673,112.437,19.523,112.336,18.013z"/>
</svg>
