<?xml version="1.0" encoding="utf-8"?>
<!-- Generator: Adobe Illustrator 16.0.0, SVG Export Plug-In . SVG Version: 6.00 Build 0)  -->
<!DOCTYPE svg PUBLIC "-//W3C//DTD SVG 1.1//EN" "http://www.w3.org/Graphics/SVG/1.1/DTD/svg11.dtd">
<svg version="1.1" id="图层_1" xmlns="http://www.w3.org/2000/svg" xmlns:xlink="http://www.w3.org/1999/xlink" x="0px" y="0px"
	 width="124.667px" height="19.25px" viewBox="0 0 124.667 19.25" enable-background="new 0 0 124.667 19.25" xml:space="preserve">
<path fill="#FFFFFF" d="M7.188,16.637L3.666,4.405h-1.66v-1.73h5.287v1.73H5.636l2.616,9.042l2.515-9.042H9.121v-1.73h6.35v1.73
	h-1.625l2.524,9.042l2.566-9.042h-1.647v-1.73h5.087v1.73h-1.629l-3.452,12.232h-1.978L12.206,5.706l-3.09,10.931H7.188z"/>
<path fill="#FFFFFF" d="M24.514,14.818v-6.26h-1.491V6.879h3.379v7.939h1.49v1.68h-4.869v-1.68H24.514z M24.245,3.61
	c0-0.305,0.107-0.57,0.323-0.795s0.489-0.339,0.82-0.339c0.311,0,0.58,0.11,0.805,0.329c0.226,0.218,0.338,0.487,0.338,0.805
	c0,0.318-0.112,0.588-0.338,0.809c-0.225,0.224-0.494,0.334-0.805,0.334c-0.318,0-0.588-0.112-0.81-0.338
	C24.356,4.189,24.245,3.921,24.245,3.61z"/>
<path fill="#FFFFFF" d="M29.134,16.498v-3.299h1.689v0.316c0.06,0.451,0.303,0.822,0.73,1.113c0.427,0.291,0.932,0.438,1.515,0.438
	c0.609,0,1.096-0.105,1.461-0.318c0.364-0.211,0.546-0.506,0.546-0.883c0-0.365-0.151-0.633-0.452-0.807
	c-0.302-0.172-0.899-0.33-1.794-0.477c-1.325-0.225-2.271-0.586-2.837-1.086s-0.85-1.146-0.85-1.943
	c0-0.803,0.308-1.473,0.924-2.014C30.682,7,31.494,6.729,32.501,6.729c0.908,0,1.689,0.188,2.345,0.563V6.879h1.679v3.188h-1.679
	V9.482c-0.51-0.788-1.252-1.183-2.226-1.183c-0.497,0-0.906,0.107-1.227,0.322c-0.322,0.215-0.482,0.502-0.482,0.859
	c0,0.365,0.147,0.614,0.442,0.75c0.294,0.135,0.929,0.281,1.903,0.432c0.934,0.146,1.64,0.314,2.117,0.51
	c0.477,0.197,0.873,0.521,1.188,0.977c0.314,0.453,0.472,0.98,0.472,1.586c0,0.895-0.343,1.604-1.028,2.133
	c-0.686,0.525-1.575,0.789-2.668,0.789c-1.027,0-1.865-0.232-2.514-0.697v0.539H29.134L29.134,16.498z"/>
<path fill="#FFFFFF" d="M39.767,14.77V4.405h-1.739v-1.73h4.939c1.451,0,2.537,0.103,3.259,0.309
	c0.722,0.205,1.327,0.671,1.813,1.396c0.488,0.727,0.731,1.582,0.731,2.569c0,0.788-0.161,1.495-0.482,2.121
	c-0.322,0.626-0.719,1.088-1.192,1.385c-0.474,0.299-1.007,0.5-1.6,0.604c-0.593,0.104-1.489,0.152-2.688,0.152h-0.954v3.561h1.789
	V16.5h-5.615v-1.729L39.767,14.77L39.767,14.77z M41.854,9.542h1.192c1.358,0,2.299-0.193,2.822-0.58
	c0.523-0.389,0.785-1.071,0.785-2.053c0-0.623-0.139-1.139-0.417-1.55s-0.623-0.673-1.033-0.786
	c-0.411-0.113-1.097-0.168-2.057-0.168h-1.292V9.542z"/>
<path fill="#FFFFFF" d="M51.403,14.818V4.354h-1.709v-1.68h3.597v12.145h1.471v1.678h-5.068v-1.678H51.403L51.403,14.818z"/>
<path fill="#FFFFFF" d="M65.772,14.818v1.68h-3.3v-1.174c-0.914,0.889-1.934,1.332-3.06,1.332c-0.874,0-1.635-0.285-2.28-0.854
	c-0.646-0.57-0.969-1.299-0.969-2.188c0-0.895,0.342-1.637,1.029-2.227c0.685-0.592,1.512-0.887,2.479-0.887
	c0.901,0,1.771,0.273,2.612,0.816v-0.955c0-0.49-0.046-0.867-0.139-1.132c-0.093-0.264-0.31-0.503-0.651-0.716
	c-0.341-0.211-0.786-0.318-1.336-0.318c-0.947,0-1.633,0.378-2.057,1.134l-1.809-0.477c0.802-1.497,2.187-2.247,4.153-2.247
	c0.722,0,1.347,0.099,1.874,0.293c0.526,0.196,0.919,0.448,1.179,0.755c0.258,0.309,0.432,0.643,0.521,0.999
	c0.09,0.358,0.134,0.929,0.134,1.709v4.451h1.621L65.772,14.818L65.772,14.818z M62.284,12.92c-0.814-0.637-1.64-0.955-2.474-0.955
	c-0.522,0-0.96,0.152-1.312,0.457c-0.352,0.307-0.526,0.699-0.526,1.184c0,0.451,0.154,0.828,0.461,1.135
	c0.309,0.305,0.727,0.455,1.257,0.455c0.915,0,1.779-0.383,2.594-1.152V12.92z"/>
<path fill="#FFFFFF" d="M70.155,6.877v1.164c1.212-0.875,2.318-1.313,3.318-1.313c0.623,0,1.139,0.148,1.546,0.443
	c0.407,0.293,0.674,0.656,0.799,1.082c0.126,0.429,0.188,1.053,0.188,1.875v4.689h1.621v1.68h-3.51v-6.291
	c0-0.728-0.107-1.205-0.326-1.425c-0.22-0.222-0.486-0.333-0.807-0.333c-0.835,0-1.777,0.408-2.832,1.222v5.148h1.659v1.68h-5.236
	v-1.68h1.688v-6.26h-1.688V6.879L70.155,6.877L70.155,6.877z"/>
<path fill="#FFFFFF" d="M81.82,6.877v1.164c1.212-0.875,2.317-1.313,3.317-1.313c0.623,0,1.14,0.148,1.547,0.443
	c0.406,0.293,0.674,0.656,0.8,1.082c0.125,0.429,0.188,1.053,0.188,1.875v4.689h1.619v1.68h-3.509v-6.291
	c0-0.728-0.106-1.205-0.327-1.425c-0.219-0.222-0.486-0.333-0.806-0.333c-0.835,0-1.778,0.408-2.832,1.222v5.148h1.659v1.68h-5.234
	v-1.68h1.688v-6.26h-1.688V6.879L81.82,6.877L81.82,6.877z"/>
<path fill="#FFFFFF" d="M100.274,12.166h-8.089c0.118,0.889,0.471,1.605,1.054,2.154c0.583,0.551,1.327,0.826,2.236,0.826
	c1.316,0,2.359-0.529,3.129-1.59l1.67,0.734c-0.543,0.842-1.249,1.465-2.117,1.873c-0.867,0.406-1.775,0.609-2.722,0.609
	c-1.472,0-2.729-0.459-3.771-1.375c-1.046-0.918-1.566-2.154-1.566-3.713c0-1.477,0.51-2.693,1.525-3.646
	c1.018-0.955,2.186-1.432,3.504-1.432c1.291,0,2.461,0.466,3.512,1.396C99.689,8.937,100.234,10.322,100.274,12.166z M98.326,10.793
	c-0.132-0.675-0.483-1.289-1.053-1.833c-0.57-0.547-1.271-0.818-2.099-0.818c-0.754,0-1.399,0.246-1.938,0.74
	c-0.537,0.492-0.863,1.131-0.982,1.912H98.326L98.326,10.793z"/>
<path fill="#FFFFFF" d="M103.413,14.818v-6.26h-1.938V6.879h3.447v2.166c0.213-0.563,0.508-1.029,0.885-1.401
	c0.38-0.37,0.777-0.615,1.197-0.733c0.42-0.119,0.994-0.181,1.727-0.181h0.495v1.908h-0.378c-0.961,0-1.678,0.096-2.15,0.289
	c-0.475,0.192-0.822,0.541-1.054,1.048c-0.229,0.507-0.343,1.416-0.343,2.728v2.117h2.097v1.678h-5.922V14.82L103.413,14.818
	L103.413,14.818z"/>
<path fill="#FFFFFF" d="M113.258,11.867h1.789c0.104,0.928,0.41,1.666,0.91,2.217s1.159,0.824,1.98,0.824
	c0.828,0,1.492-0.285,1.997-0.854c0.504-0.57,0.756-1.305,0.756-2.195c0-0.947-0.245-1.672-0.733-2.171
	c-0.49-0.5-1.103-0.751-1.828-0.751c-1.096,0-2.02,0.554-2.772,1.661c-0.425-0.418-0.905-0.752-1.44-1.003l0.565-7.115h7.374v3.666
	h-1.71V4.256h-4.231l-0.31,4.043c0.841-0.68,1.778-1.022,2.813-1.022c1.312,0,2.346,0.438,3.104,1.312
	c0.76,0.875,1.139,1.958,1.139,3.25c0,1.367-0.416,2.482-1.246,3.354c-0.832,0.871-1.996,1.309-3.494,1.309
	c-1.391,0-2.49-0.395-3.299-1.184S113.36,13.377,113.258,11.867z"/>
</svg>
