<?xml version="1.0" encoding="utf-8"?>
<!-- Generator: Adobe Illustrator 16.0.0, SVG Export Plug-In . SVG Version: 6.00 Build 0)  -->
<!DOCTYPE svg PUBLIC "-//W3C//DTD SVG 1.1//EN" "http://www.w3.org/Graphics/SVG/1.1/DTD/svg11.dtd">
<svg version="1.1" id="Capa_1" xmlns="http://www.w3.org/2000/svg" xmlns:xlink="http://www.w3.org/1999/xlink" x="0px" y="0px"
	 width="24px" height="24px" viewBox="-4 -4 24 24" enable-background="new -4 -4 24 24" xml:space="preserve">
<g>
	<path fill="#7383BF" d="M16.236,1.64H6.567L4.652-1.039h-6.991C-2.704-1.039-3-0.742-3-0.376v16.352c0.027,0,0.053,0,0.081,0.005
		L0.912,5.526C0.98,5.264,1.219,5.083,1.489,5.083h15.41V2.301C16.899,1.936,16.602,1.64,16.236,1.64z"/>
</g>
<path fill="#424A60" d="M14.441,16.795H-2.411c-0.386,0-0.669-0.37-0.567-0.745L0.847,5.52c0.07-0.258,0.304-0.437,0.57-0.437H18.27
	c0.387,0,0.568,0.372,0.568,0.745L15.01,16.359C14.94,16.614,14.708,16.795,14.441,16.795z"/>
</svg>
