<?xml version="1.0" encoding="utf-8"?>
<!-- Generator: Adobe Illustrator 16.0.0, SVG Export Plug-In . SVG Version: 6.00 Build 0)  -->
<!DOCTYPE svg PUBLIC "-//W3C//DTD SVG 1.1//EN" "http://www.w3.org/Graphics/SVG/1.1/DTD/svg11.dtd">
<svg version="1.1" id="Capa_1" xmlns="http://www.w3.org/2000/svg" xmlns:xlink="http://www.w3.org/1999/xlink" x="0px" y="0px"
	 width="24px" height="24px" viewBox="-4 -4 24 24" enable-background="new -4 -4 24 24" xml:space="preserve">
<polygon fill="#424A60" points="11.257,-2.34 9.724,-2.34 9.724,-1.192 6.277,-1.192 6.277,-2.34 4.743,-2.34 -1,-2.34 -1,19.106 
	17,19.106 17,-2.34 "/>
<rect x="6.277" y="-3.106" fill="#303644" width="3.446" height="1.914"/>
<polygon fill="#EDEADA" points="12.403,-1.192 12.403,-0.042 3.597,-0.042 3.597,-1.192 0.15,-1.192 0.15,17.957 15.85,17.957 
	15.85,-1.192 "/>
<polygon fill="#7383BF" points="9.724,-2.34 9.724,-1.192 6.277,-1.192 6.277,-2.34 3.597,-2.34 3.597,-0.042 12.403,-0.042 
	12.403,-2.34 "/>
</svg>
