<?xml version="1.0" encoding="utf-8"?>
<!-- Generator: Adobe Illustrator 16.0.0, SVG Export Plug-In . SVG Version: 6.00 Build 0)  -->
<!DOCTYPE svg PUBLIC "-//W3C//DTD SVG 1.1//EN" "http://www.w3.org/Graphics/SVG/1.1/DTD/svg11.dtd">
<svg version="1.1" id="Capa_1" xmlns="http://www.w3.org/2000/svg" xmlns:xlink="http://www.w3.org/1999/xlink" x="0px" y="0px"
	 width="24px" height="24px" viewBox="-4 -4 24 24" enable-background="new -4 -4 24 24" xml:space="preserve">
<polygon fill="#424A60" points="11.257,-2.341 9.724,-2.341 9.724,-1.192 6.277,-1.192 6.277,-2.341 4.743,-2.341 -1,-2.341 
	-1,19.106 17,19.106 17,-2.341 "/>
<rect x="6.277" y="-3.107" fill="#303644" width="3.447" height="1.915"/>
<polygon fill="#EDEADA" points="12.403,-1.192 12.403,-0.043 3.596,-0.043 3.596,-1.192 0.15,-1.192 0.15,17.957 15.851,17.957 
	15.851,-1.192 "/>
<polygon fill="#7383BF" points="9.724,-2.341 9.724,-1.192 6.277,-1.192 6.277,-2.341 3.596,-2.341 3.596,-0.043 12.403,-0.043 
	12.403,-2.341 "/>
<polygon fill="#424A60" points="4.935,4.134 12.293,8.383 4.935,12.63 "/>
</svg>
