<?xml version="1.0" encoding="utf-8"?>
<!-- Generator: Adobe Illustrator 16.0.0, SVG Export Plug-In . SVG Version: 6.00 Build 0)  -->
<!DOCTYPE svg PUBLIC "-//W3C//DTD SVG 1.1//EN" "http://www.w3.org/Graphics/SVG/1.1/DTD/svg11.dtd">
<svg version="1.1" id="Capa_1" xmlns="http://www.w3.org/2000/svg" xmlns:xlink="http://www.w3.org/1999/xlink" x="0px" y="0px"
	 width="24px" height="24px" viewBox="0 0 24 24" enable-background="new 0 0 24 24" xml:space="preserve">
<polygon fill="#424A60" points="15.258,1.659 13.727,1.659 13.727,2.808 10.278,2.808 10.278,1.659 8.744,1.659 3.001,1.659 
	3.001,23.105 21.001,23.105 21.001,1.659 "/>
<rect x="10.278" y="0.893" fill="#303644" width="3.449" height="1.915"/>
<polygon fill="#FFFDE7" points="16.402,2.808 16.402,3.957 7.597,3.957 7.597,2.808 4.151,2.808 4.151,21.958 19.854,21.958 
	19.854,2.808 "/>
<polygon fill="#7383BF" points="13.727,1.659 13.727,2.808 10.278,2.808 10.278,1.659 7.597,1.659 7.597,3.957 16.402,3.957 
	16.402,1.659 "/>
<polygon fill="#424A60" points="8.936,8.134 16.294,12.383 8.936,16.63 "/>
</svg>
