<?xml version="1.0" encoding="utf-8"?>
<!-- Generator: Adobe Illustrator 16.0.0, SVG Export Plug-In . SVG Version: 6.00 Build 0)  -->
<!DOCTYPE svg PUBLIC "-//W3C//DTD SVG 1.1//EN" "http://www.w3.org/Graphics/SVG/1.1/DTD/svg11.dtd">
<svg version="1.1" id="图层_1" xmlns="http://www.w3.org/2000/svg" xmlns:xlink="http://www.w3.org/1999/xlink" x="0px" y="0px"
	 width="131.333px" height="256px" viewBox="0 0 131.333 256" enable-background="new 0 0 131.333 256" xml:space="preserve">
<g>
	<radialGradient id="SVGID_1_" cx="64.4487" cy="152.6914" r="85.804" gradientUnits="userSpaceOnUse">
		<stop  offset="0" style="stop-color:#FFFFFF"/>
		<stop  offset="0.0851" style="stop-color:#FFEDD8"/>
		<stop  offset="0.2082" style="stop-color:#FFD5A7"/>
		<stop  offset="0.3345" style="stop-color:#FFC17D"/>
		<stop  offset="0.462" style="stop-color:#FFB05B"/>
		<stop  offset="0.591" style="stop-color:#FFA340"/>
		<stop  offset="0.7222" style="stop-color:#FF9A2D"/>
		<stop  offset="0.8568" style="stop-color:#FF9522"/>
		<stop  offset="1" style="stop-color:#FF931E"/>
	</radialGradient>
	<path fill="url(#SVGID_1_)" d="M0,228.735l11.316-14.909c11.593,11.869,26.497,22.911,50.51,22.911
		c24.29,0,44.439-19.322,44.439-49.683c0-29.812-17.113-47.75-43.335-47.75c-13.799,0-22.632,4.414-34.225,12.144l-12.42-7.729
		l6.349-93.843h96.602v19.321h-76.73l-5.52,61.275c9.384-5.244,18.769-8.558,31.464-8.558c33.397,0,60.447,19.874,60.447,64.589
		c0,43.887-31.742,69.004-65.14,69.004C32.293,255.507,13.525,242.254,0,228.735z"/>
</g>
<g>
	<path fill="#FFFFFF" d="M19.424,2.747h10.901c8.858,0,14.604,2.954,14.604,11.382c0,8.162-5.746,12.027-14.391,12.027h-6.657
		v15.895h-4.457V2.747z M29.894,22.507c7.195,0,10.631-2.525,10.631-8.378c0-5.905-3.65-7.784-10.847-7.784h-5.798v16.162H29.894z"
		/>
	<path fill="#FFFFFF" d="M53.017,2.747h5.477l7.732,21.478c0.968,2.793,1.879,5.583,2.847,8.376h0.268
		c0.968-2.793,1.825-5.583,2.738-8.376l7.677-21.478h5.479v39.304h-4.135V19.338c0-3.328,0.322-7.947,0.537-11.384h-0.215
		l-3.114,8.915l-7.678,21.154h-3.062l-7.731-21.154l-3.113-8.915h-0.215c0.215,3.437,0.537,8.056,0.537,11.384v22.713h-4.028V2.747z
		"/>
	<path fill="#FFFFFF" d="M93.264,36.896l2.684-3.061c2.847,3.061,6.819,4.994,11.007,4.994c5.371,0,8.645-2.738,8.645-6.766
		c0-4.241-2.952-5.583-6.711-7.249l-5.691-2.523c-3.652-1.557-8-4.241-8-9.987c0-5.959,5.156-10.255,12.133-10.255
		c4.727,0,8.753,1.986,11.439,4.833l-2.364,2.845c-2.416-2.307-5.315-3.758-9.075-3.758c-4.563,0-7.622,2.31-7.622,6.014
		c0,4.028,3.543,5.53,6.549,6.818l5.691,2.417c4.51,1.987,8.161,4.671,8.161,10.524c0,6.175-5.101,11.007-13.207,11.007
		C101.317,42.749,96.646,40.494,93.264,36.896z"/>
</g>
</svg>
