<?xml version="1.0" standalone="no"?><!DOCTYPE svg PUBLIC "-//W3C//DTD SVG 1.1//EN" "http://www.w3.org/Graphics/SVG/1.1/DTD/svg11.dtd"><svg t="1529128379312" class="icon" style="" viewBox="0 0 1024 1024" version="1.1" xmlns="http://www.w3.org/2000/svg" p-id="3048" xmlns:xlink="http://www.w3.org/1999/xlink" width="200" height="200"><defs><style type="text/css"></style></defs><path d="M512 256c-35.312 0-64 28.688-64 64v320c0 35.312 28.688 64 64 64 35.32 0 64-28.688 64-64V320c0-35.312-28.688-64-64-64z m0 512c-35.312 0-64 28.688-64 64s28.688 64 64 64c35.32 0 64-28.688 64-64s-28.688-64-64-64z" fill="#FFA000" p-id="3049"></path><path d="M1010.512 838.752l-384.008-768A127.976 127.976 0 0 0 512 0a127.984 127.984 0 0 0-114.504 70.752l-384.008 768a128.136 128.136 0 0 0 5.624 124.56A128.056 128.056 0 0 0 127.992 1024h768.016a128.064 128.064 0 0 0 108.88-60.688 128.136 128.136 0 0 0 5.624-124.56z m-60.064 90.872a64.384 64.384 0 0 1-54.44 30.376H127.992a64.48 64.48 0 0 1-54.44-30.312 63.648 63.648 0 0 1-2.816-62.312l384.008-768A63.6 63.6 0 0 1 512 64a63.6 63.6 0 0 1 57.256 35.376l384.008 767.936a63.68 63.68 0 0 1-2.816 62.312z" fill="#B0BEC5" p-id="3050"></path></svg>