<?xml version="1.0" encoding="utf-8"?>
<!-- Generator: Adobe Illustrator 16.0.0, SVG Export Plug-In . SVG Version: 6.00 Build 0)  -->
<!DOCTYPE svg PUBLIC "-//W3C//DTD SVG 1.1//EN" "http://www.w3.org/Graphics/SVG/1.1/DTD/svg11.dtd">
<svg version="1.1" id="图层_1" xmlns="http://www.w3.org/2000/svg" xmlns:xlink="http://www.w3.org/1999/xlink" x="0px" y="0px"
	 width="2267.719px" height="1275.59px" viewBox="0 0 2267.719 1275.59" enable-background="new 0 0 2267.719 1275.59"
	 xml:space="preserve">
<rect x="206.007" y="1184.999" fill="#9ABCF7" width="469.145" height="6.414"/>
<rect x="758.934" y="1184.999" fill="#9ABCF7" width="185.381" height="6.414"/>
<rect x="1062.249" y="1184.999" fill="#9ABCF7" width="92.689" height="6.414"/>
<rect x="1728.282" y="1209.051" fill="#9ABCF7" width="240.77" height="6.414"/>
<rect x="1000.885" y="1209.051" fill="#9ABCF7" width="240.772" height="6.414"/>
<rect x="640.492" y="1209.051" fill="#9ABCF7" width="240.77" height="6.414"/>
<rect x="117.455" y="1209.051" fill="#9ABCF7" width="460.578" height="6.414"/>
<rect x="440.582" y="1241.119" fill="#9ABCF7" width="303.536" height="6.412"/>
<rect x="813.57" y="1241.119" fill="#9ABCF7" width="303.535" height="6.412"/>
<rect x="1260.055" y="1184.999" fill="#9ABCF7" width="185.381" height="6.414"/>
<rect x="1563.372" y="1184.999" fill="#9ABCF7" width="92.688" height="6.414"/>
<rect x="1502.006" y="1209.051" fill="#9ABCF7" width="240.771" height="6.414"/>
<rect x="1141.614" y="1209.051" fill="#9ABCF7" width="240.77" height="6.414"/>
<rect x="1314.692" y="1241.119" fill="#9ABCF7" width="303.537" height="6.412"/>
<rect x="1641.34" y="1184.999" fill="#9ABCF7" width="567.51" height="6.414"/>
<rect x="540.93" y="819.727" transform="matrix(-0.9973 0.0739 -0.0739 -0.9973 1165.1985 1945.7075)" fill="#392E70" width="11.368" height="349.353"/>
<polygon fill="#392E70" points="479.817,1167.685 491.164,1168.647 513.29,820.525 501.943,819.561 "/>
<rect x="491.778" y="1064.886" fill="#392E70" width="58.105" height="9.234"/>
<polygon fill="#D0698D" points="541.66,850.772 539.368,819.771 528.032,820.609 530.261,850.772 "/>
<polygon fill="#D0698D" points="511.367,850.772 513.289,820.525 501.944,819.561 499.96,850.772 "/>
<rect x="1249.295" y="819.705" transform="matrix(-0.9973 0.074 -0.074 -0.9973 2580.0645 1893.2249)" fill="#392E70" width="11.369" height="349.354"/>
<polygon fill="#392E70" points="1188.153,1167.685 1199.499,1168.647 1221.624,820.525 1210.278,819.561 "/>
<rect x="1200.114" y="1064.886" fill="#392E70" width="58.107" height="9.234"/>
<polygon fill="#D0698D" points="1249.997,850.772 1247.704,819.771 1236.368,820.609 1238.596,850.772 "/>
<polygon fill="#D0698D" points="1219.702,850.772 1221.625,820.525 1210.278,819.561 1208.293,850.772 "/>
<path fill="#392E70" d="M427.581,805.729c1.331,15.369,14.21,27.435,29.927,27.435h838.252c15.719,0,28.596-12.064,29.928-27.435
	H427.581z"/>
<path fill="#645291" d="M1607.362,674.637c0,11.88-9.631,21.512-21.512,21.512H687.628c-11.879,0-21.512-9.632-21.512-21.512
	V147.603c0-11.881,9.633-21.512,21.512-21.512h898.222c11.881,0,21.512,9.631,21.512,21.512V674.637L1607.362,674.637z"/>
<rect x="687.628" y="151.484" fill="#FFFFFF" width="902.41" height="517.214"/>
<polygon fill="#29ABE2" points="1523.592,640.874 1096.956,640.874 1096.956,297.989 1115.066,297.989 1115.066,624.765 
	1524.592,624.765 "/>
<path fill="#F15A24" d="M899.413,416.975c-55.479,0-100.621-45.139-100.621-100.623c0-55.483,45.142-100.624,100.621-100.624
	c55.491,0,100.631,45.141,100.631,100.624C1000.044,371.836,954.904,416.975,899.413,416.975"/>
<path fill="#29ABE2" d="M893.05,323.082l-1.354-107.06c-51.889,3.954-92.904,47.444-92.904,100.331
	c0,55.484,45.142,100.623,100.621,100.623c55.491,0,100.631-45.139,100.631-100.623c0-14.731-3.182-28.734-8.896-41.355
	L893.05,323.082z"/>
<rect x="765.438" y="459.666" fill="#29ABE2" width="135.142" height="23.303"/>
<rect x="765.438" y="559.424" fill="#29ABE2" width="260.148" height="23.303"/>
<rect x="765.438" y="508.733" fill="#29ABE2" width="260.148" height="23.303"/>
<rect x="765.438" y="613.597" fill="#29ABE2" width="260.148" height="23.304"/>
<path fill="#29ABE2" d="M1217.151,629.495h-8.572V609.06h8.572V629.495z M1217.151,592.713h-8.572v-24.521h8.572V592.713z
	 M1217.151,551.844h-8.572v-24.521h8.572V551.844z M1217.151,510.974h-8.572v-20.435h8.572V510.974z"/>
<path fill="#29ABE2" d="M1341.448,629.495h-8.572V609.06h8.572V629.495z M1341.448,592.713h-8.572v-24.521h8.572V592.713z
	 M1341.448,551.844h-8.572v-24.521h8.572V551.844z M1341.448,510.974h-8.572v-20.435h8.572V510.974z M1341.448,474.192h-8.572
	V449.67h8.572V474.192z"/>
<path fill="#29ABE2" d="M1482.889,617.234h-8.57v-24.521h8.57V617.234z M1482.889,568.191h-8.57v-16.349h8.57V568.191z
	 M1482.889,531.409h-8.57v-28.608h8.57V531.409z M1482.889,494.626h-8.57v-28.609h8.57V494.626z M1482.889,449.67h-8.57v-24.521
	h8.57V449.67z M1482.889,408.801h-8.57v-24.522h8.57V408.801z M1482.889,372.018h-8.57v-24.521h8.57V372.018z"/>
<polygon fill="#F15A24" points="1522.659,314.226 1514.086,314.226 1514.086,281.53 1475.512,281.53 1475.512,277.443 
	1522.659,277.443 "/>
<polygon fill="#F15A24" points="1120.148,597.724 1113.623,592.439 1212.098,481.857 1274.096,512.437 1337.618,439.762 
	1380.504,445.896 1492.34,327.182 1498.708,332.633 1383.79,454.615 1341.114,448.511 1276.274,522.698 1214.208,492.086 "/>
<path fill="#DDAB1D" d="M1254.895,416.933c0,27.562-22.348,49.908-49.912,49.908c-27.563,0-49.906-22.346-49.906-49.908
	c0-27.565,22.346-49.91,49.906-49.91C1232.547,367.023,1254.895,389.368,1254.895,416.933"/>
<path fill="#FFD248" d="M1244.61,416.933c0,21.883-17.742,39.624-39.627,39.624s-39.623-17.74-39.623-39.624
	c0-21.885,17.74-39.625,39.623-39.625C1226.868,377.308,1244.61,395.048,1244.61,416.933"/>
<path fill="#FFFFFF" d="M1200.815,449.001v-7.468c-5.266-0.237-10.373-1.651-13.361-3.379l2.357-9.194
	c3.303,1.807,7.939,3.458,13.047,3.458c4.482,0,7.549-1.73,7.549-4.875c0-2.986-2.518-4.874-8.334-6.838
	c-8.41-2.83-14.146-6.759-14.146-14.384c0-6.918,4.875-12.341,13.281-13.992v-7.465h7.705v6.917
	c5.264,0.236,8.803,1.335,11.395,2.593l-2.273,8.881c-2.049-0.864-5.662-2.671-11.32-2.671c-5.107,0-6.758,2.201-6.758,4.4
	c0,2.597,2.748,4.246,9.43,6.761c9.354,3.302,13.127,7.623,13.127,14.697c0,6.993-4.953,12.97-13.992,14.542v8.017H1200.815
	L1200.815,449.001z"/>
<path fill="#DDAB1D" d="M1388.02,327.63c0,27.563-22.348,49.908-49.91,49.908s-49.908-22.345-49.908-49.908
	c0-27.565,22.346-49.91,49.908-49.91C1365.672,277.721,1388.02,300.065,1388.02,327.63"/>
<path fill="#FFD248" d="M1377.735,327.63c0,21.883-17.74,39.624-39.627,39.624c-21.883,0-39.623-17.741-39.623-39.624
	c0-21.885,17.74-39.625,39.623-39.625C1359.995,288.005,1377.735,305.746,1377.735,327.63"/>
<path fill="#FFFFFF" d="M1333.942,359.699v-7.469c-5.268-0.236-10.373-1.651-13.363-3.378l2.361-9.195
	c3.301,1.808,7.936,3.458,13.045,3.458c4.482,0,7.549-1.73,7.549-4.875c0-2.986-2.518-4.873-8.334-6.837
	c-8.41-2.831-14.148-6.76-14.148-14.384c0-6.918,4.877-12.342,13.283-13.993v-7.464h7.705v6.917
	c5.264,0.235,8.801,1.335,11.395,2.593l-2.275,8.88c-2.047-0.864-5.66-2.671-11.318-2.671c-5.107,0-6.76,2.202-6.76,4.4
	c0,2.597,2.748,4.247,9.432,6.762c9.354,3.301,13.125,7.622,13.125,14.697c0,6.994-4.951,12.97-13.988,14.541v8.018H1333.942
	L1333.942,359.699z"/>
<path fill="#DDAB1D" d="M1547.331,254.671c0,27.562-22.346,49.908-49.91,49.908c-27.561,0-49.906-22.346-49.906-49.908
	c0-27.566,22.346-49.91,49.906-49.91C1524.985,204.761,1547.331,227.105,1547.331,254.671"/>
<path fill="#FFD248" d="M1537.047,254.671c0,21.883-17.74,39.624-39.627,39.624c-21.883,0-39.623-17.741-39.623-39.624
	c0-21.885,17.74-39.626,39.623-39.626C1519.307,215.045,1537.047,232.786,1537.047,254.671"/>
<path fill="#FFFFFF" d="M1493.252,286.739v-7.469c-5.264-0.236-10.373-1.651-13.359-3.378l2.357-9.195
	c3.303,1.808,7.939,3.459,13.047,3.459c4.482,0,7.549-1.731,7.549-4.876c0-2.986-2.518-4.873-8.334-6.837
	c-8.41-2.831-14.146-6.759-14.146-14.384c0-6.918,4.875-12.342,13.281-13.992v-7.465h7.705v6.917
	c5.264,0.235,8.803,1.335,11.395,2.593l-2.275,8.881c-2.047-0.865-5.66-2.672-11.318-2.672c-5.107,0-6.758,2.202-6.758,4.4
	c0,2.597,2.748,4.246,9.43,6.762c9.352,3.301,13.127,7.623,13.127,14.697c0,6.994-4.953,12.97-13.992,14.541v8.018H1493.252z"/>
<rect x="1801.055" y="626.632" fill="#3B3433" width="312.086" height="534.4"/>
<g opacity="0.4">
	<g>
		<g>
			<defs>
				<rect id="SVGID_1_" x="1808.84" y="639.554" width="305.471" height="36.054"/>
			</defs>
			<clipPath id="SVGID_2_">
				<use xlink:href="#SVGID_1_"  overflow="visible"/>
			</clipPath>
			<rect x="1808.844" y="639.553" clip-path="url(#SVGID_2_)" fill="#6D6A5A" width="305.465" height="36.055"/>
		</g>
	</g>
</g>
<g opacity="0.4">
	<g>
		<g>
			<defs>
				<rect id="SVGID_3_" x="1808.84" y="820.674" width="305.471" height="36.053"/>
			</defs>
			<clipPath id="SVGID_4_">
				<use xlink:href="#SVGID_3_"  overflow="visible"/>
			</clipPath>
			<rect x="1808.844" y="820.673" clip-path="url(#SVGID_4_)" fill="#6D6A5A" width="305.465" height="36.053"/>
		</g>
	</g>
</g>
<g opacity="0.4">
	<g>
		<g>
			<defs>
				<rect id="SVGID_5_" x="1808.84" y="1001.793" width="305.471" height="36.053"/>
			</defs>
			<clipPath id="SVGID_6_">
				<use xlink:href="#SVGID_5_"  overflow="visible"/>
			</clipPath>
			<rect x="1808.844" y="1001.793" clip-path="url(#SVGID_6_)" fill="#6D6A5A" width="305.465" height="36.054"/>
		</g>
	</g>
</g>
<rect x="1801.055" y="626.631" fill="#6D6A5A" width="312.086" height="17.893"/>
<rect x="1801.055" y="813.462" fill="#6D6A5A" width="312.086" height="17.893"/>
<rect x="1801.055" y="1000.292" fill="#6D6A5A" width="312.086" height="17.895"/>
<rect x="1801.055" y="1143.137" fill="#6D6A5A" width="312.086" height="17.896"/>
<rect x="1801.055" y="626.632" fill="#6D6A5A" width="15.58" height="534.4"/>
<rect x="1953.204" y="626.632" fill="#6D6A5A" width="15.578" height="534.4"/>
<rect x="2105.352" y="626.632" fill="#6D6A5A" width="15.578" height="534.4"/>
<rect x="1990.731" y="726.224" fill="#FFFFFF" width="21.951" height="87.239"/>
<rect x="1994.286" y="735.257" fill="#6EE0FD" width="14.846" height="15.041"/>
<rect x="1968.782" y="726.224" fill="#6EE0FD" width="21.947" height="87.239"/>
<rect x="1972.334" y="735.257" fill="#FFFFFF" width="14.842" height="15.041"/>
<path fill="#F6921E" d="M1919.612,782.853v-18.884c0-0.496-0.412-0.906-0.91-0.906h-57.016c-0.5,0-0.914,0.41-0.914,0.906v18.884
	c0,0.502,0.414,0.914,0.914,0.914h57.016C1919.2,783.767,1919.612,783.354,1919.612,782.853"/>
<path fill="#FCB813" d="M1906.846,780.922V765.9c0-0.5-0.406-0.911-0.906-0.911h-3.439c-0.498,0-0.908,0.411-0.908,0.911v15.021
	c0,0.503,0.41,0.914,0.908,0.914h3.439C1906.44,781.836,1906.846,781.425,1906.846,780.922"/>
<path fill="#FCB813" d="M1911.915,780.922V765.9c0-0.5-0.414-0.911-0.914-0.911h-1.311c-0.5,0-0.912,0.411-0.912,0.911v15.021
	c0,0.503,0.412,0.914,0.912,0.914H1911C1911.5,781.836,1911.915,781.425,1911.915,780.922"/>
<path fill="#00BDD6" d="M1943.958,812.555v-12.043c0-0.497-0.414-0.911-0.912-0.911h-95.766c-0.504,0-0.918,0.414-0.918,0.911
	v12.043c0,0.5,0.414,0.907,0.918,0.907h95.766C1943.543,813.462,1943.958,813.055,1943.958,812.555"/>
<path fill="#90278E" d="M1874.5,806.533c0,2.092-1.699,3.797-3.801,3.797c-2.094,0-3.793-1.705-3.793-3.797
	c0-2.097,1.699-3.797,3.793-3.797C1872.801,802.736,1874.5,804.437,1874.5,806.533"/>
<path fill="#967348" d="M1943.958,798.687v-5.201c0-0.5-0.41-0.908-0.912-0.908H1833.6c-0.504,0-0.912,0.408-0.912,0.908v5.201
	c0,0.504,0.408,0.914,0.912,0.914h109.445C1943.547,799.601,1943.958,799.189,1943.958,798.687"/>
<path fill="#B99664" d="M1943.045,792.576h-39.939v7.022h39.939c0.502,0,0.912-0.41,0.912-0.914v-5.201
	C1943.958,792.983,1943.547,792.576,1943.045,792.576"/>
<path fill="#357F75" d="M1929.868,786.006v-1.325c0-0.503-0.408-0.914-0.912-0.914h-70.691c-0.5,0-0.908,0.411-0.908,0.914v1.325
	c0,0.5,0.408,0.904,0.908,0.904h70.691C1929.459,786.91,1929.868,786.506,1929.868,786.006"/>
<path fill="#42968C" d="M1888.565,783.767h-30.301c-0.5,0-0.91,0.411-0.91,0.914v1.324c0,0.5,0.41,0.906,0.91,0.906h30.301V783.767z
	"/>
<path fill="#AB5C2E" d="M1929.868,791.662v-3.834c0-0.503-0.408-0.917-0.912-0.917h-70.691c-0.5,0-0.908,0.414-0.908,0.917v3.834
	c0,0.503,0.408,0.914,0.908,0.914h70.691C1929.459,792.576,1929.868,792.165,1929.868,791.662"/>
<path fill="#BF6735" d="M1928.956,786.911h-18.889v5.665h18.889c0.504,0,0.912-0.411,0.912-0.914v-3.834
	C1929.868,787.325,1929.459,786.911,1928.956,786.911"/>
<path fill="#22B573" d="M1950.764,569.31c-0.145-1.177-14.654-117.827-36.035-136.967l1.758-1.96
	c22.104,19.797,36.305,133.769,36.895,138.614L1950.764,569.31z"/>
<path fill="#22B573" d="M1917.209,449.794c10.119,3.975,15.117,15.384,15.117,15.384s-11.422,4.991-21.545,1.027
	c-10.127-3.969-15.1-15.382-15.1-15.382S1907.09,445.829,1917.209,449.794"/>
<path fill="#22B573" d="M1926.477,489.17c10.111,3.952,15.107,15.379,15.107,15.379s-11.414,4.979-21.541,1.024
	c-10.121-3.966-15.117-15.384-15.117-15.384S1916.348,485.192,1926.477,489.17"/>
<path fill="#22B573" d="M1933.43,528.536c10.117,3.965,15.107,15.388,15.107,15.388s-11.422,4.975-21.537,1.013
	c-10.127-3.969-15.125-15.382-15.125-15.382S1923.301,524.562,1933.43,528.536"/>
<path fill="#22B573" d="M1928.903,438.688c-3.82,10.173,1.32,21.52,1.32,21.52s11.346-5.137,15.172-15.314
	c3.84-10.166-1.305-21.521-1.305-21.521S1932.752,428.515,1928.903,438.688"/>
<path fill="#22B573" d="M1905.024,429c4.742,5.198,12.799,5.515,12.799,5.515s0.346-8.029-4.404-13.192
	c-4.746-5.178-12.785-5.526-12.785-5.526S1900.282,423.829,1905.024,429"/>
<path fill="#22B573" d="M1914.465,424.499c-0.813,4.975,2.553,9.654,2.553,9.654s4.688-3.377,5.496-8.336
	c0.816-4.965-2.545-9.653-2.545-9.653S1915.274,419.527,1914.465,424.499"/>
<path fill="#22B573" d="M1946.944,477.435c-7.439,7.925-7.066,20.375-7.066,20.375s12.463-0.391,19.91-8.303
	c7.439-7.916,7.043-20.369,7.043-20.369S1954.391,469.52,1946.944,477.435"/>
<path fill="#22B573" d="M1953.897,509.848c-7.461,7.926-7.08,20.382-7.08,20.382s12.455-0.382,19.902-8.291
	c7.449-7.928,7.08-20.382,7.08-20.382S1961.346,501.938,1953.897,509.848"/>
<path fill="#22B573" d="M1976.491,532.351c-5.396,5.749-5.123,14.786-5.123,14.786s9.033-0.284,14.436-6.022
	c5.404-5.738,5.123-14.796,5.123-14.796S1981.901,526.608,1976.491,532.351"/>
<path fill="#22B573" d="M1964.975,541.629c5.395,5.728,5.113,14.764,5.113,14.764s-9.043-0.276-14.438-6.018
	c-5.412-5.75-5.135-14.779-5.135-14.779S1959.553,535.872,1964.975,541.629"/>
<path fill="#22B573" d="M1971.918,569.754l-2.635-0.051c0.037-1.736,0.914-42.615,5.26-58.491l2.545,0.684
	C1972.823,527.483,1971.926,569.338,1971.918,569.754"/>
<path fill="#FCEE21" d="M1993.481,500.06c0.332-0.985,0.559-2.022,0.559-3.123c0-5.281-4.271-9.546-9.539-9.546
	c-4.789,0-8.709,3.519-9.408,8.105c-1.344-0.719-2.857-1.171-4.486-1.171c-5.275,0-9.561,4.271-9.561,9.553
	c0,4.491,3.096,8.216,7.271,9.252c-0.191,0.743-0.318,1.525-0.318,2.327c0,5.264,4.281,9.549,9.561,9.549
	c4.471,0,8.209-3.1,9.23-7.278c0.746,0.199,1.531,0.33,2.336,0.33c5.289,0,9.561-4.271,9.561-9.541
	C1998.686,504.812,1996.557,501.643,1993.481,500.06 M1980,505.308c0.055,0.024,0.092,0.053,0.135,0.086
	c-0.08,0.269-0.188,0.55-0.252,0.825c-0.02,0-0.047-0.004-0.047-0.004C1979.901,505.914,1979.965,505.621,1980,505.308"/>
<path fill="#22B573" d="M1983.262,505.333c0,1.795-1.449,3.244-3.262,3.244c-1.791,0-3.238-1.449-3.238-3.244
	c0-1.806,1.447-3.273,3.238-3.273C1981.813,502.06,1983.262,503.527,1983.262,505.333"/>
<path fill="#22B573" d="M1977.709,549.875c-6.652,4.234-8.6,13.067-8.6,13.067s8.83,1.937,15.48-2.309
	c6.645-4.24,8.588-13.061,8.588-13.061S1984.356,545.631,1977.709,549.875"/>
<path fill="#22B573" d="M1942.012,566.694c0.088-0.702,8.727-70.104,21.441-81.485l-1.047-1.171
	c-13.146,11.768-21.602,79.577-21.953,82.457L1942.012,566.694z"/>
<path fill="#22B573" d="M1961.979,495.588c-6.021,2.361-8.998,9.146-8.998,9.146s6.799,2.966,12.82,0.616
	c6.018-2.367,8.984-9.158,8.984-9.158S1967.999,493.226,1961.979,495.588"/>
<path fill="#22B573" d="M1956.475,519.004c-6.018,2.354-8.986,9.162-8.986,9.162s6.777,2.958,12.807,0.599
	c6.021-2.356,8.98-9.143,8.98-9.143S1962.495,516.642,1956.475,519.004"/>
<path fill="#22B573" d="M1952.34,542.435c-6.027,2.354-8.998,9.142-8.998,9.142s6.799,2.966,12.816,0.604
	c6.02-2.354,8.979-9.146,8.979-9.146S1958.358,540.068,1952.34,542.435"/>
<path fill="#22B573" d="M1955.028,488.98c2.27,6.042-0.789,12.799-0.789,12.799s-6.75-3.059-9.023-9.106
	c-2.281-6.055,0.758-12.81,0.758-12.81S1952.737,482.933,1955.028,488.98"/>
<path fill="#22B573" d="M1969.229,483.223c-2.832,3.077-7.611,3.277-7.611,3.277s-0.209-4.776,2.617-7.852
	c2.824-3.076,7.604-3.287,7.604-3.287S1972.043,480.143,1969.229,483.223"/>
<path fill="#22B573" d="M1963.61,480.539c0.486,2.96-1.514,5.743-1.514,5.743s-2.797-2.008-3.277-4.96
	c-0.479-2.95,1.512-5.744,1.512-5.744S1963.129,477.58,1963.61,480.539"/>
<path fill="#22B573" d="M1944.301,512.034c4.416,4.709,4.191,12.117,4.191,12.117s-7.416-0.232-11.848-4.94
	c-4.43-4.717-4.193-12.128-4.193-12.128S1939.858,507.318,1944.301,512.034"/>
<path fill="#22B573" d="M1940.155,531.311c4.443,4.707,4.209,12.123,4.209,12.123s-7.422-0.228-11.838-4.936
	c-4.439-4.712-4.221-12.116-4.221-12.116S1935.729,526.609,1940.155,531.311"/>
<path fill="#22B573" d="M1926.704,544.703c3.223,3.424,3.051,8.789,3.051,8.789s-5.365-0.165-8.58-3.577
	c-3.213-3.428-3.049-8.8-3.049-8.8S1923.491,541.291,1926.704,544.703"/>
<path fill="#22B573" d="M1933.565,550.22c-3.215,3.404-3.041,8.785-3.041,8.785s5.367-0.171,8.582-3.59
	c3.213-3.421,3.051-8.789,3.051-8.789S1936.79,546.794,1933.565,550.22"/>
<path fill="#22B573" d="M1929.438,566.941l1.557-0.021c-0.02-1.021-0.541-25.349-3.121-34.791l-1.514,0.403
	C1928.897,541.799,1929.418,566.699,1929.438,566.941"/>
<path fill="#D9E021" d="M1913.506,530.515c0,3.136,2.553,5.686,5.686,5.686c0.479,0,0.947-0.077,1.395-0.188
	c0.605,2.473,2.824,4.319,5.502,4.319c3.133,0,5.676-2.554,5.676-5.681c0-0.483-0.07-0.946-0.188-1.381
	c2.479-0.62,4.326-2.834,4.326-5.514c0-3.131-2.543-5.679-5.684-5.679c-0.969,0-1.875,0.263-2.672,0.697
	c-0.416-2.731-2.754-4.829-5.596-4.829c-3.141,0-5.686,2.544-5.686,5.684c0,0.657,0.139,1.282,0.338,1.855
	C1914.774,526.434,1913.506,528.316,1913.506,530.515 M1924.711,529.144c0,0.015-0.008,0.015-0.016,0.015
	c-0.045-0.169-0.102-0.347-0.154-0.5c0.027-0.018,0.045-0.03,0.088-0.044C1924.641,528.793,1924.676,528.972,1924.711,529.144"/>
<path fill="#22B573" d="M1922.686,528.627c0,1.063,0.867,1.933,1.943,1.933c1.061,0,1.93-0.87,1.93-1.933
	c0-1.073-0.869-1.94-1.93-1.94C1923.553,526.687,1922.686,527.555,1922.686,528.627"/>
<path fill="#22B573" d="M1925.989,555.12c3.957,2.521,5.104,7.777,5.104,7.777s-5.24,1.158-9.195-1.366
	c-3.955-2.527-5.115-7.776-5.115-7.776S1922.024,552.591,1925.989,555.12"/>
<path fill="#22B573" d="M1988.792,566.694c-1.258-4.269,0.857-27.216,5.773-40.525c4.68-15.28,12.141-20.932,16.168-36.238
	c-0.299-0.477-0.625-0.97-0.943-1.48c-4.137,15.279-11.195,20.896-16.059,36.066c-4.986,13.261-7.756,36.072-6.516,41.855
	C1987.739,566.481,1988.266,566.589,1988.792,566.694"/>
<path fill="#22B573" d="M2009.139,502.702c-5.023,2.815-7.621,6.616-7.703,6.717c0.137-0.262,4.381,6.51,10.176,2.693
	c6.01-4.132,10.129-16.348,9.955-15.92C2021.323,496.723,2013.981,500.63,2009.139,502.702"/>
<path fill="#22B573" d="M2002.196,522.141c-4.76-1.42-7.783,1.783-7.818,1.996c0.115-0.27,4.242,6.043,9.719,6.843
	c5.596,0.725,10.086-7.118,9.959-7.104C2013.756,524.227,2006.641,523.867,2002.196,522.141"/>
<path fill="#22B573" d="M1996.547,538.078c-4.787-0.907-7.434,7.05-7.424,7.168c-0.01-0.136,5.578,4.051,10.855,3.747
	c5.148-0.383,8.408-5.231,8.42-5.294C2008.161,544,2001.055,539.113,1996.547,538.078"/>
<path fill="#22B573" d="M2003.59,494.398c2.063,7.888-1.016,13.129-0.949,12.976c0,0.067-4.719-5.612-7.332-12.152
	c-2.482-6.261-1.215-13.568-1.225-13.854C1994.094,481.194,2001.573,486.54,2003.59,494.398"/>
<path fill="#22B573" d="M2016.063,485.928c-2.779,5.156-6.951,6.024-6.934,5.895c0.045,0.059-0.336-6.354,2.119-11.328
	c2.521-4.977,7.385-5.142,7.367-5.132C2018.645,475.456,2018.823,480.996,2016.063,485.928"/>
<path fill="#22B573" d="M2010.758,483.35c0.572,4.314-1.248,8.159-1.221,8.151c0,0.026-2.41-2.495-3.133-6.829
	c-0.75-4.291,0.713-8.939,0.742-8.945C2007.165,475.727,2010.206,479.099,2010.758,483.35"/>
<path fill="#22B573" d="M1993.95,510.745c3.146,5.572,1.639,10.912,1.729,10.895c-0.043-0.113-5.094-3.992-9.639-6.97
	c-4.617-3.101-4.789-9.402-4.637-9.537C1981.721,504.561,1991.135,504.61,1993.95,510.745"/>
<path fill="#22B573" d="M1988.172,524.69c3.105,4.316,2.047,11.661,2.148,11.689c-0.027-0.169-5.566-1.5-10.223-2.227
	c-4.777-0.783-5.203-7.467-5.014-7.772C1975.485,525.478,1985.467,519.331,1988.172,524.69"/>
<path fill="#22B573" d="M1973.483,544.703c3.223,3.424,3.051,8.789,3.051,8.789s-5.377-0.165-8.59-3.577
	c-3.201-3.428-3.039-8.8-3.039-8.8S1970.272,541.291,1973.483,544.703"/>
<path fill="#22B573" d="M1980.344,550.22c-3.221,3.404-3.051,8.785-3.051,8.785s5.379-0.171,8.592-3.59
	c3.213-3.421,3.053-8.789,3.053-8.789S1983.559,546.794,1980.344,550.22"/>
<path fill="#22B573" d="M1976.2,566.941l1.584-0.021c-0.027-1.021-0.551-25.349-3.133-34.791l-1.512,0.403
	C1975.667,541.799,1976.2,566.699,1976.2,566.941"/>
<path fill="#D9E021" d="M1960.288,530.515c0,3.136,2.551,5.686,5.684,5.686c0.471,0,0.947-0.077,1.385-0.188
	c0.615,2.473,2.844,4.319,5.504,4.319c3.131,0,5.676-2.554,5.676-5.681c0-0.483-0.074-0.946-0.182-1.381
	c2.48-0.62,4.318-2.834,4.318-5.514c0-3.131-2.543-5.679-5.676-5.679c-0.979,0-1.875,0.263-2.672,0.697
	c-0.424-2.731-2.752-4.829-5.602-4.829c-3.143,0-5.676,2.544-5.676,5.684c0,0.657,0.135,1.282,0.334,1.855
	C1961.553,526.434,1960.288,528.316,1960.288,530.515 M1971.5,529.144c-0.01,0.015-0.01,0.015-0.035,0.015
	c-0.037-0.169-0.098-0.347-0.145-0.5c0.018-0.018,0.047-0.03,0.082-0.044C1971.42,528.793,1971.448,528.972,1971.5,529.144"/>
<path fill="#22B573" d="M1969.454,528.627c0,1.063,0.869,1.933,1.949,1.933c1.064,0,1.918-0.87,1.918-1.933
	c0-1.073-0.854-1.94-1.918-1.94C1970.323,526.687,1969.454,527.555,1969.454,528.627"/>
<path fill="#22B573" d="M1972.77,555.12c3.945,2.521,5.104,7.777,5.104,7.777s-5.25,1.158-9.213-1.366
	c-3.939-2.527-5.098-7.776-5.098-7.776S1968.805,552.591,1972.77,555.12"/>
<rect x="1925.211" y="562.058" fill="#FF0000" width="63.277" height="64.749"/>
<rect x="1916.383" y="562.058" fill="#C1272D" width="77.992" height="14.717"/>
<rect x="2001.733" y="966.738" fill="#ED5A5A" width="103.01" height="35.315"/>
<rect x="2012.036" y="966.738" fill="#5B2B54" width="2.943" height="35.315"/>
<rect x="2017.92" y="966.738" fill="#5B2B54" width="2.943" height="35.315"/>
<rect x="2087.084" y="966.738" fill="#5B2B54" width="4.414" height="35.315"/>
<rect x="2092.969" y="966.738" fill="#5B2B54" width="5.887" height="35.315"/>
<rect x="2032.635" y="954.965" fill="#62B2AE" width="72.107" height="11.772"/>
<rect x="2035.579" y="960.851" fill="#686868" width="27.961" height="4.414"/>
<rect x="2035.579" y="959.379" fill="#686868" width="13.244" height="1.472"/>
<rect x="1928.155" y="916.704" fill="#EFC748" width="25.018" height="85.351"/>
<rect x="1928.155" y="922.591" fill="#AD8C2D" width="25.018" height="2.943"/>
<rect x="1928.155" y="935.835" fill="#AD8C2D" width="25.018" height="4.414"/>
<rect x="1928.155" y="990.282" fill="#AD8C2D" width="25.018" height="4.415"/>
<path fill="#AD8C2D" d="M1943.592,931.466c0,1.858-1.506,3.368-3.365,3.368c-1.861,0-3.369-1.51-3.369-3.368
	c0-1.865,1.508-3.368,3.369-3.368C1942.086,928.098,1943.592,929.601,1943.592,931.466"/>
<rect x="1905.301" y="939.078" transform="matrix(-0.9606 -0.278 0.278 -0.9606 3479.9678 2432.6624)" fill="#70A69F" width="14.314" height="61.051"/>
<rect x="1913.125" y="940.138" transform="matrix(-0.9606 -0.2779 0.2779 -0.9606 3502.9075 2381.9048)" fill="#3D7067" width="14.318" height="5.055"/>
<rect x="1897.514" y="993.972" transform="matrix(-0.9606 -0.278 0.278 -0.9606 3457.2234 2483.2273)" fill="#3D7067" width="14.314" height="5.052"/>
<rect x="1918.361" y="948.528" transform="matrix(-0.9611 -0.2762 0.2762 -0.9611 3499.1335 2409.1938)" fill="#3D7067" width="1.687" height="19.371"/>
<rect x="1916.345" y="947.648" transform="matrix(-0.9603 -0.2789 0.2789 -0.9603 3492.4285 2403.1748)" fill="#3D7067" width="1.684" height="10.943"/>
<rect x="1857.522" y="891.688" fill="#ED5A5A" width="33.846" height="110.366"/>
<rect x="1857.522" y="897.574" fill="#FCBC86" width="33.846" height="2.941"/>
<rect x="1857.522" y="916.704" fill="#FCBC86" width="33.846" height="2.941"/>
<rect x="1857.522" y="985.868" fill="#FCBC86" width="33.846" height="4.414"/>
<path fill="#FCBC86" d="M1869.235,909.117c0,2.44,1.979,4.426,4.424,4.426s4.426-1.984,4.426-4.426c0-2.443-1.98-4.428-4.426-4.428
	S1869.235,906.674,1869.235,909.117"/>
<rect x="1836.918" y="1121.251" fill="#84BFBE" width="108.896" height="23.545"/>
<rect x="1836.918" y="1106.536" fill="#FFF9C2" width="101.537" height="14.715"/>
<rect x="1836.92" y="1096.233" fill="#9EC45C" width="104.48" height="10.303"/>
<rect x="1934.042" y="1121.251" fill="#458784" width="2.943" height="23.545"/>
<rect x="1928.155" y="1121.251" fill="#458784" width="4.416" height="23.545"/>
<rect x="1847.219" y="1121.251" fill="#458784" width="4.416" height="23.545"/>
<rect x="1842.805" y="1121.251" fill="#458784" width="2.943" height="23.545"/>
<rect x="1926.682" y="1106.536" fill="#8E885E" width="5.889" height="14.715"/>
<rect x="1841.333" y="1106.536" fill="#8E885E" width="8.83" height="14.715"/>
<rect x="1891.366" y="1108.007" fill="#8E885E" width="30.902" height="2.943"/>
<path fill="#D3EDA2" d="M1936.243,1101.362c0,1.454-1.182,2.633-2.639,2.633c-1.453,0-2.635-1.179-2.635-2.633
	c0-1.457,1.182-2.637,2.635-2.637C1935.063,1098.726,1936.243,1099.905,1936.243,1101.362"/>
<path fill="#D3EDA2" d="M1846.897,1101.362c0,1.454-1.182,2.633-2.637,2.633c-1.457,0-2.637-1.179-2.637-2.633
	c0-1.457,1.18-2.637,2.637-2.637C1845.715,1098.726,1846.897,1099.905,1846.897,1101.362"/>
<polygon fill="#F4989F" points="2062.838,1141.718 2068.407,1142.772 2080.635,1067.637 2075.065,1066.581 "/>
<polygon fill="#F26173" points="2073.249,1099.399 2074.305,1099.723 2079.1,1070.258 2078.045,1069.933 "/>
<polygon fill="#F26173" points="2074.12,1083.166 2075.174,1083.49 2077.411,1069.74 2076.354,1069.416 "/>
<rect x="2081.198" y="1035.899" fill="#84BFBE" width="23.545" height="105.953"/>
<rect x="2081.198" y="1044.729" fill="#694A70" width="23.545" height="2.942"/>
<rect x="2081.198" y="1052.087" fill="#694A70" width="23.545" height="5.887"/>
<rect x="2081.198" y="1121.251" fill="#694A70" width="23.545" height="5.887"/>
<rect x="2081.198" y="1128.608" fill="#694A70" width="23.545" height="4.414"/>
<rect x="2092.969" y="1072.688" fill="#694A70" width="1.473" height="29.433"/>
<path fill="#4C353B" d="M1603.11,508.091c-0.035,3.332-2.777,6.012-6.121,5.975c-3.338-0.043-6.012-2.785-5.965-6.121
	c0.029-3.347,2.771-6.02,6.107-5.98C1600.475,502.009,1603.147,504.742,1603.11,508.091"/>
<path fill="#252A38" d="M2134.85,235.934c0,56.851-46.088,102.937-102.938,102.937c-56.848,0-102.938-46.086-102.938-102.937
	c0-56.85,46.09-102.936,102.938-102.936C2088.762,132.998,2134.85,179.084,2134.85,235.934"/>
<path fill="#FFFFFF" d="M2030.807,139.833v15.682c0,1.945,3.018,1.945,3.018,0v-15.682
	C2033.825,137.889,2030.807,137.889,2030.807,139.833"/>
<path fill="#FFFFFF" d="M2030.807,179.239v52.271c0,1.946,3.018,1.946,3.018,0v-52.271
	C2033.825,177.294,2030.807,177.294,2030.807,179.239"/>
<path fill="#FFFFFF" d="M1935.811,237.041h15.68c1.947,0,1.947-3.015,0-3.015h-15.68
	C1933.868,234.026,1933.868,237.041,1935.811,237.041"/>
<path fill="#FFFFFF" d="M2033.016,332.038v-15.682c0-1.945-3.014-1.945-3.014,0v15.682
	C2030.002,333.983,2033.016,333.983,2033.016,332.038"/>
<path fill="#FFFFFF" d="M2128.018,234.83h-15.686c-1.941,0-1.941,3.016,0,3.016h15.686
	C2129.959,237.846,2129.959,234.83,2128.018,234.83"/>
<path fill="#FFFFFF" d="M2084.586,234.83h-52.271c-1.945,0-1.945,3.016,0,3.016h52.271
	C2086.532,237.846,2086.532,234.83,2084.586,234.83"/>
<path fill="#FFFFFF" d="M2038.95,235.934c0,3.888-3.15,7.037-7.037,7.037s-7.035-3.149-7.035-7.037c0-3.887,3.148-7.036,7.035-7.036
	S2038.95,232.047,2038.95,235.934"/>
<path fill="#FF9068" d="M500.946,771.482l24.491-6.875c1.788-0.499,2.829-2.329,2.311-4.066c-0.515-1.737-2.405-2.747-4.19-2.245
	l-24.491,6.872c-1.788,0.503-2.83,2.334-2.313,4.071C497.27,770.976,499.156,771.985,500.946,771.482"/>
<path fill="#FF9068" d="M509.735,777.087l19.665-5.52c1.789-0.502,2.827-2.333,2.313-4.067c-0.517-1.738-2.402-2.747-4.193-2.246
	l-19.666,5.519c-1.787,0.503-2.826,2.336-2.31,4.07C506.06,776.578,507.946,777.59,509.735,777.087"/>
<path fill="#FF9068" d="M506.18,786.146l23.276-6.53c1.788-0.502,2.828-2.333,2.312-4.071c-0.518-1.734-2.404-2.745-4.192-2.243
	l-23.277,6.531c-1.788,0.504-2.829,2.335-2.312,4.072C502.504,785.639,504.391,786.649,506.18,786.146"/>
<path fill="#131333" d="M362.412,937.953l-143.311,13.812l-52.599-259.162l81.08-0.432c35.667-0.124,66.531,24.077,73.911,57.955
	L362.412,937.953z"/>
<path fill="#191846" d="M180.551,939.64l-31.53-226.774c-1.404-10.104,5.965-19.486,16.371-20.851
	c10.406-1.363,20.071,5.787,21.474,15.892l31.53,226.775c1.404,10.104-5.961,19.482-16.367,20.849
	C191.622,956.894,181.957,949.743,180.551,939.64"/>
<rect x="288.53" y="970.706" fill="#191846" width="22.211" height="127.171"/>
<path fill="#0A194D" d="M310.741,978.107v28.736l-22.211-8.342v-19.457C294.088,978.794,304.786,978.357,310.741,978.107"/>
<path fill="#191846" d="M351.095,980.987h-99.243c-5.459,0-9.926-4.336-9.926-9.638c0-5.296,4.467-9.632,9.926-9.632h99.243
	c5.457,0,9.924,4.336,9.924,9.632C361.019,976.651,356.552,980.987,351.095,980.987"/>
<path fill="#131333" d="M399.666,969.426H285.598c-13.649,0-24.813-10.84-24.813-24.088c0-13.249,11.164-24.092,24.813-24.092
	h114.068c13.646,0,24.813,10.843,24.813,24.092C424.479,958.586,413.313,969.426,399.666,969.426"/>
<path fill="#191846" d="M299.43,970.068h-91.243c-13.647,0-24.813-10.839-24.813-24.089s11.166-24.092,24.813-24.092h91.243
	c13.647,0,24.814,10.842,24.814,24.092S313.077,970.068,299.43,970.068"/>
<path fill="#0A194D" d="M393.769,1140.272h-13.896c0-16.113-13.504-29.227-30.102-29.227H248.544
	c-16.599,0-30.107,13.112-30.107,29.227h-13.891c0-23.554,19.738-42.711,43.998-42.711h101.228
	C374.03,1097.562,393.769,1116.72,393.769,1140.272"/>
<rect x="283.279" y="1077.329" fill="#0A194D" width="32.417" height="20.554"/>
<path fill="#0A194D" d="M222.503,1153.315c0,6.187-5.166,11.202-11.539,11.202c-6.375,0-11.541-5.017-11.541-11.202
	c0-6.188,5.166-11.204,11.541-11.204C217.337,1142.111,222.503,1147.127,222.503,1153.315"/>
<path fill="#191846" d="M227.606,1152.327h-31.584v-7.33c0-5.976,4.843-10.818,10.818-10.818h9.948
	c5.975,0,10.818,4.844,10.818,10.818V1152.327L227.606,1152.327z"/>
<path fill="#0A194D" d="M399.013,1153.315c0,6.187-5.166,11.202-11.54,11.202s-11.54-5.017-11.54-11.202
	c0-6.188,5.166-11.204,11.54-11.204S399.013,1147.127,399.013,1153.315"/>
<path fill="#191846" d="M404.116,1152.327H372.53v-7.33c0-5.976,4.843-10.818,10.817-10.818h9.95
	c5.976,0,10.818,4.844,10.818,10.818V1152.327z"/>
<rect x="290.946" y="1101.737" fill="#0A194D" width="18.391" height="40.462"/>
<path fill="#0A194D" d="M312.071,1153.315c0,6.187-5.167,11.202-11.542,11.202c-6.375,0-11.541-5.017-11.541-11.202
	c0-6.188,5.166-11.204,11.541-11.204C306.904,1142.111,312.071,1147.127,312.071,1153.315"/>
<path fill="#191846" d="M317.171,1152.327h-31.583v-7.33c0-5.976,4.843-10.818,10.818-10.818h9.947
	c5.975,0,10.818,4.844,10.818,10.818V1152.327L317.171,1152.327z"/>
<path fill="#072859" d="M343.281,952.344l-0.821-0.319C342.696,952.539,343.281,952.344,343.281,952.344"/>
<path fill="#072859" d="M343.281,952.344l-0.821-0.319C342.696,952.539,343.281,952.344,343.281,952.344"/>
<path fill="#DDDDDD" d="M619.857,801.76H503.396c-7.621,0-12.655-7.689-9.421-14.388l40.619-84.12
	c3.541-7.336,11.131-12.021,19.476-12.021h107.226c5.555,0,9.225,5.606,6.868,10.489L619.857,801.76z"/>
<path fill="#DADAE0" d="M503.825,802.048h-83.043c-3.354,0-6.099-2.663-6.099-5.923c0-3.256,2.744-5.918,6.099-5.918h83.043
	c3.355,0,6.099,2.662,6.099,5.918C509.924,799.385,507.181,802.048,503.825,802.048"/>
<rect x="462.125" y="794.131" fill="#FFFFFF" width="11.859" height="3.454"/>
<rect x="449.967" y="794.131" fill="#FFFFFF" width="8.599" height="3.454"/>
<path fill="#A29FB0" d="M618.107,801.76H501.371c-4.193,0-6.961-4.229-5.187-7.912l43.748-90.596
	c3.539-7.336,11.134-12.021,19.478-12.021h107.222c5.553,0,9.227,5.606,6.866,10.489l-45.292,93.806
	C626.368,799.328,622.432,801.76,618.107,801.76"/>
<path fill="#FFFFFF" d="M592.604,752.953c-2.77,6.285-7.939,10.165-11.556,8.664c-3.612-1.498-4.3-7.812-1.531-14.094
	c2.768-6.285,7.939-10.167,11.553-8.671C594.683,740.354,595.369,746.667,592.604,752.953"/>
<path fill="#FFFFFF" d="M1642.934,260.792c0-2.768,2.242-5.011,5.01-5.011h15.654c2.77,0,5.012,2.243,5.012,5.011v21.917
	c0,2.768-2.242,5.011-5.012,5.011h-15.654c-2.768,0-5.01-2.243-5.01-5.011V260.792z"/>
<path fill="#FFFFFF" d="M1631.233,259.392c0-0.704,0.57-1.273,1.273-1.273h3.98c0.703,0,1.273,0.569,1.273,1.273v5.573
	c0,0.704-0.57,1.275-1.273,1.275h-3.98c-0.703,0-1.273-0.571-1.273-1.275V259.392z"/>
<g opacity="0.68">
	<g>
		<g>
			<defs>
				<rect id="SVGID_7_" x="417.865" y="344.999" width="146.82" height="194.82"/>
			</defs>
			<clipPath id="SVGID_8_">
				<use xlink:href="#SVGID_7_"  overflow="visible"/>
			</clipPath>
			<path clip-path="url(#SVGID_8_)" fill="#FFFFFF" d="M564.686,528.524c0,6.237-5.058,11.294-11.295,11.294H429.159
				c-6.237,0-11.294-5.057-11.294-11.294v-172.23c0-6.238,5.057-11.295,11.294-11.295h124.231c6.237,0,11.295,5.057,11.295,11.295
				V528.524z"/>
		</g>
	</g>
</g>
<rect x="431.98" y="367.585" fill="#759CF2" width="111.527" height="146.821"/>
<path fill="#FFFFFF" d="M530.226,422.288c0,2.145-2.901,3.882-6.483,3.882h-74.561c-3.582,0-6.483-1.737-6.483-3.882
	c0-2.144,2.901-3.881,6.483-3.881h74.561C527.324,418.407,530.226,420.144,530.226,422.288"/>
<path fill="#FFFFFF" d="M501.992,441.347c0,2.145-1.968,3.882-4.394,3.882h-50.508c-2.426,0-4.393-1.737-4.393-3.882
	s1.967-3.882,4.393-3.882h50.508C500.024,437.465,501.992,439.202,501.992,441.347"/>
<path fill="#FFFFFF" d="M531.638,441.347c0,2.145-0.703,3.882-1.567,3.882h-18.039c-0.868,0-1.569-1.737-1.569-3.882
	s0.701-3.882,1.569-3.882h18.039C530.936,437.465,531.638,439.202,531.638,441.347"/>
<path fill="#FFFFFF" d="M528.298,383.631c0,2.144-0.703,3.882-1.567,3.882h-18.04c-0.867,0-1.569-1.738-1.569-3.882
	s0.702-3.882,1.569-3.882h18.04C527.596,379.749,528.298,381.487,528.298,383.631"/>
<path fill="#FFFFFF" d="M501.992,461.111c0,2.145-1.968,3.882-4.394,3.882h-50.508c-2.426,0-4.393-1.737-4.393-3.882
	s1.967-3.882,4.393-3.882h50.508C500.024,457.229,501.992,458.967,501.992,461.111"/>
<path fill="#FFFFFF" d="M531.638,461.111c0,2.145-0.703,3.882-1.567,3.882h-18.039c-0.868,0-1.569-1.737-1.569-3.882
	s0.701-3.882,1.569-3.882h18.039C530.936,457.229,531.638,458.967,531.638,461.111"/>
<path fill="#FFFFFF" d="M501.992,478.052c0,2.146-1.968,3.882-4.394,3.882h-50.508c-2.426,0-4.393-1.736-4.393-3.882
	c0-2.144,1.967-3.883,4.393-3.883h50.508C500.024,474.169,501.992,475.908,501.992,478.052"/>
<path fill="#FFFFFF" d="M531.638,478.052c0,2.146-0.703,3.882-1.567,3.882h-18.039c-0.868,0-1.569-1.736-1.569-3.882
	c0-2.144,0.701-3.883,1.569-3.883h18.039C530.936,474.169,531.638,475.908,531.638,478.052"/>
<path fill="#FFFFFF" d="M501.992,497.816c0,2.144-1.968,3.882-4.394,3.882h-50.508c-2.426,0-4.393-1.738-4.393-3.882
	c0-2.145,1.967-3.883,4.393-3.883h50.508C500.024,493.935,501.992,495.672,501.992,497.816"/>
<path fill="#FFFFFF" d="M531.638,497.816c0,2.144-0.703,3.882-1.567,3.882h-18.039c-0.868,0-1.569-1.738-1.569-3.882
	c0-2.145,0.701-3.883,1.569-3.883h18.039C530.936,493.935,531.638,495.672,531.638,497.816"/>
<path fill="#FFFFFF" d="M477.204,401.808c0,2.15-1.31,3.894-2.922,3.894h-28.134c-1.614,0-2.924-1.744-2.924-3.894v-20.446
	c0-2.152,1.31-3.895,2.924-3.895h28.134c1.612,0,2.922,1.743,2.922,3.895V401.808z"/>
<path fill="#FFFFFF" d="M616.15,466.193c0,3.684-2.988,6.671-6.672,6.671h-20.847c-3.686,0-6.672-2.987-6.672-6.671v-29.187
	c0-3.684,2.986-6.671,6.672-6.671h20.847c3.684,0,6.672,2.987,6.672,6.671V466.193z"/>
<path fill="#FFFFFF" d="M645.78,472.67c0,2.404-1.949,4.354-4.353,4.354h-13.599c-2.405,0-4.354-1.948-4.354-4.354v-19.04
	c0-2.403,1.948-4.352,4.354-4.352h13.599c2.403,0,4.353,1.948,4.353,4.352V472.67z"/>
<path fill="#FFFFFF" d="M655.943,473.887c0,0.611-0.496,1.107-1.107,1.107h-3.457c-0.611,0-1.107-0.496-1.107-1.107v-4.841
	c0-0.611,0.496-1.106,1.107-1.106h3.457c0.611,0,1.107,0.495,1.107,1.106V473.887z"/>
<path fill="#246473" d="M84.39,1209.597c0,0,18.294-34.574,28.03-70.996c9.735-36.424,53.432-53.297,104.233-75.418
	c50.8-22.119,62.887-41.966,68.927-57.291c0,0-1.121,54.158-17.234,79.894c-16.115,25.733-73.628,42.967-73.628,42.967
	l-34.686,12.98l-28.868,14.322l-16.114,24.393L84.39,1209.597z"/>
<path fill="#39B54A" d="M40.164,1446.088c0-4.532-6.126-161.131,38.855-234.311c44.982-73.178,199.847-146.808,206.562-205.887
	c0,0,11.187,102.494-31.331,149.042c-42.52,46.553-70.717,41.629-70.717,41.629l-10.297-42.97l1.343,42.521l-16.113,2.687
	l-4.473-39.838l-6.714,12.98l-0.897,25.958c0,0-49.21-2.341-65.346,20.591c-16.137,22.933-28.677,65.347-34.914,136.515
	c-6.236,71.166-2.462,92.421-2.462,92.421L40.164,1446.088z"/>
<path fill="#1C5661" d="M28.968,1104.136c2.24-7.16,9.399-78.322,1.791-104.284c-7.607-25.961,3.416-57.737,3.416-57.737
	s17.619,11.188,15.382,5.815c-2.237-5.37-10.639-11.188-10.639-11.188s2.135-7.16,16.905-22.827
	c14.77-15.667,12.084-25.961,12.084-25.961l7.113,4.923l-5.321-6.714c0,0,7.162-3.576,9.847-21.928
	c2.605-17.806,30.097-22.978,37.024-33.074c0.211-0.31,0.403-0.624,0.573-0.943c5.788-10.735,7.159,45.652,7.159,45.652
	l-36.699,61.765c0,0-20.14,42.967-20.14,41.624c0-1.344-19.697,88.622-19.697,88.622s-12.087,42.969-8.504,34.465
	C42.844,1093.841,28.968,1104.136,28.968,1104.136"/>
<path fill="#39B54A" d="M42.173,1447.428c0,0-36.926-175.174-18.127-218.167c18.798-42.995,66.688-114.382,67.585-143.922
	l-26.407-26.854l26.407,13.871l15.667-32.672L78.652,1018.2l32.674,19.245v-8.057l-34.465-38.491l42.522,29.541l6.265-19.693
	L93.422,975.68l32.226,12.98l2.686-12.98l-38.046-18.351l43.417,12.534c0,0,8.504-51.027,3.133-89.519
	c-5.371-38.492-18.352-61.765-13.876-76.088c0,0-40.279,106.075-55.497,149.044c-15.219,42.967-46.55,135.615-52.816,172.542
	c-6.265,36.928-1.788,145.233,0,171.646c1.788,26.406,23.721,125.771,12.979,149.938L42.173,1447.428L42.173,1447.428z"/>
<path fill="#246473" d="M2217.483,1174.357c0,0-12.834-24.26-19.664-49.807c-6.828-25.546-37.479-37.384-73.111-52.898
	c-35.635-15.519-44.115-29.437-48.352-40.189c0,0,0.787,37.99,12.09,56.043c11.303,18.052,51.646,30.142,51.646,30.142l24.33,9.104
	l20.252,10.047l11.301,17.11L2217.483,1174.357z"/>
<path fill="#39B54A" d="M2248.502,1340.241c0-3.181,4.301-113.026-27.252-164.354c-31.553-51.334-140.186-102.979-144.893-144.423
	c0,0-7.85,71.897,21.975,104.548c29.828,32.655,49.605,29.197,49.605,29.197l7.223-30.134l-0.941,29.82l11.303,1.888l3.137-27.944
	l4.711,9.104l0.629,18.21c0,0,34.518-1.643,45.838,14.44c11.318,16.087,20.117,45.843,24.486,95.759
	c4.381,49.92,1.73,64.829,1.73,64.829L2248.502,1340.241z"/>
<path fill="#1C5661" d="M2255.862,1103.978c-1.572-5.024-6.592-54.941-1.256-73.15c5.336-18.208-2.396-40.5-2.396-40.5
	s-12.361,7.849-10.791,4.079c1.568-3.767,7.463-7.845,7.463-7.845s-1.498-5.023-11.855-16.015
	c-10.365-10.987-8.48-18.212-8.48-18.212l-4.988,3.455l3.736-4.71c0,0-5.023-2.509-6.91-15.38
	c-1.828-12.493-21.109-16.118-25.971-23.2c-0.148-0.216-0.281-0.438-0.402-0.663c-4.059-7.531-5.021,32.022-5.021,32.022
	l25.744,43.325c0,0,14.127,30.142,14.127,29.197c0-0.94,13.814,62.162,13.814,62.162s8.479,30.143,5.969,24.178
	C2246.129,1096.754,2255.862,1103.978,2255.862,1103.978"/>
<path fill="#39B54A" d="M2246.598,1344.781c0,0,25.902-122.879,12.717-153.036c-13.186-30.153-46.779-80.232-47.406-100.955
	l18.521-18.833l-18.521,9.729l-10.99-22.918l20.094-15.07l-22.918,13.5v-5.651l24.176-27l-29.828,20.724l-4.396-13.817
	l22.607-17.582l-22.607,9.106l-1.883-9.106l26.689-12.87l-30.457,8.791c0,0-5.967-35.794-2.199-62.79
	c3.771-27,12.877-43.324,9.732-53.373c0,0,28.254,74.41,38.932,104.549c10.674,30.137,32.65,95.126,37.047,121.032
	c4.395,25.899,1.256,101.87,0,120.396c-1.254,18.525-16.639,88.224-9.104,105.178h-10.205V1344.781z"/>
</svg>
