<?xml version="1.0" encoding="utf-8"?>
<!-- Generator: Adobe Illustrator 16.0.0, SVG Export Plug-In . SVG Version: 6.00 Build 0)  -->
<!DOCTYPE svg PUBLIC "-//W3C//DTD SVG 1.1//EN" "http://www.w3.org/Graphics/SVG/1.1/DTD/svg11.dtd">
<svg version="1.1" id="图层_1" xmlns="http://www.w3.org/2000/svg" xmlns:xlink="http://www.w3.org/1999/xlink" x="0px" y="0px"
	 width="2267.719px" height="1275.59px" viewBox="0 0 2267.719 1275.59" enable-background="new 0 0 2267.719 1275.59"
	 xml:space="preserve">
<rect fill="none" width="2267.719" height="1275.59"/>
<rect fill="none" width="2267.719" height="1275.59"/>
<rect y="760.281" fill="#FFF0CF" width="2267.719" height="514.598"/>
<rect fill="none" width="2267.719" height="1275.59"/>
<rect fill="none" width="2267.719" height="1275.59"/>
<rect fill="none" width="2267.719" height="1275.59"/>
<path fill="#18424C" d="M1685.319,829H856.681C830.347,829,809,807.652,809,781.318V200.073C809,174.075,830.075,153,856.073,153
	h831.75c24.951,0,45.178,20.227,45.178,45.178v583.141C1733,807.652,1711.653,829,1685.319,829"/>
<rect fill="none" width="2267.719" height="1275.59"/>
<path fill="#354745" d="M1129.105,866.688v41.675c0,83.173,67.426,150.598,150.6,150.598c83.172,0,155.264-84.223,155.264-167.396"
	/>
<rect fill="none" width="2267.719" height="1275.59"/>
<path fill="#E2EDE2" d="M1129.105,866.688L1274.555,936c0,83.172,0,108.828,5.15,122.961c83.172,0,155.264-84.223,155.264-167.396"
	/>
<rect fill="none" width="2267.719" height="1275.59"/>
<path fill="#0E302D" d="M1129.105,866.688L1272.756,936c0,83.172,1.799,108.828,6.949,122.961
	c83.172,0,155.264-84.223,155.264-167.396"/>
<rect fill="none" width="2267.719" height="1275.59"/>
<path fill="#FFFFFF" d="M1679.989,843.07H858.011c-29.276,0-53.011-23.734-53.011-53.013v-91.102h928v91.102
	C1733,819.336,1709.266,843.07,1679.989,843.07"/>
<rect fill="none" width="2267.719" height="1275.59"/>
<polygon fill="#D38B72" points="1518.524,909.876 1491.229,936.173 1529.42,963.669 1536.333,971 1555,957.667 "/>
<rect fill="none" width="2267.719" height="1275.59"/>
<path fill="#0E302D" d="M1430,869.333c0,36.819-67.631,66.667-151.059,66.667s-151.059-29.848-151.059-66.667
	c0-36.818,67.631-66.666,151.059-66.666S1430,832.515,1430,869.333"/>
<rect fill="none" width="2267.719" height="1275.59"/>
<path fill="#BA7D3A" d="M1401.178,889.535c0,25.662-56.689,46.465-126.623,46.465c-69.932,0-126.621-20.803-126.621-46.465
	s56.689-46.465,126.621-46.465C1344.489,843.07,1401.178,863.873,1401.178,889.535"/>
<rect fill="none" width="2267.719" height="1275.59"/>
<ellipse fill="none" stroke="#FCF1E6" stroke-width="3" stroke-miterlimit="10" cx="1275.803" cy="889.535" rx="56.301" ry="20.66"/>
<rect fill="none" width="2267.719" height="1275.59"/>
<ellipse fill="none" stroke="#FCF1E6" stroke-width="3" stroke-miterlimit="10" cx="1275.803" cy="889.535" rx="79.123" ry="29.035"/>
<rect fill="none" width="2267.719" height="1275.59"/>
<ellipse fill="none" stroke="#FCF1E6" stroke-width="3" stroke-miterlimit="10" cx="1275.803" cy="889.535" rx="101.691" ry="37.315"/>
<rect fill="none" width="2267.719" height="1275.59"/>
<path fill="none" stroke="#998368" stroke-width="3" stroke-miterlimit="10" d="M1300.51,899.322
	c-25.514,4.845-47.637,1.182-49.414-8.182"/>
<rect fill="none" width="2267.719" height="1275.59"/>
<polygon fill="#0E302D" points="1505.17,924.884 1418.743,898.64 1429.516,863.224 1531.833,891.5 "/>
<rect fill="none" width="2267.719" height="1275.59"/>
<polygon fill="#29405B" points="1440.514,1275.475 1079,1275.475 1081.667,1118.999 1440.514,1118.999 "/>
<rect fill="none" width="2267.719" height="1275.59"/>
<rect x="1117.092" y="1151.187" fill="#476B7F" width="285.815" height="123.692"/>
<rect fill="none" width="2267.719" height="1275.59"/>
<rect x="1117.092" y="1151.187" fill="none" stroke="#DCDDDD" stroke-linecap="round" stroke-linejoin="round" stroke-miterlimit="10" width="285.815" height="123.692"/>
<rect fill="none" width="2267.719" height="1275.59"/>
<polygon fill="#D35854" points="1019.146,1134.336 1004.63,1247.401 823.666,1224.169 849.162,1112.513 "/>
<rect fill="none" width="2267.719" height="1275.59"/>
<polygon fill="#F96C62" points="1011.936,1133.433 997.42,1246.498 786.451,1219.414 813.768,1107.992 "/>
<rect fill="none" width="2267.719" height="1275.59"/>
<polygon fill="#8AD2FF" points="982.182,1141.769 971.23,1227.072 810.407,1206.425 826.162,1121.738 "/>
<rect fill="none" width="2267.719" height="1275.59"/>
<path fill="#2E4C59" d="M997.591,1172.625c5.178,3.442,6.583,10.433,3.141,15.609c-3.444,5.179-10.434,6.584-15.611,3.141
	s-6.584-10.434-3.14-15.61C985.424,1170.587,992.413,1169.181,997.591,1172.625"/>
<rect fill="none" width="2267.719" height="1275.59"/>
<polygon fill="#F5FFFE" points="1069.039,1080.033 593.768,1008.807 700.333,851.972 1111.943,892.602 "/>
<rect fill="none" width="2267.719" height="1275.59"/>
<polygon fill="#AD9973" points="1075.667,1117 611,1055.161 596.833,1032.625 1063.09,1089.256 "/>
<rect fill="none" width="2267.719" height="1275.59"/>
<path fill="#AD9973" d="M1874.215,949.006h66.666v37.811c0,17.736-14.379,32.116-32.117,32.116h-2.432
	c-17.738,0-32.117-14.38-32.117-32.116V949.006L1874.215,949.006z"/>
<rect fill="none" width="2267.719" height="1275.59"/>
<polygon fill="#1BB5BC" points="1062.48,1101.265 596.834,1032.625 594.436,1009.058 1063.09,1072.667 "/>
<rect fill="none" width="2267.719" height="1275.59"/>
<path fill="#1A353F" d="M1861.215,949.006h66.666v37.811c0,17.736-14.379,32.116-32.117,32.116h-2.432
	c-17.738,0-32.117-14.38-32.117-32.116V949.006L1861.215,949.006z"/>
<rect fill="none" width="2267.719" height="1275.59"/>
<rect x="859" y="199" fill="none" stroke="#2E4C59" stroke-miterlimit="10" width="802" height="476"/>
<rect fill="none" width="2267.719" height="1275.59"/>
<rect x="859" y="199" fill="#D2EFF9" width="33.016" height="488"/>
<rect fill="none" width="2267.719" height="1275.59"/>
<rect x="859" y="199" fill="#FFFFFF" width="826.508" height="494.785"/>
<rect fill="none" width="2267.719" height="1275.59"/>
<rect x="407.747" y="247.76" fill="#FFE2D2" width="372.037" height="42.024"/>
<rect fill="none" width="2267.719" height="1275.59"/>
<rect x="425.667" y="289.784" fill="#FFE2D2" width="33.333" height="61.882"/>
<rect fill="none" width="2267.719" height="1275.59"/>
<rect x="705.666" y="289.784" fill="#FFE2D2" width="28.667" height="61.882"/>
<rect fill="none" width="2267.719" height="1275.59"/>
<rect x="417.126" fill="#AEEEFF" width="49.498" height="247.76"/>
<rect fill="none" width="2267.719" height="1275.59"/>
<rect x="466.624" y="39.621" fill="#FFC688" width="53.997" height="208.14"/>
<rect fill="none" width="2267.719" height="1275.59"/>
<rect x="520.621" y="90.617" fill="#3DC9C5" width="80.996" height="157.143"/>
<rect fill="none" width="2267.719" height="1275.59"/>
<rect x="601.617" y="123.88" fill="#69F2F9" width="49.498" height="123.88"/>
<rect fill="none" width="2267.719" height="1275.59"/>
<rect x="651.781" y="183.666" fill="#FFFFFF" width="112.552" height="64.094"/>
<rect fill="none" width="2267.719" height="1275.59"/>
<rect x="662.334" y="175" fill="#3AB4C1" width="25.333" height="8.667"/>
<rect fill="none" width="2267.719" height="1275.59"/>
<path fill="#69BCC4" d="M734.333,216.667C734.333,229,724.334,239,712,239c-12.335,0-22.334-9.999-22.334-22.333
	s9.999-22.333,22.334-22.333C724.334,194.333,734.333,204.333,734.333,216.667"/>
<rect fill="none" width="2267.719" height="1275.59"/>
<polygon fill="#AA6A30" points="653.481,901.966 485.295,910.445 485.295,708.041 653.481,708.041 "/>
<rect fill="none" width="2267.719" height="1275.59"/>
<polygon fill="#D18C4E" points="391.962,780.446 485.295,910.446 484.409,708.041 389.481,606.132 "/>
<rect fill="none" width="2267.719" height="1275.59"/>
<polygon fill="#BA7574" points="2261.295,1097.404 2155.667,1275.979 1893.5,1119 1893.5,1106.688 1992.749,962.021 
	2261.295,1085.092 "/>
<rect fill="none" width="2267.719" height="1275.59"/>
<path fill="#726152" d="M615.962,760.28c0,24.3-19.699,44-44,44c-24.3,0-44-19.7-44-44c0-24.301,19.7-44,44-44
	C596.263,716.28,615.962,735.979,615.962,760.28"/>
<rect fill="none" width="2267.719" height="1275.59"/>
<path fill="#726152" d="M617.165,854.446c0,24.965-20.238,45.203-45.203,45.203c-24.964,0-45.202-20.238-45.202-45.203
	s20.238-45.202,45.202-45.202C596.927,809.244,617.165,829.481,617.165,854.446"/>
<rect fill="none" width="2267.719" height="1275.59"/>
<path fill="#AD9973" d="M1813.165,1193.372L1813.165,1193.372c-31.35,0-57-25.65-57-57v-80.559c0-31.35,25.65-57,57-57
	c31.352,0,57,25.65,57,57v80.559C1870.165,1167.722,1844.516,1193.372,1813.165,1193.372"/>
<rect fill="none" width="2267.719" height="1275.59"/>
<path fill="#FFFFFF" d="M1801.5,1186.386L1801.5,1186.386c-31.35,0-57-25.649-57-57v-80.559c0-31.35,25.65-57,57-57s57,25.65,57,57
	v80.559C1858.5,1160.735,1832.85,1186.386,1801.5,1186.386"/>
<rect fill="none" width="2267.719" height="1275.59"/>
<path fill="#2E4C59" d="M1793.667,1044.828L1793.667,1044.828c-4.309,0-7.834-3.524-7.834-7.833v-23
	c0-4.311,3.525-7.833,7.834-7.833s7.834,3.522,7.834,7.833v23C1801.5,1041.304,1797.975,1044.828,1793.667,1044.828"/>
<rect fill="none" width="2267.719" height="1275.59"/>
<polygon fill="#FC8077" points="2261.295,1085.093 2155.667,1263.667 1893.5,1106.688 1992.749,949.71 "/>
<rect fill="none" width="2267.719" height="1275.59"/>
<polygon fill="#FBFFEB" points="2222.879,1087.381 2137.713,1226.147 1929.038,1105.481 2011,976.382 "/>
<rect fill="none" width="2267.719" height="1275.59"/>
<path fill="#873533" d="M2205.579,1154.407c5.41,5.475,5.357,14.298-0.117,19.708s-14.297,5.355-19.707-0.117
	c-5.41-5.475-5.357-14.299,0.117-19.708C2191.346,1148.88,2200.17,1148.931,2205.579,1154.407"/>
<rect fill="none" width="2267.719" height="1275.59"/>
<path fill="#AD9973" d="M2157.583,876.389c0,26.822-46.473,48.565-103.801,48.565s-103.801-21.743-103.801-48.565
	c0-26.821,46.473-48.565,103.801-48.565C2111.11,827.822,2157.583,849.566,2157.583,876.389"/>
<rect fill="none" width="2267.719" height="1275.59"/>
<path fill="#AD9973" d="M2098.887,934.914h-90.211c-32.324,0-58.525-26.202-58.525-58.525h207.264
	C2157.415,908.712,2131.211,934.914,2098.887,934.914"/>
<rect fill="none" width="2267.719" height="1275.59"/>
<path fill="#EFA59C" d="M2079.366,920.167h-90.213c-32.322,0-58.525-26.202-58.525-58.525h207.264
	C2137.891,893.965,2111.688,920.167,2079.366,920.167"/>
<rect fill="none" width="2267.719" height="1275.59"/>
<path fill="#FF9C8F" d="M2137.772,857.085c0,26.822-46.475,48.565-103.803,48.565c-57.326,0-103.801-21.743-103.801-48.565
	s46.475-48.566,103.801-48.566C2091.297,808.519,2137.772,830.263,2137.772,857.085"/>
<rect fill="none" width="2267.719" height="1275.59"/>
<polygon fill="#2E4C59" points="2047.792,861.642 2087,861.999 2169.415,702.313 2155.467,694.261 "/>
<rect x="2057.86" y="544.508" transform="matrix(-0.5748 0.8183 -0.8183 -0.5748 3782.2366 -672.7487)" fill="#2E4C59" width="16.104" height="203.634"/>
<rect fill="none" width="2267.719" height="1275.59"/>
<path fill="#FF9C8F" d="M1967.235,621.119l-37.689-21.759l32.553-56.383c6.01-10.407,19.316-13.974,29.725-7.965
	s13.975,19.316,7.965,29.725L1967.235,621.119z"/>
<rect fill="none" width="2267.719" height="1275.59"/>
<polygon fill="#FF9C8F" points="1929.547,599.359 1809.667,675.535 1970.106,758.535 1967.235,621.118 "/>
<rect fill="none" width="2267.719" height="1275.59"/>
<polygon fill="#2E4C59" points="359.079,1231.346 132.852,1160.918 129.27,1144.304 356.903,1212.897 "/>
<rect fill="none" width="2267.719" height="1275.59"/>
<polygon fill="#456F7C" points="535.615,938.308 534.166,962.999 359.079,1231.346 353.321,1218.354 "/>
<rect fill="none" width="2267.719" height="1275.59"/>
<polygon fill="#1D5260" points="353.321,1218.354 125.497,1144.304 347.025,877.506 535.615,938.308 "/>
<rect fill="none" width="2267.719" height="1275.59"/>
<polygon fill="#728C8B" points="210.49,1117.095 339.497,1155.802 456.497,982.802 345.001,938.308 "/>
<rect fill="none" width="2267.719" height="1275.59"/>
<polygon fill="#263E47" points="132.852,1160.918 71.64,812.389 55.141,812.389 120.333,1155.802 "/>
<rect fill="none" width="2267.719" height="1275.59"/>
<polyline fill="#18424C" points="71.64,812.389 289.712,657.898 348.833,884.435 129.27,1144.304 "/>
<rect fill="none" width="2267.719" height="1275.59"/>
<polyline fill="#F5FFFF" points="101,831.374 280,702 324.5,877.506 146.5,1082.487 "/>
<rect fill="none" width="2267.719" height="1275.59"/>
<polygon fill="#286472" points="71.64,812.389 55.141,812.389 283.997,652.802 289.712,657.898 "/>
<rect fill="none" width="2267.719" height="1275.59"/>
<path fill="#30B3C1" d="M2026.545,65.869c0,12.012-9.736,21.749-21.748,21.749s-21.75-9.737-21.75-21.749
	c0-12.012,9.738-21.749,21.75-21.749S2026.545,53.857,2026.545,65.869"/>
<rect fill="none" width="2267.719" height="1275.59"/>
<rect x="1877.262" y="177.212" fill="#30B3C1" width="252.779" height="301.454"/>
<rect fill="none" width="2267.719" height="1275.59"/>
<rect x="1901.598" y="206.238" fill="#FFFEE3" width="204.105" height="243.404"/>
<rect fill="none" width="2267.719" height="1275.59"/>
<line fill="none" stroke="#699096" stroke-miterlimit="10" x1="1991.784" y1="83.297" x2="1948.333" y2="177.213"/>
<rect fill="none" width="2267.719" height="1275.59"/>
<line fill="none" stroke="#699096" stroke-miterlimit="10" x1="2017.811" y1="83.297" x2="2065" y2="177.213"/>
<rect fill="none" width="2267.719" height="1275.59"/>
<path fill="#2E4C59" d="M2183.254,709.706c0,17.835-14.459,32.294-32.293,32.294c-17.836,0-32.295-14.459-32.295-32.294
	c0-17.836,14.459-32.294,32.295-32.294C2168.795,677.412,2183.254,691.87,2183.254,709.706"/>
<rect fill="none" width="2267.719" height="1275.59"/>
<path fill="#91CDE2" d="M2166.881,709.706c0,8.793-7.127,15.921-15.92,15.921s-15.922-7.128-15.922-15.921
	s7.129-15.921,15.922-15.921S2166.881,700.913,2166.881,709.706"/>
<rect fill="none" width="2267.719" height="1275.59"/>
<rect fill="none" width="2267.719" height="1275.59"/>
<rect fill="none" width="2267.719" height="1275.59"/>
<rect fill="none" width="2267.719" height="1275.59"/>
<rect fill="none" width="2267.719" height="1275.59"/>
<rect fill="none" width="2267.719" height="1275.59"/>
<rect fill="none" width="2267.719" height="1275.59"/>
<path fill="#FCB7A9" d="M1488.5,1025.833l-40.729-35.36c0,0-107.898,75.72-14.002,64.79c0,0,33.172-29.673,52.338-31.506
	c0,0-91.107,16.576-76.441,69.91c0,0,25.303,9.666,81.563-16.167"/>
<rect fill="none" width="2267.719" height="1275.59"/>
<path fill="#2C5F6D" d="M1927.881,949.006c0,7.548-14.924,13.666-33.332,13.666c-18.41,0-33.334-6.118-33.334-13.666
	s14.924-13.667,33.334-13.667C1912.958,935.339,1927.881,941.458,1927.881,949.006"/>
<rect fill="none" width="2267.719" height="1275.59"/>
<path fill="#2E4C59" d="M1892.239,956.208L1892.239,956.208c3.557,0.889,7.193-1.296,8.082-4.854l36.561-146.448
	c0.889-3.559-1.295-7.195-4.854-8.083c-3.559-0.889-7.195,1.296-8.082,4.854l-36.563,146.449
	C1886.497,951.683,1888.68,955.32,1892.239,956.208"/>
<rect fill="none" width="2267.719" height="1275.59"/>
<polygon fill="#E89D54" points="631.962,708.041 484.409,708.041 389.481,606.132 526.759,606.132 653.481,708.041 "/>
<rect fill="none" width="2267.719" height="1275.59"/>
<rect x="2151.309" y="303" fill="#FFE2D2" width="116.412" height="36"/>
<rect fill="none" width="2267.719" height="1275.59"/>
<rect x="2233.981" y="130.628" fill="#DDF2EE" width="33.738" height="172.745"/>
<rect fill="none" width="2267.719" height="1275.59"/>
<rect x="2180.907" y="167.92" fill="#AEEEFF" width="57.215" height="134.16"/>
<rect fill="none" width="2267.719" height="1275.59"/>
<path fill="#FCB7A9" d="M1441.833,904.5c0,0,86.668,52,94.668,66l18.666-13.333l-36.643-47.291c0,0,8.977-10.626,1.977-16.709
	c-8.658-7.524-78.668-26.667-78.668-26.667l67.496-16.539c20.686-5.068,42.531,0.683,58.041,15.279l20.463,19.26l82,30.667
	L1710.5,970.5l-19.334,151.333L1737,1276.362l-182-1.272l-38.5-149.257c0,0-19.334-24-31.334-51.333c0,0,6.098-36.614-1.902-45.947
	s-80.098-72.72-80.764-88.053C1401.833,925.167,1410.5,891.833,1441.833,904.5"/>
<rect fill="none" width="2267.719" height="1275.59"/>
<rect x="809" y="680.135" fill="#1D5260" width="924" height="43.73"/>
<rect fill="none" width="2267.719" height="1275.59"/>
<g opacity="0.34">
	<g>
		<defs>
			<rect id="SVGID_1_" x="927.101" y="637.795" width="674.97" height="42.339"/>
		</defs>
		<clipPath id="SVGID_2_">
			<use xlink:href="#SVGID_1_"  overflow="visible"/>
		</clipPath>
		<path clip-path="url(#SVGID_2_)" fill="#8FE2FF" d="M1602.067,680.135H927.101v-30.321c0-6.638,5.382-12.019,12.019-12.019h650.93
			c6.639,0,12.02,5.381,12.02,12.019v30.321H1602.067z"/>
	</g>
</g>
<rect fill="none" width="2267.719" height="1275.59"/>
<rect x="938.288" y="380.748" fill="#BA7D3A" width="159.317" height="195.68"/>
<rect fill="none" width="2267.719" height="1275.59"/>
<path fill="#24B4E0" d="M1617.124,283.999l-4.107-5.489c-0.938-1.255-2.33-1.981-3.797-1.981h-9.896
	c-2.73,0-4.943,2.465-4.943,5.505v3.946v7.563v18.028c0,3.04,2.213,5.505,4.943,5.505h43.77c2.73,0,4.943-2.465,4.943-5.505v-20.086
	c0-3.041-2.213-5.505-4.943-5.505h-22.17C1619.454,285.979,1618.063,285.253,1617.124,283.999"/>
<rect fill="none" width="2267.719" height="1275.59"/>
<path fill="#24B4E0" d="M1617.124,347.67l-4.107-5.489c-0.938-1.255-2.33-1.981-3.797-1.981h-9.896c-2.73,0-4.943,2.465-4.943,5.505
	v3.946v7.563v18.028c0,3.04,2.213,5.505,4.943,5.505h43.77c2.73,0,4.943-2.465,4.943-5.505v-20.086c0-3.041-2.213-5.505-4.943-5.505
	h-22.17C1619.454,349.651,1618.063,348.925,1617.124,347.67"/>
<rect fill="none" width="2267.719" height="1275.59"/>
<path fill="#24B4E0" d="M1617.124,411.039l-4.107-5.489c-0.938-1.256-2.33-1.981-3.797-1.981h-9.896
	c-2.73,0-4.943,2.465-4.943,5.505v3.945v7.564v18.028c0,3.04,2.213,5.505,4.943,5.505h43.77c2.73,0,4.943-2.465,4.943-5.505v-20.087
	c0-3.04-2.213-5.505-4.943-5.505h-22.17C1619.454,413.019,1618.063,412.294,1617.124,411.039"/>
<rect fill="none" width="2267.719" height="1275.59"/>
<path fill="#24B4E0" d="M1621.594,477.761l-4.105-5.488c-0.939-1.256-2.33-1.981-3.797-1.981h-9.898
	c-2.729,0-4.943,2.465-4.943,5.505v3.946v7.563v18.028c0,3.04,2.215,5.505,4.943,5.505h43.771c2.729,0,4.941-2.465,4.941-5.505
	v-20.086c0-3.041-2.213-5.505-4.941-5.505h-22.172C1623.926,479.742,1622.534,479.016,1621.594,477.761"/>
<rect fill="none" width="2267.719" height="1275.59"/>
<path fill="#24B4E0" d="M1622.391,535.49l-4.105-5.489c-0.939-1.255-2.33-1.981-3.797-1.981h-9.898
	c-2.729,0-4.941,2.466-4.941,5.506v3.945v7.563v18.027c0,3.04,2.213,5.506,4.941,5.506h43.771c2.729,0,4.941-2.466,4.941-5.506
	v-20.086c0-3.041-2.213-5.505-4.941-5.505h-22.17C1624.723,537.471,1623.331,536.745,1622.391,535.49"/>
<rect fill="none" width="2267.719" height="1275.59"/>
<path fill="#24B4E0" d="M1531.444,538.333l-4.107-5.489c-0.938-1.256-2.33-1.98-3.797-1.98h-9.898c-2.729,0-4.941,2.465-4.941,5.505
	v3.945v7.563v18.028c0,3.04,2.213,5.505,4.941,5.505h43.771c2.729,0,4.943-2.465,4.943-5.505v-20.087
	c0-3.04-2.215-5.505-4.943-5.505h-22.17C1533.774,540.313,1532.383,539.588,1531.444,538.333"/>
<rect fill="none" width="2267.719" height="1275.59"/>
<path fill="#24B4E0" d="M1524.057,276.061l-4.107-5.49c-0.939-1.255-2.33-1.98-3.797-1.98h-9.896c-2.73,0-4.943,2.464-4.943,5.505
	v3.945v7.564v18.028c0,3.04,2.213,5.505,4.943,5.505h43.77c2.73,0,4.943-2.465,4.943-5.505v-20.087c0-3.04-2.213-5.505-4.943-5.505
	h-22.17C1526.387,278.041,1524.997,277.315,1524.057,276.061"/>
<rect fill="none" width="2267.719" height="1275.59"/>
<path fill="#24B4E0" d="M1524.057,345.697l-4.107-5.489c-0.939-1.255-2.33-1.981-3.797-1.981h-9.896
	c-2.73,0-4.943,2.465-4.943,5.505v3.946v7.563v18.028c0,3.04,2.213,5.505,4.943,5.505h43.77c2.73,0,4.943-2.465,4.943-5.505v-20.086
	c0-3.041-2.213-5.505-4.943-5.505h-22.17C1526.387,347.678,1524.997,346.952,1524.057,345.697"/>
<rect fill="none" width="2267.719" height="1275.59"/>
<path fill="#24B4E0" d="M1531.444,479.142l-4.107-5.488c-0.938-1.255-2.33-1.981-3.797-1.981h-9.898
	c-2.729,0-4.941,2.465-4.941,5.505v3.946v7.563v18.028c0,3.04,2.213,5.505,4.941,5.505h43.771c2.729,0,4.943-2.465,4.943-5.505
	v-20.086c0-3.041-2.215-5.505-4.943-5.505h-22.17C1533.774,481.123,1532.383,480.397,1531.444,479.142"/>
<rect fill="none" width="2267.719" height="1275.59"/>
<path fill="#24B4E0" d="M1527.717,412.42l-4.105-5.489c-0.939-1.256-2.33-1.981-3.797-1.981h-9.898
	c-2.729,0-4.943,2.465-4.943,5.505v3.945v7.564v18.028c0,3.04,2.215,5.505,4.943,5.505h43.771c2.729,0,4.941-2.465,4.941-5.505
	v-20.087c0-3.04-2.213-5.505-4.941-5.505h-22.172C1530.049,414.4,1528.657,413.675,1527.717,412.42"/>
<rect fill="none" width="2267.719" height="1275.59"/>
<rect x="1121.005" y="248.322" fill="#FF9966" width="319.509" height="343.793"/>
<rect fill="none" width="2267.719" height="1275.59"/>
<rect x="938.251" y="268.772" fill="#FF9966" width="159.354" height="82.894"/>
<rect fill="none" width="2267.719" height="1275.59"/>
<polygon fill="#0E302D" points="1472.401,914.916 1505.17,924.884 1492.911,936.539 1467.717,920.167 "/>
<rect fill="none" width="2267.719" height="1275.59"/>
<polygon fill="#0E302D" points="1422.696,966.553 1408.754,979.503 1396.358,997.189 1433.75,978 "/>
<rect fill="none" width="2267.719" height="1275.59"/>
<polygon fill="#476B7F" points="1112.609,892.853 1107.666,938.332 1062.48,1101.265 1063.09,1072.666 "/>
<rect fill="none" width="2267.719" height="1275.59"/>
<polygon fill="#8AD2FF" points="1077.186,928.203 704.398,882.799 714.364,866.631 1085.857,911.877 "/>
<rect fill="none" width="2267.719" height="1275.59"/>
<polygon fill="#8AD2FF" points="1064.765,959.263 692.398,913.909 702.355,897.74 1073.429,942.936 "/>
<rect fill="none" width="2267.719" height="1275.59"/>
<polygon fill="#8AD2FF" points="1053.544,993.603 678.044,947.869 688.067,931.706 1062.264,977.282 "/>
<rect fill="none" width="2267.719" height="1275.59"/>
<polygon fill="#8AD2FF" points="1044.235,1024.28 653.856,976.734 664.191,960.63 1053.215,1008.01 "/>
<rect fill="none" width="2267.719" height="1275.59"/>
<polygon fill="#97D6DD" points="711.383,981.699 729.838,984.943 781.745,878.325 764.622,874.576 "/>
<rect fill="none" width="2267.719" height="1275.59"/>
<polygon fill="#97D6DD" points="773.412,989.879 791.851,993.201 844.237,887.332 827.131,883.514 "/>
<rect fill="none" width="2267.719" height="1275.59"/>
<polygon fill="#97D6DD" points="841.591,995.896 860.131,998.563 908.945,893.448 891.721,890.253 "/>
<rect fill="none" width="2267.719" height="1275.59"/>
<polygon fill="#97D6DD" points="905.594,1005.49 924.031,1008.854 976.555,901.094 959.453,897.224 "/>
<rect fill="none" width="2267.719" height="1275.59"/>
<polygon fill="#8AD2FF" points="976.006,1013.476 994.655,1015.251 1038.233,906.829 1020.873,904.458 "/>
<rect fill="none" width="2267.719" height="1275.59"/>
<polygon fill="#8AD2FF" points="1029.48,1020.674 1058.733,1027.667 1087.987,911.656 1070.555,909.876 "/>
<rect fill="none" width="2267.719" height="1275.59"/>
<polygon fill="#8AD2FF" points="640,978.438 674.088,978.438 728.83,870.04 711.855,865.603 "/>
<rect fill="none" width="2267.719" height="1275.59"/>
<path fill="#FCB7A9" d="M869.333,893.71l52.766-26.756l40.076,13.96c16.385,0,13.957,17.449,13.957,17.449
	c-3.641,8.143-26.093,16.901-26.093,16.901s-10.315-0.617-16.991,0c-6.674,0.617-27.306,28.843-27.306,28.843l27.306-9.684
	c61.896-22.685,52.187,9.684,52.187,9.684c-16.384,38.767-126.823,70.001-126.823,70.001c-22.453,2.908-39.443,33.153-46.118,39.401
	c-6.675,6.247-112.271,222.853-112.271,222.853h-228.15c0,0,188.719-244.224,202.675-262.254
	c13.957-18.03,54.614-74.563,54.614-74.563c35.801-78.055,98.91-86.55,98.91-86.55l33.375,10.76l-33.375,14.251l54.179-20.939
	l26.932,16.438"/>
<rect fill="none" width="2267.719" height="1275.59"/>
<path fill="#D38B72" d="M1433.77,1055.263c0,0,40.246-16.604,51.746-22.437l-6.926-9.069l-71.867,31.506
	C1406.723,1055.263,1418.874,1059.192,1433.77,1055.263"/>
<rect fill="none" width="2267.719" height="1275.59"/>
<path fill="#D38B72" d="M1437.178,1094.396c0,0,38.406-7.53,49.906-13.364l-3.82-10.031l-73.598,22.667
	C1409.667,1093.666,1422.282,1098.325,1437.178,1094.396"/>
<rect fill="none" width="2267.719" height="1275.59"/>
<path fill="#BDE2E5" d="M1143.667,1169.667h26H1143.667z"/>
<rect fill="none" width="2267.719" height="1275.59"/>
<path fill="none" stroke="#DCDDDD" stroke-linecap="round" stroke-linejoin="round" stroke-miterlimit="10" d="M1143.667,1169.667
	h26H1143.667z"/>
<rect fill="none" width="2267.719" height="1275.59"/>
<line fill="none" x1="1143.667" y1="1194.333" x2="1143.667" y2="1169.667"/>
<rect fill="none" width="2267.719" height="1275.59"/>
<line fill="none" stroke="#DCDDDD" stroke-linecap="round" stroke-linejoin="round" stroke-miterlimit="10" x1="1143.667" y1="1194.333" x2="1143.667" y2="1169.667"/>
<rect fill="none" width="2267.719" height="1275.59"/>
<path fill="#BDE2E5" d="M1384.5,1169.667h-26H1384.5z"/>
<rect fill="none" width="2267.719" height="1275.59"/>
<path fill="none" stroke="#DCDDDD" stroke-linecap="round" stroke-linejoin="round" stroke-miterlimit="10" d="M1384.5,1169.667h-26
	H1384.5z"/>
<rect fill="none" width="2267.719" height="1275.59"/>
<line fill="none" x1="1384.5" y1="1194.333" x2="1384.5" y2="1169.667"/>
<rect fill="none" width="2267.719" height="1275.59"/>
<line fill="none" stroke="#DCDDDD" stroke-linecap="round" stroke-linejoin="round" stroke-miterlimit="10" x1="1384.5" y1="1194.333" x2="1384.5" y2="1169.667"/>
<rect fill="none" width="2267.719" height="1275.59"/>
<polygon fill="#F48F87" points="1946.653,609.236 1886.399,715.229 1970.106,758.535 1967.235,621.119 "/>
<rect fill="none" width="2267.719" height="1275.59"/>
<rect x="2140.961" y="890.904" fill="#AD9973" width="126.758" height="18.972"/>
<rect fill="none" width="2267.719" height="1275.59"/>
<rect x="1440.514" y="1119" fill="#AD9973" width="17.389" height="157.362"/>
<rect fill="none" width="2267.719" height="1275.59"/>
<polygon fill="#AD9973" points="1107.667,938.333 1062.479,1101.265 1075.667,1117 1099.125,986.021 "/>
<rect fill="none" width="2267.719" height="1275.59"/>
<polygon fill="#AD9973" points="653.481,901.966 664.67,904.459 700.333,851.973 746.563,856.535 691.951,758.289 653.481,758.289 
	"/>
<rect x="1996.475" y="1022.315" transform="matrix(-0.866 -0.5 0.5 -0.866 3304.7131 2967.7961)" fill="#FFBD7B" width="106.993" height="37.66"/>
<rect x="1963.49" y="1076.118" transform="matrix(-0.866 -0.5 0.5 -0.866 3216.2466 3051.7095)" fill="#FFBD7B" width="106.993" height="37.658"/>
<rect fill="none" width="2267.719" height="1275.59"/>
<polygon fill="#A4D3F7" points="2136.678,1191.467 2070.327,1153.157 2126.428,1061.251 2190,1097.5 "/>
<rect fill="none" width="2267.719" height="1275.59"/>
<polyline fill="#ADE0AD" points="2105.702,449.642 1991.784,317.075 1901.6,449.642 "/>
<rect fill="none" width="2267.719" height="1275.59"/>
<polygon fill="#A5DBA5" points="2011.657,340.201 2030.333,288.864 2105.875,402.875 2105.702,441.333 2105.702,449.642 "/>
<rect fill="none" width="2267.719" height="1275.59"/>
<rect x="459" y="289.784" fill="#9BC4C6" width="247" height="20.436"/>
<rect fill="none" width="2267.719" height="1275.59"/>
<rect fill="none" width="2267.719" height="1275.59"/>
<rect x="2151.309" y="337.726" fill="#9BC4C6" width="116.412" height="10.217"/>
<rect fill="none" width="2267.719" height="1275.59"/>
<rect x="1877.262" y="477.854" fill="#9BC4C6" width="252.779" height="10.217"/>
<rect fill="none" width="2267.719" height="1275.59"/>
<rect x="735.5" y="289.784" fill="#9BC4C6" width="24" height="62.966"/>
<rect fill="none" width="2267.719" height="1275.59"/>
<rect x="454.624" y="289.242" fill="#9BC4C6" width="24" height="62.966"/>
<rect fill="none" width="2267.719" height="1275.59"/>
<rect fill="none" width="2267.719" height="1275.59"/>
<rect fill="none" width="2267.719" height="1275.59"/>
<path fill="#739799" d="M976.132,898.363c0,0-4.054,9.502-26.093,16.901h-16.991c0,0-4.563-1.383-27.307,28.844l33.56-11.87
	c0,0,19.699-12.849,30.032-22.043C979.666,901,976.132,898.363,976.132,898.363"/>
<rect fill="none" width="2267.719" height="1275.59"/>
<path fill="#739799" d="M967.667,962.825c0,0-38.662,33.604-118.164,53.89c0,0-9.344,2.799-26.423,23.376l19.948,2.707
	l94.639-44.233L967.667,962.825z"/>
<rect fill="none" width="2267.719" height="1275.59"/>
<path fill="#FCF8F7" d="M1418.588,942.338c0,0,31.916,34.521,41.012,20.512c0,0,23.859-11.388,7.393-29.487
	c0,0-25.273-25.027-41.004-19.14C1425.989,914.223,1401.563,925.449,1418.588,942.338"/>
<rect fill="none" width="2267.719" height="1275.59"/>
<path fill="#F2EEED" d="M952.245,961.271c0,0,31.763-6.381,26.789-16.76c0,0,1.868-18.123-14.691-14.934
	c0,0-23.796,5.88-25.979,17.246C938.364,946.824,936.198,965.223,952.245,961.271"/>
<rect fill="none" width="2267.719" height="1275.59"/>
<polygon fill="#D38B72" points="904.302,870.631 829.894,904.569 909.561,874.453 "/>
<rect fill="none" width="2267.719" height="1275.59"/>
<polygon fill="#F4C0B0" points="856.214,862.068 783.245,895.352 863.32,864.381 "/>
<rect fill="none" width="2267.719" height="1275.59"/>
<polygon fill="#D38B72" points="1669.833,915.167 1681.686,931.707 1658.61,1024.28 "/>
<rect fill="none" width="2267.719" height="1275.59"/>
<polygon fill="#D38B72" points="1525.577,958.244 1542.803,957.321 1566.784,1020.274 "/>
<rect fill="none" width="2267.719" height="1275.59"/>
<polygon fill="#D38B72" points="1537.471,960.796 1541.042,947.01 1574.393,968.383 "/>
<rect fill="none" width="2267.719" height="1275.59"/>
<polygon fill="#D38B72" points="1530.719,922.409 1516.493,923.052 1527.108,884.888 "/>
<rect fill="none" width="2267.719" height="1275.59"/>
<path fill="#D38B72" d="M1522.252,903.494c0,0,36.762,54.382,34.678,56.549l-45.572-41.46L1522.252,903.494z"/>
<rect fill="none" width="2267.719" height="1275.59"/>
<path fill="#C6DEE0" d="M738.7,1042.354c0-5.373-2.209-9.729-4.936-9.729"/>
<rect fill="none" width="2267.719" height="1275.59"/>
<polygon fill="#AD9973" points="534.167,963 359.08,1231.346 389.481,1253.595 555.229,968.771 "/>
<rect fill="none" width="2267.719" height="1275.59"/>
<polygon fill="#AD9973" points="120.333,1155.802 112.333,1167.667 389.481,1253.595 397.168,1238.853 "/>
<rect fill="none" width="2267.719" height="1275.59"/>
<g>
	<g opacity="0.18">
		<g>
			<defs>
				<rect id="SVGID_3_" x="101" y="702" width="179" height="380.488"/>
			</defs>
			<clipPath id="SVGID_4_">
				<use xlink:href="#SVGID_3_"  overflow="visible"/>
			</clipPath>
			<polygon clip-path="url(#SVGID_4_)" fill="#1D5260" points="280,702 146.5,1082.486 101,831.374 			"/>
		</g>
	</g>
	<g>
		<defs>
			<rect id="SVGID_5_" width="2267.719" height="1275.59"/>
		</defs>
		<defs>
			<rect id="SVGID_6_" width="2267.719" height="1275.59"/>
		</defs>
		<clipPath id="SVGID_7_">
			<use xlink:href="#SVGID_5_"  overflow="visible"/>
		</clipPath>
		<clipPath id="SVGID_8_" clip-path="url(#SVGID_7_)">
			<use xlink:href="#SVGID_6_"  overflow="visible"/>
		</clipPath>
		<polygon clip-path="url(#SVGID_8_)" fill="#AD9973" points="801,1069.965 697,1276.361 743,1276.361 819.079,1075.185 		"/>
		<g clip-path="url(#SVGID_8_)">
			<g opacity="0.07">
				<g>
					<defs>
						<rect id="SVGID_9_" x="859" y="199" width="826.51" height="476"/>
					</defs>
					<clipPath id="SVGID_10_">
						<use xlink:href="#SVGID_9_"  overflow="visible"/>
					</clipPath>
					<polygon clip-path="url(#SVGID_10_)" fill="#BA7D3A" points="859,199 1685.508,675 1685.508,199 					"/>
				</g>
			</g>
		</g>
	</g>
</g>
</svg>
