<?xml version="1.0" encoding="utf-8"?>
<!-- Generator: Adobe Illustrator 16.0.0, SVG Export Plug-In . SVG Version: 6.00 Build 0)  -->
<!DOCTYPE svg PUBLIC "-//W3C//DTD SVG 1.1//EN" "http://www.w3.org/Graphics/SVG/1.1/DTD/svg11.dtd">
<svg version="1.1" id="图层_1" xmlns="http://www.w3.org/2000/svg" xmlns:xlink="http://www.w3.org/1999/xlink" x="0px" y="0px"
	 width="2267.72px" height="1275.59px" viewBox="0 0 2267.72 1275.59" enable-background="new 0 0 2267.72 1275.59"
	 xml:space="preserve">
<rect y="919.224" fill="#FFEBA9" width="2267.72" height="356.366"/>
<path fill="#043955" d="M1710.866,1082.211H556.85V343.075c0-24.301,19.7-44,44-44h1066.016c24.3,0,44,19.699,44,44V1082.211z"/>
<rect x="601.878" y="350.425" fill="#FFFFFF" width="1063.961" height="678.438"/>
<path fill="#043955" d="M1711.57,1119.759H556.145c-38.303,0-76.451-9.181-113.528-27.32c-3.112-1.523-2.528-10.171,0.687-10.171
	h1381.108c3.216,0,3.8,8.647,0.688,10.171C1788.021,1110.578,1749.873,1119.759,1711.57,1119.759"/>
<path fill="#8AD1DB" d="M1831.325,1079.942v4.186c0,5.287-4.284,9.578-9.579,9.578H450.154c-7.601,0-13.763-6.162-13.763-13.764
	c0-7.604,6.165-13.77,13.77-13.77h1367.393C1825.16,1066.173,1831.325,1072.339,1831.325,1079.942"/>
<path fill="#043955" d="M1235.951,1066.17c-1.456,10.789-10.697,19.104-21.885,19.104h-160.412
	c-11.188,0-20.429-8.314-21.885-19.104H1235.951z"/>
<path fill="#8AD1DB" d="M1234.81,1066.17c-3.088,8.468-11.211,14.505-20.743,14.505h-160.413c-9.532,0-17.655-6.037-20.743-14.505
	H1234.81z"/>
<path fill="#379EAF" d="M1007.374,766.477c0,84.36-68.387,152.747-152.748,152.747c-84.36,0-152.748-68.387-152.748-152.747
	c0-84.359,68.388-152.748,152.748-152.748C938.987,613.729,1007.374,682.117,1007.374,766.477"/>
<path fill="#F98A4B" d="M1028.929,744.922l-174.302,21.556l21.554-174.303C960.541,592.174,1028.929,660.563,1028.929,744.922"/>
<path fill="#C7F9F0" d="M850.697,502.582H723.138c-11.741,0-21.26-9.519-21.26-21.26c0-11.741,9.519-21.26,21.26-21.26h127.559
	c11.742,0,21.26,9.519,21.26,21.26C871.957,493.063,862.439,502.582,850.697,502.582"/>
<path fill="#C7F9F0" d="M974.004,549.412H713.216c-6.261,0-11.338-5.077-11.338-11.339c0-6.262,5.077-11.338,11.338-11.338h260.788
	c6.262,0,11.339,5.076,11.339,11.338C985.343,544.335,980.267,549.412,974.004,549.412"/>
<polyline fill="none" stroke="#379EAF" stroke-width="4" stroke-linecap="round" stroke-linejoin="round" stroke-miterlimit="10" points="
	1565.838,688.327 1230.202,688.327 1230.202,460.062 "/>
<path fill="#379EAF" d="M1299.082,686.068H1270V556.207c0-8.031,6.51-14.541,14.541-14.541s14.541,6.51,14.541,14.541V686.068z"/>
<path fill="#379EAF" d="M1361.083,686.068H1332v-69.862c0-8.031,6.511-14.541,14.541-14.541c8.031,0,14.542,6.51,14.542,14.541
	V686.068z"/>
<path fill="#379EAF" d="M1421.083,686.068h-29.082V504.207c0-8.031,6.51-14.541,14.541-14.541c8.03,0,14.541,6.51,14.541,14.541
	V686.068z"/>
<path fill="#379EAF" d="M1481.083,686.068h-29.082V582.874c0-8.031,6.511-14.541,14.541-14.541c8.031,0,14.541,6.51,14.541,14.541
	V686.068z"/>
<path fill="#379EAF" d="M1541.084,686.068h-29.082V537.54c0-8.031,6.51-14.541,14.541-14.541c8.03,0,14.541,6.51,14.541,14.541
	V686.068z"/>
<path fill="#C7F9F0" d="M1504.656,771.631h-213.115c-6.263,0-11.339-5.077-11.339-11.339s5.076-11.339,11.339-11.339h213.115
	c6.262,0,11.338,5.077,11.338,11.339S1510.918,771.631,1504.656,771.631"/>
<path fill="#C7F9F0" d="M1252.879,760.292c0,6.263-5.076,11.339-11.339,11.339s-11.338-5.076-11.338-11.339
	c0-6.262,5.075-11.339,11.338-11.339S1252.879,754.03,1252.879,760.292"/>
<path fill="#C7F9F0" d="M1450.864,811.631h-159.323c-6.263,0-11.339-5.076-11.339-11.339c0-6.262,5.076-11.338,11.339-11.338
	h159.323c6.263,0,11.339,5.076,11.339,11.338C1462.203,806.555,1457.127,811.631,1450.864,811.631"/>
<path fill="#C7F9F0" d="M1252.879,800.292c0,6.264-5.076,11.339-11.339,11.339s-11.338-5.075-11.338-11.339
	c0-6.262,5.075-11.338,11.338-11.338S1252.879,794.03,1252.879,800.292"/>
<path fill="#C7F9F0" d="M1484.656,851.631h-193.115c-6.263,0-11.339-5.076-11.339-11.338c0-6.263,5.076-11.339,11.339-11.339
	h193.115c6.262,0,11.338,5.076,11.338,11.339C1495.994,846.555,1490.918,851.631,1484.656,851.631"/>
<path fill="#C7F9F0" d="M1252.879,840.293c0,6.263-5.076,11.338-11.339,11.338s-11.338-5.075-11.338-11.338
	s5.075-11.339,11.338-11.339S1252.879,834.03,1252.879,840.293"/>
<path fill="#C7F9F0" d="M1400.656,891.632h-109.115c-6.263,0-11.339-5.077-11.339-11.339c0-6.263,5.076-11.339,11.339-11.339
	h109.115c6.262,0,11.338,5.076,11.338,11.339C1411.994,886.555,1406.918,891.632,1400.656,891.632"/>
<path fill="#C7F9F0" d="M1252.879,880.293c0,6.263-5.076,11.339-11.339,11.339s-11.338-5.076-11.338-11.339
	s5.075-11.339,11.338-11.339S1252.879,874.03,1252.879,880.293"/>
<polygon fill="#C7F9F0" points="509.604,1016.903 506.594,1036.074 506.125,1039.074 504.864,1047.074 503.765,1054.074 
	493.685,1118.245 493.214,1121.245 491.955,1129.245 490.854,1136.245 480.274,1203.574 430.944,1203.574 421.804,1136.245 
	420.854,1129.245 419.765,1121.245 419.364,1118.245 410.654,1054.074 409.705,1047.074 408.614,1039.074 408.205,1036.074 
	405.604,1016.903 "/>
<rect x="453.274" y="772.24" fill="#C7F9F0" width="8.667" height="332.667"/>
<path fill="#C7F9F0" d="M517.274,948.857c-2.299,0-2.296-3.566,0-3.566h29.086c4.828-4.515,9.391-9.32,13.642-14.434h-17.228
	c-2.299,0-2.296-3.566,0-3.566h20.101c20.689-26.442,33.399-60.505,33.399-102.383c-13.89,3.88-26.409,9.117-37.716,15.323v19.344
	c0,2.299-3.568,2.295-3.568,0v-17.337c-9.726,5.644-18.501,12.021-26.432,18.873v32.964c0,2.299-3.568,2.295-3.568,0v-29.8
	c-56.397,51.392-67.383,126.633-67.383,126.633c31.509-7.315,61.111-21.286,84.812-42.051H517.274z"/>
<path fill="#C7F9F0" d="M533.874,776.614c-1.819-1.359-0.039-4.457,1.801-3.081c4.491,3.359,9.009,6.686,13.352,10.218
	c4.897-13.067,7.629-27.782,7.629-44.177c-19.976,5.579-36.029,15.058-48.901,26.298c2.751,5.819,6.241,11.296,9.56,16.803
	c1.189,1.972-1.897,3.764-3.081,1.8c-3.196-5.302-6.499-10.579-9.219-16.135c-5.934,5.488-11.148,11.346-15.734,17.338
	c2.364,4.564,5.304,8.858,7.534,13.497c0.992,2.061-2.086,3.869-3.081,1.8c-2.014-4.188-4.552-8.105-6.783-12.171
	c-24.076,33.238-29.343,69.343-29.343,69.343c39.141-9.087,74.178-32.536,90.054-70.913
	C543.198,783.542,538.526,780.094,533.874,776.614"/>
<path fill="#C7F9F0" d="M473.036,726.335c-1.626,1.627-4.149-0.896-2.523-2.521l13.547-13.548
	c-0.082-23.415-8.105-47.681-26.381-70.603c-6.964,8.541-12.142,17.234-15.891,25.901l11.748,11.749
	c1.626,1.626-0.897,4.147-2.523,2.521l-10.69-10.688c-2.384,6.142-4.061,12.258-5.167,18.287l12.88,12.88
	c1.626,1.626-0.897,4.147-2.523,2.521l-11.056-11.056c-6.83,48.991,23.151,90.977,23.151,90.977
	c15.551-19.646,25.212-42.934,26.34-67.332C480.31,719.062,476.673,722.698,473.036,726.335"/>
<path fill="#C7F9F0" d="M393.774,886.357c-5.466,0.013-10.931,0.116-16.396,0.227c21.438,21.653,49.802,35.927,80.229,42.991
	c0,0-9.781-67.023-60.549-111.267v25.267c0,2.299-3.568,2.295-3.568,0v-28.276c-6.076-4.978-12.697-9.63-19.932-13.81v17.086
	c0,2.299-3.568,2.295-3.568,0v-19.077c-9.536-5.162-20.067-9.526-31.716-12.78c0,30.892,8.039,56.839,21.547,77.953
	c6.536-0.128,13.054-0.107,19.427,1.683c2.211,0.621,1.266,4.063-0.948,3.441c-5.305-1.49-10.717-1.677-16.152-1.608
	c3.623,5.279,7.592,10.246,11.875,14.892c6.583-0.132,13.166-0.274,19.751-0.287C396.074,882.786,396.07,886.353,393.774,886.357"/>
<polygon fill="#FFFFFF" points="692.935,1044.003 691.834,1051.003 598.725,1051.003 597.774,1044.003 "/>
<polygon fill="#FFFFFF" points="694.665,1033.003 694.194,1036.003 596.685,1036.003 596.274,1033.003 "/>
<polygon fill="#FFFFFF" points="680.024,1126.173 678.924,1133.173 609.875,1133.173 608.924,1126.173 "/>
<polygon fill="#FFFFFF" points="681.754,1115.173 681.284,1118.173 607.834,1118.173 607.435,1115.173 "/>
<path fill="#043955" d="M1587.677,813.091v387.2h-99.021v-387.2c0-6.909,5.602-12.5,12.5-12.5h74.021
	C1582.076,800.591,1587.677,806.182,1587.677,813.091"/>
<polygon fill="#043955" points="1780.224,1200.292 1758.621,1200.292 1709.563,860.135 1721.58,853.698 "/>
<path fill="#C7F9F0" d="M1790.25,1200.292h-21.688l-49.289-343.563c-0.229-1.595,0.914-3.058,2.516-3.222l16.048-1.645
	c1.512-0.155,2.877,0.911,3.093,2.416L1790.25,1200.292z"/>
<polygon fill="#043955" points="1723.843,1200.292 1699.315,1200.292 1687.599,838.742 1695.682,836.018 "/>
<path fill="#379EAF" d="M1732.927,1200.292h-21.802l-18.02-361.302c-0.081-1.617,1.209-2.973,2.829-2.973h16.129
	c1.509,0,2.754,1.184,2.829,2.69L1732.927,1200.292z"/>
<polygon fill="#043955" points="1304.945,1200.097 1326.633,1200.503 1370.242,934.836 1358.225,929.308 "/>
<path fill="#C7F9F0" d="M1295.005,1200.097l21.688,0.406l43.838-269.073c0.229-1.594-0.914-3.057-2.515-3.221l-16.049-1.645
	c-1.512-0.154-2.877,0.911-3.093,2.416L1295.005,1200.097z"/>
<polygon fill="#043955" points="1357.779,1200.503 1382.307,1200.503 1395.84,924.345 1382.307,921.619 "/>
<path fill="#F98A4B" d="M1348.694,1200.503h21.803l18.02-334.049c0.081-1.618-1.209-2.973-2.829-2.973h-16.13
	c-1.51,0-2.755,1.183-2.829,2.69L1348.694,1200.503z"/>
<path fill="#F98A4B" d="M1687.597,706.801v493.49h-99.011v-493.49c0-6.899,5.591-12.5,12.5-12.5h74.011
	C1682.007,694.301,1687.597,699.901,1687.597,706.801"/>
<path fill="#C7F9F0" d="M1487.746,929.36v270.932h-99.01V929.36c0-6.898,5.59-12.488,12.49-12.488h74.02
	C1482.156,916.872,1487.746,922.462,1487.746,929.36"/>
<rect x="1388.736" y="961.521" fill="#FFFFFF" width="99.01" height="6.5"/>
<rect x="1388.736" y="974.521" fill="#FFFFFF" width="99.01" height="6.5"/>
<rect x="1488.656" y="841.271" fill="#FFFFFF" width="99.021" height="6.5"/>
<rect x="1488.656" y="854.271" fill="#FFFFFF" width="99.021" height="6.5"/>
<rect x="1588.586" y="736.23" fill="#FFFFFF" width="99.011" height="6.5"/>
<rect x="1588.586" y="749.23" fill="#FFFFFF" width="99.011" height="6.5"/>
<rect x="1424.889" y="1019.996" fill="#FFFFFF" width="26.705" height="144.024"/>
<rect x="1524.814" y="961.521" fill="#FFFFFF" width="26.705" height="144.026"/>
<rect x="1624.739" y="890.021" fill="#FFFFFF" width="26.705" height="144.025"/>
<path fill="#043955" d="M1246.393,1203.503h231.402H1708.2h130.662c3.861,0,3.867-6,0-6h-231.403h-230.404h-130.662
	C1242.531,1197.503,1242.525,1203.503,1246.393,1203.503"/>
</svg>
